<?xml version="1.0" encoding="UTF-8" standalone="no"?>
<!-- Created with Inkscape (http://www.inkscape.org/) -->

<svg
   width="164.86945mm"
   height="36.828316mm"
   viewBox="0 0 164.86945 36.828316"
   version="1.1"
   id="svg1"
   inkscape:version="1.4 (e7c3feb100, 2024-10-09)"
   sodipodi:docname="baseline_mobile.svg"
   xmlns:inkscape="http://www.inkscape.org/namespaces/inkscape"
   xmlns:sodipodi="http://sodipodi.sourceforge.net/DTD/sodipodi-0.dtd"
   xmlns="http://www.w3.org/2000/svg"
   xmlns:svg="http://www.w3.org/2000/svg">
  <sodipodi:namedview
     id="namedview1"
     pagecolor="#ffffff"
     bordercolor="#000000"
     borderopacity="0.25"
     inkscape:showpageshadow="2"
     inkscape:pageopacity="0.0"
     inkscape:pagecheckerboard="0"
     inkscape:deskcolor="#d1d1d1"
     inkscape:document-units="mm"
     inkscape:zoom="0.7180275"
     inkscape:cx="396.22438"
     inkscape:cy="561.25984"
     inkscape:window-width="1920"
     inkscape:window-height="1015"
     inkscape:window-x="1920"
     inkscape:window-y="1080"
     inkscape:window-maximized="1"
     inkscape:current-layer="layer1" />
  <defs
     id="defs1" />
  <g
     inkscape:label="Layer 1"
     inkscape:groupmode="layer"
     id="layer1">
    <g
       id="g585"
       transform="matrix(0.26458333,0,0,0.26458333,-145.03242,79.097619)">
      <g
         id="g584"
         transform="translate(220.94,-72.52547)">
        <path
           class="cls-32"
           d="M 470.58003,-196.33504 C 462.69003,-196.13504 456.72003,-193.54504 456.56003,-184.65504 456.51003,-181.95504 457.46003,-179.46504 458.22003,-176.92504 459.00003,-174.31504 461.43003,-167.99504 455.98003,-170.62504 450.88003,-173.08504 448.38003,-178.69504 446.91003,-183.87504 446.65003,-184.79504 445.80003,-185.15504 444.92003,-184.79504 441.79003,-183.51504 439.97003,-179.77504 437.81003,-177.37504 436.93003,-176.40504 432.00003,-171.27504 430.32003,-172.45504 429.15003,-173.27504 430.30003,-177.53504 430.50003,-178.48504 431.05003,-181.05504 437.36003,-196.29504 431.76003,-196.91504 429.87003,-197.12504 427.42003,-194.45504 426.11003,-193.38504 423.22003,-191.00504 420.44003,-188.38504 417.80003,-185.73504 415.53003,-183.46504 413.50003,-180.94504 411.09003,-178.82504 409.92003,-177.79504 407.30003,-175.30504 405.63003,-175.80504 401.95003,-176.90504 403.89003,-182.29504 405.24003,-184.11504 407.00003,-186.48504 410.38003,-188.57504 413.37003,-188.99504 417.97003,-189.63504 417.97003,-183.81504 417.11003,-180.53504 416.47003,-178.08504 415.07003,-173.00504 412.52003,-171.62504 409.57003,-170.02504 406.67003,-175.23504 406.76003,-177.89504 406.81003,-179.34504 405.67003,-180.35504 404.22003,-179.73504 398.72003,-177.39504 391.91003,-164.61504 386.87003,-174.21504 384.76003,-178.23504 384.76003,-183.24504 385.05003,-187.64504 385.26003,-190.90504 385.65003,-194.27504 386.48003,-197.43504 387.00003,-199.39504 387.95003,-201.37504 387.99003,-203.43504 388.06003,-206.99504 385.49003,-208.36504 382.14003,-207.64504 377.65003,-206.68504 374.23003,-202.53504 371.36003,-199.27504 363.48003,-190.32504 358.24003,-178.01504 354.05003,-166.93504 352.46003,-162.72504 357.97003,-164.05504 359.28003,-166.67504 364.20003,-176.52504 368.17003,-188.08504 370.65003,-198.79504 372.11003,-205.13504 374.59003,-212.60504 372.73003,-219.09504 366.54003,-240.74504 334.76003,-208.12504 328.59003,-202.21504 325.80003,-199.55504 327.56003,-194.68504 331.12003,-197.98504 338.10003,-204.44504 345.50003,-211.78504 353.69003,-216.68504 360.65003,-220.85504 367.51003,-218.87504 367.15003,-210.38504 366.91003,-204.77504 365.26003,-198.76504 363.77003,-193.38504 361.40003,-184.85504 358.32003,-175.72504 354.38003,-167.78504 L 359.61003,-167.52504 C 361.70003,-173.12504 364.62003,-178.58504 367.13003,-184.00504 369.72003,-189.59504 372.99003,-194.70504 377.49003,-198.95504 378.12003,-199.55504 381.71003,-202.26504 382.22003,-200.92504 382.49003,-200.20504 381.70003,-198.85504 381.49003,-198.10504 380.81003,-195.70504 380.37003,-193.26504 380.02003,-190.79504 379.38003,-186.24504 379.09003,-181.59504 379.68003,-177.02504 380.25003,-172.60504 381.94003,-167.02504 386.23003,-164.79504 389.26003,-163.22504 392.47003,-164.48504 395.16003,-166.18504 396.97003,-167.32504 398.68003,-168.78504 400.28003,-170.20504 401.37003,-171.17504 402.63003,-173.40504 403.89003,-173.95504 L 401.35003,-175.79504 C 401.25003,-172.20504 403.97003,-165.93504 407.68003,-164.78504 412.05003,-163.42504 416.88003,-168.96504 418.64003,-172.32504 421.39003,-177.57504 424.13003,-184.49504 422.49003,-190.52504 421.21003,-195.24504 416.70003,-195.57504 412.65003,-194.27504 407.60003,-192.65504 403.02003,-189.16504 400.46003,-184.48504 398.51003,-180.93504 396.58003,-173.44504 401.01003,-170.72504 405.00003,-168.27504 410.48003,-172.66504 413.24003,-175.17504 419.35003,-180.73504 424.25003,-187.38504 431.19003,-192.05504 L 428.97003,-191.83504 C 430.94003,-190.89504 423.88003,-173.07504 425.98003,-169.13504 427.93003,-165.45504 433.48003,-168.72504 435.89003,-170.50504 437.62003,-171.78504 439.10003,-173.35504 440.49003,-174.97504 441.46003,-176.10504 443.32003,-179.61504 444.65003,-180.17504 L 442.66003,-181.09504 C 444.44003,-174.92504 452.83003,-159.15504 461.33003,-166.33504 464.52003,-169.02504 463.96003,-173.38504 463.05003,-176.98504 462.20003,-180.34504 459.29003,-185.68504 461.11003,-189.14504 462.70003,-192.16504 466.22003,-191.72504 469.33003,-191.82504 471.38003,-191.88504 473.33003,-196.43504 470.58003,-196.36504"
           id="path80"
           style="fill:#ffffff" />
        <path
           class="cls-32"
           d="M 498.08003,-167.60504 C 496.88003,-167.60504 495.80003,-167.82504 494.83003,-168.26504 493.86003,-168.70504 493.05003,-169.24504 492.41003,-169.88504 H 492.32003 C 492.34003,-169.57504 492.35003,-169.14504 492.37003,-168.58504 492.39003,-168.02504 492.39003,-167.41504 492.39003,-166.75504 V -157.50504 H 486.95003 V -190.43504 H 491.73003 L 491.96003,-187.93504 H 492.05003 C 492.72003,-188.82504 493.59003,-189.55504 494.64003,-190.12504 495.70003,-190.69504 496.92003,-190.98504 498.32003,-190.98504 499.53003,-190.98504 500.72003,-190.75504 501.89003,-190.30504 503.06003,-189.85504 504.10003,-189.15504 505.00003,-188.22504 505.90003,-187.28504 506.63003,-186.11504 507.17003,-184.68504 507.71003,-183.26504 507.99003,-181.57504 507.99003,-179.60504 507.99003,-177.53504 507.70003,-175.74504 507.12003,-174.24504 506.54003,-172.73504 505.77003,-171.48504 504.82003,-170.50504 503.87003,-169.51504 502.82003,-168.78504 501.66003,-168.31504 500.50003,-167.83504 499.31003,-167.60504 498.09003,-167.60504 M 497.36003,-186.62504 C 496.41003,-186.61504 495.51003,-186.37504 494.65003,-185.92504 493.79003,-185.47504 493.03003,-184.86504 492.38003,-184.09504 V -174.17504 C 492.61003,-173.91504 492.88003,-173.65504 493.21003,-173.39504 493.53003,-173.13504 493.89003,-172.89504 494.29003,-172.68504 494.69003,-172.47504 495.13003,-172.29504 495.61003,-172.15504 496.09003,-172.02504 496.59003,-171.94504 497.11003,-171.94504 497.95003,-171.94504 498.70003,-172.12504 499.36003,-172.48504 500.02003,-172.84504 500.57003,-173.35504 501.00003,-174.01504 501.44003,-174.67504 501.77003,-175.45504 502.00003,-176.37504 502.23003,-177.28504 502.34003,-178.30504 502.34003,-179.41504 502.34003,-180.61504 502.22003,-181.65504 501.99003,-182.56504 501.75003,-183.46504 501.42003,-184.21504 500.98003,-184.81504 500.54003,-185.41504 500.02003,-185.86504 499.40003,-186.16504 498.79003,-186.47504 498.11003,-186.62504 497.36003,-186.62504"
           id="path85"
           style="fill:#ffffff" />
        <path
           class="cls-32"
           d="M 525.56003,-186.11504 H 525.10003 C 523.43003,-186.11504 521.96003,-185.86504 520.70003,-185.36504 519.44003,-184.86504 518.46003,-184.10504 517.77003,-183.08504 V -168.17504 H 512.33003 V -190.43504 H 516.83003 L 517.34003,-187.33504 H 517.43003 C 518.07003,-188.46504 518.95003,-189.36504 520.08003,-190.01504 521.20003,-190.66504 522.56003,-190.99504 524.13003,-190.99504 524.68003,-190.99504 525.15003,-190.96504 525.55003,-190.90504 V -186.12504 Z"
           id="path86"
           style="fill:#ffffff" />
        <path
           class="cls-32"
           d="M 539.77003,-171.99504 C 540.82003,-171.99504 541.93003,-172.10504 543.08003,-172.31504 544.23003,-172.52504 545.39003,-172.83504 546.57003,-173.23504 V -168.89504 C 545.87003,-168.58504 544.79003,-168.29504 543.33003,-168.02504 541.88003,-167.74504 540.37003,-167.61504 538.81003,-167.61504 537.25003,-167.61504 535.73003,-167.81504 534.32003,-168.22504 532.91003,-168.62504 531.67003,-169.28504 530.61003,-170.18504 529.55003,-171.08504 528.71003,-172.25504 528.09003,-173.69504 527.47003,-175.13504 527.16003,-176.87504 527.16003,-178.93504 527.16003,-180.99504 527.45003,-182.72504 528.03003,-184.24504 528.61003,-185.76504 529.39003,-187.01504 530.37003,-188.01504 531.35003,-189.01504 532.47003,-189.75504 533.74003,-190.25504 535.00003,-190.75504 536.31003,-191.00504 537.66003,-191.00504 539.01003,-191.00504 540.37003,-190.78504 541.55003,-190.36504 542.74003,-189.93504 543.76003,-189.26504 544.63003,-188.34504 545.50003,-187.42504 546.17003,-186.24504 546.65003,-184.79504 547.13003,-183.34504 547.37003,-181.63504 547.37003,-179.66504 547.36003,-178.89504 547.33003,-178.24504 547.30003,-177.71504 H 532.71003 C 532.79003,-176.69504 533.02003,-175.81504 533.40003,-175.08504 533.78003,-174.35504 534.28003,-173.76504 534.90003,-173.31504 535.52003,-172.86504 536.24003,-172.53504 537.07003,-172.32504 537.90003,-172.11504 538.79003,-172.01504 539.76003,-172.01504 M 537.58003,-186.74504 C 536.89003,-186.74504 536.28003,-186.61504 535.74003,-186.36504 535.20003,-186.11504 534.74003,-185.76504 534.35003,-185.32504 533.96003,-184.88504 533.65003,-184.38504 533.42003,-183.79504 533.19003,-183.21504 533.04003,-182.59504 532.96003,-181.93504 H 541.71003 C 541.71003,-182.59504 541.62003,-183.21504 541.45003,-183.79504 541.27003,-184.37504 541.01003,-184.88504 540.67003,-185.32504 540.33003,-185.76504 539.90003,-186.10504 539.39003,-186.36504 538.88003,-186.61504 538.28003,-186.74504 537.59003,-186.74504"
           id="path87"
           style="fill:#ffffff" />
        <path
           class="cls-32"
           d="M 556.49003,-187.33504 H 556.58003 C 556.90003,-187.79504 557.31003,-188.24504 557.80003,-188.68504 558.29003,-189.12504 558.85003,-189.51504 559.48003,-189.85504 560.11003,-190.18504 560.80003,-190.46504 561.56003,-190.66504 562.31003,-190.87504 563.12003,-190.97504 563.98003,-190.97504 564.79003,-190.97504 565.58003,-190.88504 566.34003,-190.69504 567.10003,-190.51504 567.79003,-190.22504 568.42003,-189.83504 569.05003,-189.44504 569.60003,-188.94504 570.08003,-188.32504 570.56003,-187.70504 570.94003,-186.96504 571.22003,-186.10504 571.37003,-185.62504 571.48003,-185.11504 571.53003,-184.55504 571.58003,-183.99504 571.61003,-183.34504 571.61003,-182.61504 V -168.16504 H 566.17003 V -181.76504 C 566.17003,-182.36504 566.15003,-182.87504 566.10003,-183.30504 566.05003,-183.73504 565.97003,-184.10504 565.85003,-184.42504 565.57003,-185.13504 565.15003,-185.63504 564.60003,-185.94504 564.04003,-186.25504 563.36003,-186.40504 562.56003,-186.40504 561.51003,-186.40504 560.49003,-186.15504 559.52003,-185.65504 558.55003,-185.15504 557.69003,-184.43504 556.94003,-183.48504 V -168.16504 H 551.50003 V -190.42504 H 556.00003 L 556.51003,-187.32504 Z"
           id="path88"
           style="fill:#ffffff" />
        <path
           class="cls-32"
           d="M 597.39003,-179.29504 C 597.39003,-177.54504 597.13003,-175.95504 596.61003,-174.51504 596.09003,-173.07504 595.34003,-171.84504 594.37003,-170.81504 593.40003,-169.78504 592.22003,-168.99504 590.84003,-168.43504 589.46003,-167.87504 587.92003,-167.59504 586.22003,-167.59504 584.52003,-167.59504 582.91003,-167.87504 581.52003,-168.43504 580.13003,-168.99504 578.96003,-169.78504 577.99003,-170.81504 577.03003,-171.84504 576.29003,-173.07504 575.77003,-174.51504 575.26003,-175.95504 575.00003,-177.54504 575.00003,-179.29504 575.00003,-181.04504 575.26003,-182.63504 575.78003,-184.07504 576.30003,-185.51504 577.05003,-186.74504 578.02003,-187.77504 578.99003,-188.79504 580.17003,-189.59504 581.55003,-190.15504 582.93003,-190.71504 584.47003,-190.99504 586.17003,-190.99504 587.87003,-190.99504 589.48003,-190.71504 590.87003,-190.15504 592.26003,-189.59504 593.43003,-188.80504 594.40003,-187.77504 595.36003,-186.74504 596.10003,-185.51504 596.62003,-184.07504 597.13003,-182.63504 597.39003,-181.04504 597.39003,-179.29504 M 591.76003,-179.29504 C 591.76003,-180.47504 591.62003,-181.51504 591.35003,-182.41504 591.07003,-183.31504 590.69003,-184.07504 590.20003,-184.68504 589.71003,-185.29504 589.12003,-185.75504 588.43003,-186.06504 587.74003,-186.36504 586.99003,-186.52504 586.18003,-186.52504 585.37003,-186.52504 584.64003,-186.37504 583.96003,-186.06504 583.28003,-185.75504 582.69003,-185.29504 582.20003,-184.68504 581.71003,-184.07504 581.33003,-183.31504 581.05003,-182.41504 580.78003,-181.51504 580.64003,-180.47504 580.64003,-179.29504 580.64003,-178.11504 580.78003,-177.07504 581.05003,-176.17504 581.33003,-175.27504 581.71003,-174.51504 582.21003,-173.91504 582.71003,-173.30504 583.30003,-172.85504 583.98003,-172.53504 584.66003,-172.22504 585.41003,-172.06504 586.22003,-172.06504 587.03003,-172.06504 587.78003,-172.22504 588.45003,-172.53504 589.12003,-172.85504 589.71003,-173.30504 590.20003,-173.91504 590.69003,-174.51504 591.07003,-175.27504 591.35003,-176.17504 591.62003,-177.07504 591.76003,-178.11504 591.76003,-179.29504"
           id="path89"
           style="fill:#ffffff" />
        <path
           class="cls-32"
           d="M 606.28003,-187.33504 H 606.37003 C 606.69003,-187.79504 607.10003,-188.24504 607.59003,-188.68504 608.08003,-189.12504 608.64003,-189.51504 609.27003,-189.85504 609.90003,-190.18504 610.59003,-190.46504 611.35003,-190.66504 612.11003,-190.87504 612.91003,-190.97504 613.77003,-190.97504 614.58003,-190.97504 615.37003,-190.88504 616.13003,-190.69504 616.89003,-190.51504 617.58003,-190.22504 618.21003,-189.83504 618.84003,-189.44504 619.39003,-188.94504 619.87003,-188.32504 620.35003,-187.70504 620.73003,-186.96504 621.01003,-186.10504 621.16003,-185.62504 621.27003,-185.11504 621.32003,-184.55504 621.37003,-183.99504 621.40003,-183.34504 621.40003,-182.61504 V -168.16504 H 615.96003 V -181.76504 C 615.96003,-182.36504 615.94003,-182.87504 615.89003,-183.30504 615.84003,-183.73504 615.76003,-184.10504 615.64003,-184.42504 615.36003,-185.13504 614.94003,-185.63504 614.39003,-185.94504 613.83003,-186.25504 613.15003,-186.40504 612.35003,-186.40504 611.30003,-186.40504 610.28003,-186.15504 609.31003,-185.65504 608.34003,-185.15504 607.48003,-184.43504 606.73003,-183.48504 V -168.16504 H 601.29003 V -190.42504 H 605.79003 L 606.30003,-187.32504 Z"
           id="path90"
           style="fill:#ffffff" />
        <path
           class="cls-32"
           d="M 636.27003,-174.63504 C 636.27003,-175.11504 636.14003,-175.50504 635.87003,-175.80504 635.60003,-176.10504 635.25003,-176.36504 634.80003,-176.57504 634.35003,-176.78504 633.85003,-176.96504 633.27003,-177.11504 632.70003,-177.26504 632.10003,-177.42504 631.47003,-177.57504 630.67003,-177.78504 629.91003,-178.03504 629.17003,-178.32504 628.44003,-178.60504 627.79003,-178.98504 627.23003,-179.43504 626.67003,-179.89504 626.23003,-180.47504 625.90003,-181.16504 625.57003,-181.86504 625.41003,-182.71504 625.41003,-183.72504 625.41003,-184.96504 625.63003,-186.04504 626.08003,-186.95504 626.52003,-187.86504 627.12003,-188.62504 627.88003,-189.21504 628.64003,-189.81504 629.52003,-190.25504 630.52003,-190.54504 631.52003,-190.83504 632.58003,-190.98504 633.70003,-190.98504 635.06003,-190.98504 636.34003,-190.87504 637.53003,-190.65504 638.72003,-190.43504 639.81003,-190.14504 640.77003,-189.79504 V -185.36504 C 640.26003,-185.53504 639.73003,-185.69504 639.17003,-185.83504 638.61003,-185.97504 638.05003,-186.10504 637.47003,-186.21504 636.90003,-186.32504 636.32003,-186.40504 635.76003,-186.47504 635.19003,-186.54504 634.66003,-186.57504 634.15003,-186.57504 633.51003,-186.57504 632.96003,-186.51504 632.52003,-186.39504 632.07003,-186.27504 631.71003,-186.10504 631.44003,-185.89504 631.16003,-185.68504 630.96003,-185.45504 630.84003,-185.18504 630.72003,-184.91504 630.66003,-184.63504 630.66003,-184.34504 630.66003,-183.84504 630.79003,-183.42504 631.06003,-183.10504 631.33003,-182.78504 631.70003,-182.51504 632.17003,-182.32504 632.65003,-182.12504 633.15003,-181.96504 633.66003,-181.83504 634.18003,-181.70504 634.69003,-181.57504 635.18003,-181.45504 635.95003,-181.27504 636.71003,-181.05504 637.47003,-180.78504 638.24003,-180.52504 638.93003,-180.16504 639.54003,-179.69504 640.15003,-179.22504 640.65003,-178.62504 641.04003,-177.88504 641.43003,-177.14504 641.63003,-176.19504 641.63003,-175.04504 641.63003,-173.78504 641.39003,-172.69504 640.92003,-171.75504 640.44003,-170.82504 639.78003,-170.04504 638.93003,-169.42504 638.08003,-168.80504 637.06003,-168.34504 635.87003,-168.04504 634.69003,-167.74504 633.38003,-167.59504 631.95003,-167.59504 630.52003,-167.59504 629.28003,-167.70504 628.15003,-167.92504 627.03003,-168.14504 626.10003,-168.42504 625.36003,-168.76504 V -173.15504 C 626.55003,-172.71504 627.66003,-172.40504 628.67003,-172.25504 629.68003,-172.09504 630.62003,-172.01504 631.50003,-172.01504 632.17003,-172.01504 632.80003,-172.06504 633.38003,-172.16504 633.96003,-172.26504 634.46003,-172.42504 634.88003,-172.63504 635.30003,-172.85504 635.63003,-173.12504 635.88003,-173.45504 636.12003,-173.78504 636.25003,-174.17504 636.25003,-174.64504"
           id="path91"
           style="fill:#ffffff" />
        <path
           class="cls-32"
           d="M 664.49003,-174.63504 C 664.49003,-175.11504 664.36003,-175.50504 664.09003,-175.80504 663.82003,-176.10504 663.47003,-176.36504 663.02003,-176.57504 662.57003,-176.78504 662.07003,-176.96504 661.49003,-177.11504 660.92003,-177.26504 660.32003,-177.42504 659.69003,-177.57504 658.89003,-177.78504 658.13003,-178.03504 657.39003,-178.32504 656.66003,-178.60504 656.01003,-178.98504 655.45003,-179.43504 654.89003,-179.89504 654.45003,-180.47504 654.12003,-181.16504 653.79003,-181.86504 653.63003,-182.71504 653.63003,-183.72504 653.63003,-184.96504 653.85003,-186.04504 654.30003,-186.95504 654.74003,-187.86504 655.34003,-188.62504 656.10003,-189.21504 656.86003,-189.81504 657.74003,-190.25504 658.74003,-190.54504 659.74003,-190.83504 660.80003,-190.98504 661.92003,-190.98504 663.28003,-190.98504 664.56003,-190.87504 665.75003,-190.65504 666.94003,-190.43504 668.03003,-190.14504 668.99003,-189.79504 V -185.36504 C 668.48003,-185.53504 667.95003,-185.69504 667.39003,-185.83504 666.83003,-185.97504 666.27003,-186.10504 665.69003,-186.21504 665.12003,-186.32504 664.54003,-186.40504 663.98003,-186.47504 663.41003,-186.54504 662.88003,-186.57504 662.37003,-186.57504 661.73003,-186.57504 661.18003,-186.51504 660.74003,-186.39504 660.29003,-186.27504 659.93003,-186.10504 659.66003,-185.89504 659.38003,-185.68504 659.18003,-185.45504 659.06003,-185.18504 658.94003,-184.91504 658.88003,-184.63504 658.88003,-184.34504 658.88003,-183.84504 659.01003,-183.42504 659.28003,-183.10504 659.55003,-182.78504 659.92003,-182.51504 660.39003,-182.32504 660.87003,-182.12504 661.37003,-181.96504 661.88003,-181.83504 662.40003,-181.70504 662.91003,-181.57504 663.40003,-181.45504 664.17003,-181.27504 664.93003,-181.05504 665.69003,-180.78504 666.46003,-180.52504 667.15003,-180.16504 667.76003,-179.69504 668.37003,-179.22504 668.87003,-178.62504 669.26003,-177.88504 669.65003,-177.14504 669.85003,-176.19504 669.85003,-175.04504 669.85003,-173.78504 669.61003,-172.69504 669.14003,-171.75504 668.66003,-170.82504 668.00003,-170.04504 667.15003,-169.42504 666.30003,-168.80504 665.28003,-168.34504 664.09003,-168.04504 662.91003,-167.74504 661.60003,-167.59504 660.17003,-167.59504 658.74003,-167.59504 657.50003,-167.70504 656.37003,-167.92504 655.25003,-168.14504 654.32003,-168.42504 653.58003,-168.76504 V -173.15504 C 654.77003,-172.71504 655.88003,-172.40504 656.89003,-172.25504 657.90003,-172.09504 658.84003,-172.01504 659.72003,-172.01504 660.39003,-172.01504 661.02003,-172.06504 661.60003,-172.16504 662.18003,-172.26504 662.68003,-172.42504 663.10003,-172.63504 663.52003,-172.85504 663.85003,-173.12504 664.10003,-173.45504 664.34003,-173.78504 664.47003,-174.17504 664.47003,-174.64504"
           id="path92"
           style="fill:#ffffff" />
        <path
           class="cls-32"
           d="M 694.86003,-179.29504 C 694.86003,-177.54504 694.60003,-175.95504 694.08003,-174.51504 693.56003,-173.07504 692.81003,-171.84504 691.84003,-170.81504 690.87003,-169.78504 689.69003,-168.99504 688.31003,-168.43504 686.93003,-167.87504 685.39003,-167.59504 683.69003,-167.59504 681.99003,-167.59504 680.38003,-167.87504 678.99003,-168.43504 677.60003,-168.99504 676.43003,-169.78504 675.46003,-170.81504 674.50003,-171.84504 673.76003,-173.07504 673.24003,-174.51504 672.73003,-175.95504 672.47003,-177.54504 672.47003,-179.29504 672.47003,-181.04504 672.73003,-182.63504 673.25003,-184.07504 673.77003,-185.51504 674.52003,-186.74504 675.49003,-187.77504 676.46003,-188.79504 677.64003,-189.59504 679.02003,-190.15504 680.40003,-190.71504 681.94003,-190.99504 683.64003,-190.99504 685.34003,-190.99504 686.95003,-190.71504 688.34003,-190.15504 689.73003,-189.59504 690.90003,-188.80504 691.87003,-187.77504 692.83003,-186.74504 693.57003,-185.51504 694.09003,-184.07504 694.60003,-182.63504 694.86003,-181.04504 694.86003,-179.29504 M 689.23003,-179.29504 C 689.23003,-180.47504 689.09003,-181.51504 688.82003,-182.41504 688.54003,-183.31504 688.16003,-184.07504 687.67003,-184.68504 687.18003,-185.29504 686.59003,-185.75504 685.90003,-186.06504 685.21003,-186.36504 684.46003,-186.52504 683.65003,-186.52504 682.84003,-186.52504 682.11003,-186.37504 681.43003,-186.06504 680.75003,-185.75504 680.16003,-185.29504 679.67003,-184.68504 679.18003,-184.07504 678.80003,-183.31504 678.52003,-182.41504 678.25003,-181.51504 678.11003,-180.47504 678.11003,-179.29504 678.11003,-178.11504 678.25003,-177.07504 678.52003,-176.17504 678.80003,-175.27504 679.18003,-174.51504 679.68003,-173.91504 680.18003,-173.30504 680.77003,-172.85504 681.45003,-172.53504 682.13003,-172.22504 682.88003,-172.06504 683.69003,-172.06504 684.50003,-172.06504 685.25003,-172.22504 685.92003,-172.53504 686.59003,-172.85504 687.18003,-173.30504 687.67003,-173.91504 688.16003,-174.51504 688.54003,-175.27504 688.82003,-176.17504 689.09003,-177.07504 689.23003,-178.11504 689.23003,-179.29504"
           id="path93"
           style="fill:#ffffff" />
        <path
           class="cls-32"
           d="M 698.74003,-201.44504 H 704.46003 V -195.53504 H 698.74003 Z M 698.88003,-190.43504 H 704.32003 V -168.17504 H 698.88003 Z"
           id="path94"
           style="fill:#ffffff" />
        <path
           class="cls-32"
           d="M 715.44003,-187.33504 H 715.53003 C 715.85003,-187.79504 716.26003,-188.24504 716.75003,-188.68504 717.24003,-189.12504 717.80003,-189.51504 718.43003,-189.85504 719.06003,-190.18504 719.75003,-190.46504 720.51003,-190.66504 721.27003,-190.87504 722.07003,-190.97504 722.93003,-190.97504 723.74003,-190.97504 724.53003,-190.88504 725.29003,-190.69504 726.05003,-190.51504 726.74003,-190.22504 727.37003,-189.83504 728.00003,-189.44504 728.55003,-188.94504 729.03003,-188.32504 729.51003,-187.70504 729.89003,-186.96504 730.17003,-186.10504 730.32003,-185.62504 730.43003,-185.11504 730.48003,-184.55504 730.53003,-183.99504 730.56003,-183.34504 730.56003,-182.61504 V -168.16504 H 725.12003 V -181.76504 C 725.12003,-182.36504 725.10003,-182.87504 725.05003,-183.30504 725.00003,-183.73504 724.92003,-184.10504 724.80003,-184.42504 724.52003,-185.13504 724.10003,-185.63504 723.55003,-185.94504 722.99003,-186.25504 722.31003,-186.40504 721.51003,-186.40504 720.46003,-186.40504 719.44003,-186.15504 718.47003,-185.65504 717.50003,-185.15504 716.64003,-184.43504 715.89003,-183.48504 V -168.16504 H 710.45003 V -190.42504 H 714.95003 L 715.46003,-187.32504 Z"
           id="path95"
           style="fill:#ffffff" />
      </g>
      <g
         id="g583"
         transform="translate(34.622694,-3.16296)">
        <path
           class="cls-32"
           d="M 880.79003,-215.86504 C 875.14003,-208.97504 871.53003,-200.50504 868.50003,-192.19504 866.79003,-187.50504 865.61003,-182.70504 865.09003,-177.73504 864.74003,-174.39504 863.82003,-170.25504 866.64003,-167.70504 872.86003,-162.06504 879.72003,-172.76504 882.43003,-177.18504 885.95003,-182.92504 890.55003,-189.87504 889.95003,-196.87504 889.83003,-198.27504 888.05003,-198.12504 887.23003,-197.54504 885.17003,-196.07504 883.99003,-193.67504 883.71003,-191.16504 883.35003,-187.85504 885.67003,-185.83504 887.77003,-183.61504 889.47003,-181.82504 891.14003,-180.03504 891.26003,-177.44504 891.37003,-174.89504 889.87003,-171.64504 891.71003,-169.39504 894.85003,-165.53504 901.65003,-168.85504 904.23003,-171.63504 907.09003,-174.71504 910.48003,-177.26504 913.15003,-180.54504 915.11003,-182.94504 918.01003,-187.44504 915.16003,-190.25504 911.76003,-193.60504 905.93003,-188.51504 904.22003,-185.51504 900.88003,-179.66504 900.19003,-168.75504 908.49003,-167.08504 917.80003,-165.20504 928.56003,-170.08504 936.94003,-173.65504 939.09003,-174.56504 940.59003,-179.87504 937.21003,-178.60504 931.85003,-176.58504 908.66003,-166.56504 906.95003,-176.61504 906.60003,-178.66504 906.65003,-181.29504 907.35003,-183.25504 908.08003,-185.28504 912.80003,-187.64504 911.40003,-184.44504 910.33003,-182.01504 907.27003,-179.86504 905.36003,-178.13504 903.43003,-176.40504 901.59003,-173.49504 898.98003,-173.07504 898.02003,-172.91504 896.31003,-172.66504 895.58003,-173.45504 894.81003,-174.27504 895.45003,-176.00504 895.57003,-177.02504 895.78003,-178.82504 895.85003,-180.68504 895.30003,-182.42504 894.72003,-184.25504 887.21003,-192.56504 888.14003,-193.22504 887.24003,-193.44504 886.33003,-193.67504 885.42003,-193.89504 885.78003,-189.07504 881.65003,-183.45504 879.24003,-179.49504 877.73003,-177.02504 875.96003,-174.18504 873.71003,-172.32504 872.48003,-171.30504 871.21003,-171.14504 869.98003,-172.30504 868.71003,-173.49504 869.05003,-175.19504 869.13003,-176.74504 869.47003,-183.82504 871.18003,-190.23504 873.48003,-196.89504 875.67003,-203.24504 878.33003,-209.31504 882.55003,-214.58504 883.85003,-216.20504 882.09003,-217.44504 880.79003,-215.86504"
           id="path81"
           style="fill:#ffffff" />
        <path
           class="cls-32"
           d="M 864.34003,-204.66504 C 870.44003,-204.45504 876.51003,-204.88504 882.59003,-205.26504 888.75003,-205.65504 894.81003,-205.37504 900.90003,-204.33504 903.45003,-203.89504 906.17003,-209.32504 903.49003,-209.65504 897.05003,-210.44504 890.70003,-210.31504 884.27003,-209.56504 877.93003,-208.81504 871.72003,-208.06504 865.32003,-208.22504 863.72003,-208.26504 862.18003,-204.74504 864.34003,-204.67504"
           id="path82"
           style="fill:#ffffff" />
        <path
           class="cls-32"
           d="M 810.62003,-195.13504 C 812.08003,-191.00504 811.35003,-186.05504 811.01003,-181.79504 810.65003,-177.24504 809.84003,-172.20504 810.92003,-167.70504 811.38003,-165.80504 813.33003,-166.66504 814.33003,-167.47504 815.52003,-168.44504 816.47003,-169.70504 817.39003,-170.92504 818.42003,-172.29504 819.53003,-173.58504 820.60003,-174.92504 822.94003,-177.84504 825.24003,-180.79504 827.60003,-183.70504 829.72003,-186.31504 831.96003,-188.81504 834.13003,-191.38504 834.29003,-191.56504 834.44003,-191.75504 834.59003,-191.93504 834.07003,-191.32504 834.72003,-192.06504 834.79003,-192.13504 835.00003,-192.34504 835.21003,-192.56504 835.44003,-192.74504 835.07003,-192.44504 835.38003,-192.70504 835.60003,-192.81504 835.83003,-192.92504 835.34003,-192.81504 835.82003,-192.87504 835.44003,-192.83504 836.33003,-192.88504 836.30003,-192.88504 836.92003,-192.85504 837.62003,-192.62504 838.20003,-192.43504 840.46003,-191.70504 843.74003,-196.46504 841.53003,-197.97504 838.50003,-200.05504 835.17003,-198.77504 832.74003,-196.40504 832.13003,-195.81504 831.59003,-195.15504 831.05003,-194.50504 830.87003,-194.28504 830.69003,-194.05504 830.50003,-193.83504 830.37003,-193.68504 829.82003,-193.03504 830.39003,-193.70504 828.97003,-192.05504 827.55003,-190.40504 826.17003,-188.71504 823.67003,-185.63504 821.26003,-182.48504 818.84003,-179.35504 817.63003,-177.79504 816.35003,-176.29504 815.16003,-174.72504 814.15003,-173.39504 813.31003,-171.98504 812.21003,-171.01504 813.35003,-170.94504 814.49003,-170.86504 815.62003,-170.79504 814.36003,-175.04504 814.95003,-179.76504 815.13003,-184.12504 815.32003,-188.47504 815.97003,-193.48504 814.47003,-197.67504 813.56003,-200.22504 809.93003,-197.04504 810.60003,-195.13504"
           id="path83"
           style="fill:#ffffff" />
        <path
           class="cls-32"
           d="M 841.05003,-196.13504 C 838.56003,-195.19504 837.16003,-191.59504 836.18003,-189.37504 834.57003,-185.76504 833.16003,-181.99504 832.26003,-178.14504 831.54003,-175.09504 830.60003,-170.87504 832.23003,-167.93504 834.35003,-164.13504 839.37003,-166.41504 842.07003,-168.17504 847.65003,-171.80504 850.89003,-177.46504 852.58003,-183.74504 853.60003,-187.53504 855.64003,-196.74504 848.79003,-195.95504 844.02003,-195.39504 838.17003,-188.87504 841.08003,-184.07504 843.10003,-180.74504 847.41003,-181.28504 850.61003,-182.19504 855.31003,-183.53504 859.72003,-186.16504 863.76003,-188.85504 866.85003,-190.91504 870.14003,-193.29504 872.44003,-196.26504 873.10003,-197.11504 873.67003,-198.84504 872.63003,-199.63504 871.55003,-200.45504 870.10003,-199.21504 869.48003,-198.41504 870.23003,-199.37504 869.50003,-198.48504 869.23003,-198.24504 869.06003,-198.09504 868.89003,-197.95504 868.72003,-197.81504 869.37003,-198.36504 868.59003,-197.72504 868.45003,-197.61504 867.34003,-196.76504 866.20003,-195.94504 865.04003,-195.16504 862.22003,-193.27504 859.13003,-191.24504 856.30003,-189.85504 854.78003,-189.10504 853.21003,-188.43504 851.59003,-187.92504 850.77003,-187.66504 850.71003,-187.64504 849.88003,-187.51504 849.56003,-187.46504 849.23003,-187.41504 848.91003,-187.39504 848.80003,-187.39504 847.86003,-187.37504 848.28003,-187.35504 847.75003,-187.38504 847.20003,-187.48504 846.70003,-187.69504 847.13003,-187.52504 846.52003,-187.82504 846.40003,-187.89504 846.10003,-188.09504 845.95003,-188.30504 846.04003,-188.18504 845.88003,-188.39504 845.73003,-188.62504 845.61003,-188.86504 845.49003,-189.11504 845.53003,-189.17504 845.50003,-189.23504 845.86003,-188.70504 844.99003,-188.94504 845.51003,-189.04504 845.35003,-189.01504 845.29003,-188.74504 845.55003,-189.10504 846.08003,-189.83504 845.17003,-188.82504 845.86003,-189.44504 846.12003,-189.68504 846.61003,-190.05504 847.05003,-190.15504 847.60003,-190.28504 848.08003,-190.23504 848.44003,-189.76504 849.25003,-188.69504 848.51003,-186.10504 848.22003,-184.81504 847.82003,-183.01504 847.42003,-181.07504 846.69003,-179.37504 845.73003,-177.11504 844.13003,-175.13504 842.29003,-173.53504 841.44003,-172.79504 840.48003,-172.12504 839.46003,-171.63504 839.04003,-171.43504 838.60003,-171.25504 838.15003,-171.13504 838.48003,-171.22504 837.82003,-171.07504 837.68003,-171.06504 837.12003,-170.98504 837.28003,-170.92504 836.70003,-171.16504 836.73003,-171.15504 836.21003,-171.58504 836.22003,-171.58504 835.81003,-172.20504 835.62003,-173.11504 835.58003,-173.77504 835.48003,-175.17504 835.63003,-176.62504 835.85003,-178.01504 836.36003,-181.26504 837.30003,-184.58504 838.56003,-187.63504 839.13003,-189.00504 839.75003,-190.34504 840.47003,-191.65504 840.78003,-192.21504 840.43003,-191.63504 840.70003,-192.04504 840.83003,-192.24504 840.97003,-192.43504 841.10003,-192.63504 841.41003,-193.10504 840.80003,-192.53504 841.21003,-192.77504 841.49003,-192.93504 840.65003,-192.47504 840.85003,-192.54504 841.79003,-192.90504 842.61003,-193.98504 842.64003,-195.00504 842.66003,-195.95504 841.96003,-196.49504 841.05003,-196.15504"
           id="path84"
           style="fill:#ffffff" />
        <path
           class="cls-32"
           d="M 748.04003,-177.95504 C 748.04003,-179.90504 748.31003,-181.63504 748.84003,-183.15504 749.38003,-184.67504 750.11003,-185.95504 751.03003,-186.99504 751.96003,-188.02504 753.02003,-188.79504 754.21003,-189.31504 755.41003,-189.82504 756.65003,-190.08504 757.93003,-190.08504 758.53003,-190.08504 759.09003,-190.03504 759.63003,-189.92504 760.17003,-189.81504 760.67003,-189.66504 761.14003,-189.48504 761.62003,-189.30504 762.06003,-189.09504 762.47003,-188.86504 762.88003,-188.63504 763.26003,-188.39504 763.62003,-188.15504 H 763.67003 C 763.66003,-188.45504 763.65003,-188.89504 763.64003,-189.45504 763.64003,-190.01504 763.63003,-190.62504 763.63003,-191.28504 V -200.54504 H 769.07003 V -173.89504 C 769.07003,-172.42504 769.09003,-171.16504 769.12003,-170.10504 769.15003,-169.04504 769.18003,-168.10504 769.21003,-167.27504 H 764.29003 L 764.06003,-169.63504 H 763.97003 C 763.65003,-169.25504 763.26003,-168.87504 762.81003,-168.51504 762.36003,-168.14504 761.86003,-167.82504 761.32003,-167.56504 760.77003,-167.29504 760.18003,-167.08504 759.52003,-166.93504 758.87003,-166.78504 758.16003,-166.70504 757.40003,-166.70504 756.19003,-166.70504 755.03003,-166.92504 753.92003,-167.34504 752.81003,-167.77504 751.82003,-168.43504 750.93003,-169.33504 750.05003,-170.22504 749.34003,-171.39504 748.82003,-172.84504 748.29003,-174.29504 748.03003,-175.99504 748.03003,-177.95504 M 758.77003,-171.03504 C 759.31003,-171.03504 759.82003,-171.10504 760.30003,-171.24504 760.78003,-171.38504 761.24003,-171.56504 761.66003,-171.79504 762.09003,-172.02504 762.47003,-172.27504 762.80003,-172.55504 763.13003,-172.82504 763.41003,-173.09504 763.64003,-173.35504 V -183.92504 C 763.00003,-184.44504 762.28003,-184.87504 761.48003,-185.22504 760.68003,-185.56504 759.84003,-185.74504 758.95003,-185.74504 758.39003,-185.74504 757.79003,-185.62504 757.17003,-185.40504 756.55003,-185.17504 755.99003,-184.78504 755.47003,-184.23504 754.96003,-183.68504 754.53003,-182.91504 754.18003,-181.94504 753.84003,-180.96504 753.67003,-179.71504 753.67003,-178.19504 753.67003,-175.96504 754.10003,-174.21504 754.97003,-172.96504 755.84003,-171.70504 757.10003,-171.07504 758.77003,-171.05504"
           id="path96"
           style="fill:#ffffff" />
        <path
           class="cls-32"
           d="M 785.95003,-171.08504 C 787.00003,-171.08504 788.11003,-171.19504 789.26003,-171.40504 790.41003,-171.61504 791.57003,-171.92504 792.75003,-172.32504 V -167.98504 C 792.05003,-167.67504 790.97003,-167.38504 789.51003,-167.11504 788.06003,-166.83504 786.55003,-166.70504 784.99003,-166.70504 783.43003,-166.70504 781.91003,-166.90504 780.50003,-167.31504 779.09003,-167.71504 777.85003,-168.37504 776.79003,-169.27504 775.73003,-170.17504 774.89003,-171.35504 774.27003,-172.78504 773.65003,-174.22504 773.34003,-175.96504 773.34003,-178.02504 773.34003,-180.08504 773.63003,-181.81504 774.21003,-183.33504 774.79003,-184.84504 775.57003,-186.10504 776.55003,-187.10504 777.53003,-188.10504 778.65003,-188.84504 779.92003,-189.34504 781.18003,-189.84504 782.49003,-190.09504 783.84003,-190.09504 785.19003,-190.09504 786.55003,-189.87504 787.73003,-189.45504 788.92003,-189.02504 789.94003,-188.35504 790.81003,-187.43504 791.68003,-186.51504 792.35003,-185.33504 792.83003,-183.88504 793.31003,-182.43504 793.55003,-180.72504 793.55003,-178.75504 793.54003,-177.98504 793.51003,-177.33504 793.48003,-176.80504 H 778.89003 C 778.97003,-175.78504 779.20003,-174.90504 779.58003,-174.17504 779.96003,-173.44504 780.46003,-172.85504 781.08003,-172.40504 781.70003,-171.95504 782.42003,-171.62504 783.25003,-171.41504 784.08003,-171.20504 784.97003,-171.10504 785.94003,-171.10504 M 783.76003,-185.83504 C 783.07003,-185.83504 782.46003,-185.70504 781.92003,-185.45504 781.38003,-185.20504 780.92003,-184.85504 780.53003,-184.41504 780.14003,-183.97504 779.83003,-183.47504 779.60003,-182.89504 779.37003,-182.31504 779.22003,-181.69504 779.14003,-181.03504 H 787.89003 C 787.89003,-181.69504 787.80003,-182.31504 787.63003,-182.89504 787.45003,-183.47504 787.19003,-183.98504 786.85003,-184.41504 786.51003,-184.85504 786.08003,-185.19504 785.57003,-185.45504 785.06003,-185.70504 784.46003,-185.83504 783.77003,-185.83504"
           id="path97"
           style="fill:#ffffff" />
        <path
           class="cls-32"
           d="M 967.52003,-187.02504 967.75003,-189.52504 H 972.53003 V -156.59504 H 967.09003 V -165.84504 C 967.09003,-166.50504 967.10003,-167.11504 967.11003,-167.67504 967.12003,-168.23504 967.14003,-168.66504 967.16003,-168.97504 H 967.11003 C 966.77003,-168.70504 966.39003,-168.42504 965.95003,-168.15504 965.51003,-167.88504 965.04003,-167.64504 964.51003,-167.42504 963.99003,-167.20504 963.42003,-167.02504 962.81003,-166.89504 962.20003,-166.76504 961.55003,-166.70504 960.86003,-166.70504 959.68003,-166.70504 958.53003,-166.91504 957.41003,-167.33504 956.28003,-167.75504 955.28003,-168.42504 954.40003,-169.33504 953.52003,-170.24504 952.81003,-171.42504 952.29003,-172.86504 951.76003,-174.30504 951.50003,-176.01504 951.50003,-177.98504 951.50003,-179.95504 951.77003,-181.69504 952.32003,-183.21504 952.86003,-184.74504 953.59003,-186.02504 954.49003,-187.03504 955.39003,-188.04504 956.43003,-188.80504 957.60003,-189.31504 958.77003,-189.82504 959.98003,-190.08504 961.22003,-190.08504 962.55003,-190.08504 963.75003,-189.80504 964.81003,-189.24504 965.87003,-188.68504 966.75003,-187.95504 967.44003,-187.03504 H 967.53003 Z M 962.21003,-171.03504 C 962.76003,-171.03504 963.28003,-171.10504 963.77003,-171.24504 964.26003,-171.38504 964.71003,-171.56504 965.12003,-171.77504 965.53003,-171.99504 965.90003,-172.22504 966.23003,-172.48504 966.56003,-172.74504 966.84003,-173.00504 967.07003,-173.26504 V -183.14504 C 966.51003,-183.83504 965.81003,-184.43504 965.01003,-184.94504 964.20003,-185.45504 963.31003,-185.72504 962.34003,-185.73504 961.79003,-185.73504 961.21003,-185.62504 960.61003,-185.40504 960.01003,-185.18504 959.44003,-184.78504 958.90003,-184.22504 958.36003,-183.66504 957.93003,-182.87504 957.60003,-181.87504 957.27003,-180.87504 957.11003,-179.64504 957.11003,-178.21504 957.11003,-177.09504 957.22003,-176.09504 957.43003,-175.21504 957.65003,-174.33504 957.97003,-173.58504 958.39003,-172.96504 958.82003,-172.34504 959.35003,-171.86504 959.99003,-171.53504 960.62003,-171.20504 961.36003,-171.04504 962.20003,-171.04504"
           id="path98"
           style="fill:#ffffff" />
        <path
           class="cls-32"
           d="M 987.82003,-166.69504 C 985.58003,-166.69504 983.73003,-167.07504 982.26003,-167.83504 980.79003,-168.59504 979.68003,-169.61504 978.93003,-170.89504 978.53003,-171.58504 978.24003,-172.34504 978.05003,-173.16504 977.86003,-173.99504 977.76003,-174.91504 977.76003,-175.92504 V -189.51504 H 983.20003 V -176.49504 C 983.20003,-175.74504 983.25003,-175.09504 983.36003,-174.55504 983.47003,-174.01504 983.63003,-173.54504 983.84003,-173.14504 984.21003,-172.47504 984.73003,-171.97504 985.40003,-171.64504 986.07003,-171.31504 986.88003,-171.14504 987.81003,-171.14504 988.74003,-171.14504 989.63003,-171.32504 990.32003,-171.69504 991.02003,-172.06504 991.54003,-172.62504 991.89003,-173.37504 992.24003,-174.09504 992.42003,-175.09504 992.42003,-176.38504 V -189.52504 H 997.86003 V -175.93504 C 997.86003,-174.12504 997.55003,-172.60504 996.92003,-171.36504 996.57003,-170.65504 996.11003,-170.02504 995.55003,-169.44504 994.99003,-168.87504 994.33003,-168.38504 993.57003,-167.97504 992.82003,-167.56504 991.96003,-167.25504 991.00003,-167.03504 990.04003,-166.81504 988.97003,-166.70504 987.80003,-166.70504"
           id="path99"
           style="fill:#ffffff" />
        <path
           class="cls-32"
           d="M 1023.9,-178.38504 C 1023.9,-176.63504 1023.64,-175.04504 1023.12,-173.60504 1022.6,-172.16504 1021.85,-170.93504 1020.88,-169.90504 1019.91,-168.87504 1018.73,-168.08504 1017.35,-167.52504 1015.97,-166.96504 1014.43,-166.68504 1012.73,-166.68504 1011.03,-166.68504 1009.42,-166.96504 1008.03,-167.52504 1006.64,-168.08504 1005.47,-168.87504 1004.5,-169.90504 1003.54,-170.93504 1002.8,-172.16504 1002.28,-173.60504 1001.77,-175.04504 1001.51,-176.63504 1001.51,-178.38504 1001.51,-180.13504 1001.77,-181.72504 1002.29,-183.16504 1002.81,-184.60504 1003.56,-185.83504 1004.53,-186.86504 1005.5,-187.88504 1006.68,-188.68504 1008.06,-189.24504 1009.44,-189.80504 1010.98,-190.08504 1012.68,-190.08504 1014.38,-190.08504 1015.99,-189.80504 1017.38,-189.24504 1018.77,-188.68504 1019.94,-187.89504 1020.91,-186.86504 1021.87,-185.84504 1022.61,-184.60504 1023.13,-183.16504 1023.64,-181.72504 1023.9,-180.13504 1023.9,-178.38504 M 1018.27,-178.38504 C 1018.27,-179.56504 1018.13,-180.60504 1017.86,-181.50504 1017.58,-182.40504 1017.2,-183.16504 1016.71,-183.77504 1016.22,-184.38504 1015.63,-184.84504 1014.94,-185.15504 1014.25,-185.45504 1013.5,-185.61504 1012.69,-185.61504 1011.88,-185.61504 1011.15,-185.46504 1010.47,-185.15504 1009.79,-184.84504 1009.2,-184.38504 1008.71,-183.77504 1008.22,-183.16504 1007.84,-182.40504 1007.56,-181.50504 1007.29,-180.60504 1007.15,-179.56504 1007.15,-178.38504 1007.15,-177.20504 1007.29,-176.16504 1007.56,-175.26504 1007.84,-174.36504 1008.22,-173.60504 1008.72,-173.00504 1009.22,-172.39504 1009.81,-171.94504 1010.49,-171.62504 1011.17,-171.31504 1011.92,-171.15504 1012.73,-171.15504 1013.54,-171.15504 1014.29,-171.31504 1014.96,-171.62504 1015.63,-171.94504 1016.22,-172.39504 1016.71,-173.00504 1017.2,-173.60504 1017.58,-174.36504 1017.86,-175.26504 1018.13,-176.16504 1018.27,-177.20504 1018.27,-178.38504"
           id="path100"
           style="fill:#ffffff" />
        <path
           class="cls-32"
           d="M 1041.38,-167.29504 C 1040.77,-167.11504 1040.04,-166.96504 1039.18,-166.85504 1038.33,-166.74504 1037.54,-166.69504 1036.8,-166.69504 1034.93,-166.69504 1033.41,-166.99504 1032.22,-167.60504 1031.03,-168.20504 1030.19,-169.07504 1029.7,-170.21504 1029.35,-171.02504 1029.17,-172.13504 1029.17,-173.52504 V -185.05504 H 1025.01 V -189.53504 H 1029.17 V -195.75504 H 1034.61 V -189.53504 H 1041.04 V -185.05504 H 1034.61 V -174.23504 C 1034.61,-173.37504 1034.74,-172.74504 1035,-172.32504 1035.46,-171.61504 1036.37,-171.26504 1037.73,-171.26504 1038.36,-171.26504 1038.98,-171.31504 1039.6,-171.41504 1040.22,-171.51504 1040.81,-171.64504 1041.36,-171.79504 V -167.29504 Z"
           id="path101"
           style="fill:#ffffff" />
        <path
           class="cls-32"
           d="M 1045.16,-200.53504 H 1050.88 V -194.62504 H 1045.16 Z M 1045.3,-189.52504 H 1050.74 V -167.26504 H 1045.3 Z"
           id="path102"
           style="fill:#ffffff" />
        <path
           class="cls-32"
           d="M 1055.23,-177.95504 C 1055.23,-179.90504 1055.5,-181.63504 1056.03,-183.15504 1056.57,-184.67504 1057.3,-185.95504 1058.22,-186.99504 1059.15,-188.02504 1060.21,-188.79504 1061.4,-189.31504 1062.6,-189.82504 1063.84,-190.08504 1065.12,-190.08504 1065.72,-190.08504 1066.28,-190.03504 1066.82,-189.92504 1067.36,-189.81504 1067.86,-189.66504 1068.33,-189.48504 1068.81,-189.30504 1069.25,-189.09504 1069.66,-188.86504 1070.07,-188.63504 1070.45,-188.39504 1070.81,-188.15504 H 1070.86 C 1070.85,-188.45504 1070.84,-188.89504 1070.83,-189.45504 1070.83,-190.01504 1070.82,-190.62504 1070.82,-191.28504 V -200.54504 H 1076.26 V -173.89504 C 1076.26,-172.42504 1076.28,-171.16504 1076.31,-170.10504 1076.34,-169.04504 1076.37,-168.10504 1076.4,-167.27504 H 1071.48 L 1071.25,-169.63504 H 1071.16 C 1070.84,-169.25504 1070.45,-168.87504 1070,-168.51504 1069.55,-168.14504 1069.05,-167.82504 1068.51,-167.56504 1067.96,-167.29504 1067.37,-167.08504 1066.71,-166.93504 1066.06,-166.78504 1065.35,-166.70504 1064.59,-166.70504 1063.38,-166.70504 1062.22,-166.92504 1061.11,-167.34504 1060,-167.77504 1059.01,-168.43504 1058.12,-169.33504 1057.24,-170.22504 1056.53,-171.39504 1056.01,-172.84504 1055.48,-174.29504 1055.22,-175.99504 1055.22,-177.95504 M 1065.96,-171.03504 C 1066.5,-171.03504 1067.01,-171.10504 1067.49,-171.24504 1067.97,-171.38504 1068.43,-171.56504 1068.85,-171.79504 1069.28,-172.02504 1069.66,-172.27504 1069.99,-172.55504 1070.32,-172.82504 1070.6,-173.09504 1070.83,-173.35504 V -183.92504 C 1070.19,-184.44504 1069.47,-184.87504 1068.67,-185.22504 1067.87,-185.56504 1067.03,-185.74504 1066.14,-185.74504 1065.58,-185.74504 1064.98,-185.62504 1064.36,-185.40504 1063.74,-185.17504 1063.18,-184.78504 1062.66,-184.23504 1062.15,-183.68504 1061.72,-182.91504 1061.37,-181.94504 1061.03,-180.96504 1060.86,-179.71504 1060.86,-178.19504 1060.86,-175.96504 1061.29,-174.21504 1062.16,-172.96504 1063.03,-171.70504 1064.29,-171.07504 1065.96,-171.05504"
           id="path103"
           style="fill:#ffffff" />
        <path
           class="cls-32"
           d="M 1082.14,-200.53504 H 1087.86 V -194.62504 H 1082.14 Z M 1082.28,-189.52504 H 1087.72 V -167.26504 H 1082.28 Z"
           id="path104"
           style="fill:#ffffff" />
        <path
           class="cls-32"
           d="M 1104.82,-171.08504 C 1105.87,-171.08504 1106.98,-171.19504 1108.13,-171.40504 1109.28,-171.61504 1110.44,-171.92504 1111.62,-172.32504 V -167.98504 C 1110.92,-167.67504 1109.84,-167.38504 1108.38,-167.11504 1106.93,-166.83504 1105.42,-166.70504 1103.86,-166.70504 1102.3,-166.70504 1100.78,-166.90504 1099.37,-167.31504 1097.96,-167.71504 1096.72,-168.37504 1095.66,-169.27504 1094.6,-170.17504 1093.76,-171.35504 1093.14,-172.78504 1092.52,-174.22504 1092.21,-175.96504 1092.21,-178.02504 1092.21,-180.08504 1092.5,-181.81504 1093.08,-183.33504 1093.66,-184.84504 1094.44,-186.10504 1095.42,-187.10504 1096.4,-188.10504 1097.52,-188.84504 1098.79,-189.34504 1100.05,-189.84504 1101.36,-190.09504 1102.71,-190.09504 1104.06,-190.09504 1105.42,-189.87504 1106.6,-189.45504 1107.79,-189.02504 1108.81,-188.35504 1109.68,-187.43504 1110.55,-186.51504 1111.22,-185.33504 1111.7,-183.88504 1112.18,-182.43504 1112.42,-180.72504 1112.42,-178.75504 1112.41,-177.98504 1112.38,-177.33504 1112.35,-176.80504 H 1097.76 C 1097.84,-175.78504 1098.07,-174.90504 1098.45,-174.17504 1098.83,-173.44504 1099.33,-172.85504 1099.95,-172.40504 1100.57,-171.95504 1101.29,-171.62504 1102.12,-171.41504 1102.95,-171.20504 1103.84,-171.10504 1104.81,-171.10504 M 1102.64,-185.83504 C 1101.95,-185.83504 1101.34,-185.70504 1100.8,-185.45504 1100.26,-185.20504 1099.8,-184.85504 1099.41,-184.41504 1099.02,-183.97504 1098.71,-183.47504 1098.48,-182.89504 1098.25,-182.31504 1098.1,-181.69504 1098.02,-181.03504 H 1106.77 C 1106.77,-181.69504 1106.68,-182.31504 1106.51,-182.89504 1106.33,-183.47504 1106.07,-183.98504 1105.73,-184.41504 1105.39,-184.85504 1104.96,-185.19504 1104.45,-185.45504 1103.94,-185.70504 1103.34,-185.83504 1102.65,-185.83504"
           id="path105"
           style="fill:#ffffff" />
        <path
           class="cls-32"
           d="M 1121.54,-186.42504 H 1121.63 C 1121.95,-186.88504 1122.36,-187.33504 1122.85,-187.77504 1123.34,-188.21504 1123.9,-188.60504 1124.53,-188.94504 1125.16,-189.27504 1125.85,-189.55504 1126.61,-189.75504 1127.36,-189.96504 1128.17,-190.06504 1129.03,-190.06504 1129.84,-190.06504 1130.63,-189.97504 1131.39,-189.78504 1132.15,-189.60504 1132.84,-189.31504 1133.47,-188.92504 1134.1,-188.53504 1134.65,-188.03504 1135.13,-187.41504 1135.61,-186.79504 1135.99,-186.05504 1136.27,-185.19504 1136.42,-184.71504 1136.52,-184.20504 1136.58,-183.64504 1136.63,-183.08504 1136.66,-182.43504 1136.66,-181.70504 V -167.25504 H 1131.22 V -180.85504 C 1131.22,-181.45504 1131.2,-181.96504 1131.15,-182.39504 1131.1,-182.82504 1131.02,-183.19504 1130.9,-183.52504 1130.62,-184.23504 1130.2,-184.73504 1129.65,-185.04504 1129.09,-185.34504 1128.41,-185.50504 1127.61,-185.50504 1126.56,-185.50504 1125.54,-185.25504 1124.57,-184.75504 1123.6,-184.25504 1122.74,-183.53504 1121.99,-182.58504 V -167.26504 H 1116.55 V -189.52504 H 1121.05 L 1121.56,-186.42504 Z"
           id="path106"
           style="fill:#ffffff" />
      </g>
    </g>
  </g>
</svg>
