<svg id="uuid-0c512a2b-075d-40c3-a8df-fe1093264c2a" data-name="Textes" version="1.1" viewBox="0 0 1379 227.7" xmlns="http://www.w3.org/2000/svg">
  <path id="path1" d="m1379 171.6c-1.25-11.74-7.85-22.62-19.62-26.02-3.78-1.09-9.08 5.95-4.93 7.15 14.05 4.06 19.19 19.52 16.39 32.87-3.76 17.92-22.44 26.48-38.67 30.14-38.2 8.62-80.45 4.24-118.3-4.12-81.1-17.91-153.2-61.72-220.4-108.9-17.07-11.96-33.94-24.2-50.84-36.4-15.35-11.09-30.59-22.54-47.06-31.94-24.66-14.08-51.95-21.37-80.3-16.04-13.46 2.53-26.52 9.03-34.87 18.98-12.61-8.6-26.34-15.6-40.54-21.05-57.97-22.27-121-20.18-180-3.3-72.97 20.88-138.5 60.41-205.4 95.15-29.78 15.47-60.22 29.72-91.09 42.9-27.97 11.94-60.07 24.29-91.02 18.87-15.57-2.72-31.53-11.4-39.71-25.35-8.95-15.25-8.4-33.64-3.72-50.15 0.76-2.69 1.63-5.36 2.57-7.99 26.15-11.08 52.56-21.73 71.84-43.56 6.01-6.8 14.2-16.48 13.23-26.3-1.1-11.23-16.59-13.41-25.34-11.59-15.59 3.25-27.1 17.44-36.61 29.18-11.57 14.28-21.56 30.24-28.4 47.36-2.67 1.13-5.33 2.27-7.97 3.45-19.54 8.71-39.31 16.83-59.07 25.02-19.04 7.88-37.94 16.08-56.23 25.59-3.74 1.94-4.54 9.6 0.57 6.95 37.92-19.72 78.36-34.37 117.5-51.56 0.73-0.32 1.47-0.64 2.2-0.96-9.5 29.87-6.15 62.91 23.82 79.82 26.39 14.9 59.05 8.71 86.34-0.14 30.39-9.86 59.93-24.1 88.68-37.97 35.32-17.04 69.55-36.19 104.3-54.39 64.87-34 135.3-67.82 209.9-69.93 47.84-1.35 99.51 9.37 139.4 37.16-3.49 6.62-5.09 14.35-3.96 23.11 1.85 14.28 10.22 27.16 20.02 37.34 5.03 5.22 10.64 9.87 16.67 13.88 5.4 3.6 13.18 9.1 20.02 8.27 15.92-1.92 8.31-21.35 4.25-29.94-6.05-12.79-14.06-24.68-23.56-35.16-7.1-7.84-15.02-14.87-23.53-21.12 3.37-4.32 7.89-7.86 13.31-10.36 25.03-11.57 56.14-6.71 80.14 4.82 18.74 9 35.55 21.39 52.35 33.51 16.9 12.2 33.76 24.45 50.79 36.46 67.19 47.4 138.3 91.6 218.9 111.6 38.66 9.58 79.9 13.86 119.5 8.18 27.9-4 62.07-20.02 58.5-53.52zm-1221-132.1c10.2-13.03 25.61-33.21 44.63-26.02 11.77 4.45 2.88 16.75-2.35 23.1-8.23 10-18.31 18.05-29.5 24.5-11.54 6.65-23.87 11.73-36.18 16.81 6.01-13.76 14.21-26.64 23.4-38.38zm640.9 24.98c10.27 10.57 18.89 22.65 25.37 35.9 1.57 3.21 3.05 6.49 4.34 9.82 0.67 1.72 1.83 4.01 1.7 5.89-0.16 2.31 0.76 2.02-1.68 2.74-1.8 0.53-2.88-0.13-4.48-0.84-7.08-3.13-13.59-7.59-19.46-12.6-12.32-10.51-24.04-25.13-25.83-41.77-0.58-5.45 0.14-10.54 1.94-15.1 6.39 4.84 12.46 10.14 18.1 15.95z" style="fill:#ffffff;opacity:.22"/>
</svg>
