<svg id="uuid-d5095022-66fd-45b5-ae6a-6e1c04bf88b0" data-name="Visuels" version="1.1" viewBox="0 0 1440 291.5" xmlns="http://www.w3.org/2000/svg">
  <path id="path1" d="m1406 199.1c-27.31-20.45-55.61-40.43-86.61-58.93-15.56-9.29-31.56-18.26-48.38-26.53-21.7-10.66-44.83-20.17-69.67-27.3-12.84-3.64-25.85-7.11-38.76-10.66-13.48-3.71-27.17-7.11-41.17-9.88-84.97-16.83-176.3-16.64-261.7-0.97-43.1 7.92-84.55 19.78-122.7 35.2-20.92 8.45-40.42 18.11-59.17 28.39-1.8-26.93-10.4-54.25-31.22-77.6-17.76-19.91-44.69-36.34-77.55-44.64-33.49-8.46-70.37-7.81-104.1-0.38-43.91 9.66-81.14 29.81-113 51.44-34.49 23.4-63.87 49.75-95.91 74.56-14.1 10.92-28.64 21.6-43.42 32.12-41.34 29.4-84.93 57.6-131.9 83.05-25.02 13.55-51.64 27.05-80.01 38.38l-0.3 6.21c34.17-13.14 65.91-29.44 95.74-46.01 44.39-24.66 85.8-51.66 125.2-79.79 14.87-10.62 29.48-21.41 43.63-32.46 30.64-23.93 59.05-49.16 92.12-71.7 31.33-21.35 67.66-41.21 110.8-51 34.37-7.81 72.36-8.33 106.1 1.26 70.16 19.97 96.09 72.5 97.31 120.3-14.78 8.3-29.15 16.95-43.41 25.69-18.42 11.28-36.29 23.02-52.17 35.91-7.59 6.16-14.69 12.58-21.19 19.27-6.98 7.18-14.07 14.78-17.26 23.14-4.31 11.32 1.38 24.76 18.94 29.4 11.56 3.06 23.95 0.38 34.04-3.76 25.84-10.59 45.32-28.87 60.49-45.92 21.35-24 28.33-53.18 27.63-80.7 2.89-1.64 5.78-3.28 8.7-4.89 67.76-37.18 151.4-61.32 238.5-69.47 3.22-0.3 6.45-0.58 9.69-0.84 28.04-2.23 56.38-2.78 84.56-1.63 28.11 1.15 56.07 4.01 83.38 8.57 7.73 1.29 15.41 2.74 23.02 4.32 13.72 2.86 27.17 6.2 40.46 9.83 5.38 1.47 10.8 2.89 16.2 4.31 8.1 2.14 16.18 4.31 24.11 6.74 12.13 3.72 23.87 8 35.21 12.69 22.76 9.42 43.92 20.43 64.19 32.05 36.38 20.86 94.46 63.21 99.76 67.38 7.07 5.56 34.25 27.8 34.25 27.8l0.31-5.87-34.5-27.1zm-735.7-47.41c-2.88 25.05-13.39 48.68-34.37 69.61-8.97 8.95-18.99 17.55-30.45 25.18-9.65 6.43-21.53 13.44-35.37 15.34-5.43 0.75-11.19 0.52-16.08-1.34-11.29-4.3-12.78-14.02-10.01-21.61 3.01-8.25 10.24-15.82 17.11-22.89 6.85-7.05 14.47-13.76 22.56-20.2 15.31-12.19 32.37-23.35 49.93-34.11 12.35-7.56 24.81-15.12 37.52-22.46-0.11 4.21-0.38 8.38-0.85 12.46z" style="fill:#ffffff;opacity:.22"/>
</svg>
