<svg id="uuid-92d38c10-6890-441e-8cf2-cb24e1b4b9f6" data-name="Visuels" version="1.1" viewBox="0 0 1245 333.3" xmlns="http://www.w3.org/2000/svg">
  <path id="path1" d="m1244 0-0.64 0.86c-18.11 24.22-38.24 50.09-62.69 75.19-15.19 15.59-28.69 27.85-42.5 38.59-7.92 6.15-16.07 11.85-24.24 16.93-5.64 3.51-11.49 6.82-16.99 9.92l-2.08 1.17c-3.14 1.76-6.28 3.53-9.39 5.32-10.28 5.91-19.7 10.94-28.8 15.37-5.51 2.68-11.1 5.25-16.63 7.64-19.7 8.52-40.42 15.77-61.6 21.56-21.07 5.76-42.76 10.11-64.47 12.95-2.5 0.33-5.01 0.63-7.51 0.92-68.51 7.85-135.7 1.09-194.4-19.54-2.08-0.73-4.13-1.49-6.19-2.25l-1.09-0.4c-5.55-27.43-18.24-49.94-36.72-65.12-12.44-10.22-31.69-24.4-55.04-29.54-7.33-1.62-17.94-2.48-26.94 2.59-5.88 3.31-9.77 8.04-11.25 13.68-1.39 5.27-0.54 10.83 2.37 15.67 4 6.62 10.66 11.93 17.71 17.22 6.09 4.58 12.78 8.98 19.87 13.1 12.65 7.34 27.03 14.19 46.64 22.22 11.15 4.57 24.34 9.89 37.7 14.76 4.48 22.59 3.2 44.85-3.69 64.39-8.22 23.29-23.95 41.93-46.75 55.4-22.43 13.25-50.86 20.02-80.04 19.05-29.46-0.97-59.26-9-93.79-25.25-19.91-9.37-38.77-20.36-57.01-30.98-8.74-5.09-17.77-10.35-26.81-15.37-11.8-6.55-24.7-13.32-39.44-20.68-38.96-19.45-75.12-35.08-110.6-47.78-36.57-13.1-80.28-26.83-127.3-29.31-54.38-2.87-83.43 14.39-98.22 29.37-5.64 5.71-10.59 12.5-14.72 20.16-0.61 1.13-0.43 1.86-0.18 2.27 0.35 0.56 1.04 0.88 1.94 0.85 1.22-0.04 2.81-0.72 3.59-2.17 8.39-15.57 21.27-27.63 37.24-34.88 14.82-6.72 33.07-10.2 54.25-10.33h1.55c46.74 0 91.66 13.32 129.5 26.38 36.94 12.76 74.96 28.92 116.2 49.4 14.41 7.15 27.23 13.82 39.18 20.4 9.97 5.48 19.9 11.27 29.5 16.86 18.47 10.76 37.57 21.89 57.8 31.36 35.31 16.52 65.82 24.57 96 25.34 1.44 0.04 2.88 0.05 4.32 0.05 26.98 0 53.45-6.39 74.96-18.15 22.42-12.26 40.34-30.73 50.47-52.02 10.07-21.17 13.06-45.36 8.87-71.9 17.8 6.23 34.07 10.9 49.7 14.25 31.97 6.85 65.67 10.08 100.1 9.6 69.36-0.96 138.1-16.65 198.8-45.35 9.11-4.31 18.73-9.4 29.39-15.57 3.06-1.76 6.12-3.52 9.19-5.28 5.98-3.43 12.17-6.98 18.19-10.53 16.1-9.56 31.7-21.18 47.71-35.52 10.1-9.04 20.15-18.96 31.64-31.2 17.38-18.52 34.16-38.8 54.41-65.73l0.14-0.19-1.34-5.73zm-546.5 181.5c-10.94-4.15-21.8-8.56-31.94-12.71-18.59-7.62-32.31-14.09-44.47-20.99-7.92-4.49-14.79-8.94-20.99-13.6-5.95-4.47-13.35-10.02-17.29-16.74-3.29-5.61-4.4-14.14 3.28-19.74 3.78-2.75 8.45-3.58 11.69-3.79 0.82-0.05 1.64-0.08 2.46-0.08 9.77 0 19.15 3.65 27.14 7.3 9.33 4.26 18.46 9.68 27.91 16.56 18.74 13.64 31.99 31.85 39.4 54.13 1.01 3.04 1.96 6.29 2.81 9.68z" style="fill:#ffffff;opacity:.22"/>
</svg>
