<svg id="svg1" width="23.63mm" height="31.9mm" version="1.1" viewBox="0 0 23.63 31.9" xmlns="http://www.w3.org/2000/svg">
  <defs id="defs1">
    <clipPath id="clipPath229-1">
      <path id="path229-0" transform="translate(-1195,-538.6)" d="m0 5013h1366v-5013h-1366z"/>
    </clipPath>
    <clipPath id="clipPath231-3">
      <path id="path231-0" transform="translate(-1192,-451.3)" d="m0 5013h1366v-5013h-1366z"/>
    </clipPath>
    <clipPath id="clipPath233-4">
      <path id="path233-4" transform="translate(-1204,-475.9)" d="m0 5013h1366v-5013h-1366z"/>
    </clipPath>
    <clipPath id="clipPath235-4">
      <path id="path235-4" transform="translate(-1174,-484.2)" d="m0 5013h1366v-5013h-1366z"/>
    </clipPath>
  </defs>
  <g id="layer1" transform="translate(-121.9 -146.6)">
    <g id="g430" transform="matrix(.2648 0 0 .2648 -289.2 -1674)" style="stroke-width:.999">
      <path id="path228-8" transform="matrix(1.333,0,0,-1.333,1599,6877)" d="m0 0s-15.72-9.978-14.82-12.1c1.243-2.901 7.559 1.21 7.559 1.21l11.03 4.342 11.04-2.528s-7.488-2.563-9.264-4.695c-0.548-0.657-0.303-2.721 1.209-2.721s4.124 1.671 12.29 1.671c1.512 0 6.35 0.605 10.88 0.605 1.091 0 2.638 5.667 1.815 6.047-3.931 1.814-19.05 13.3-31.75 8.164" clip-path="url(#clipPath229-1)" style="fill-rule:evenodd;fill:#ffffff"/>
      <path id="path230-9" transform="matrix(1.333,0,0,-1.333,1595,6994)" d="m0 0s15.72 9.978 14.82 12.1c-1.243 2.901-7.559-1.21-7.559-1.21l-11.03-4.343-11.04 2.529s7.488 2.563 9.265 4.695c0.547 0.657 0.302 2.721-1.21 2.721s-4.124-1.671-12.29-1.671c-1.512 0-6.35-0.605-10.88-0.605-1.091 0-2.638-5.667-1.815-6.047 3.931-1.814 19.05-13.3 31.75-8.164" clip-path="url(#clipPath231-3)" style="fill-rule:evenodd;fill:#ffffff"/>
      <path id="path232-6" transform="matrix(1.333,0,0,-1.333,1612,6961)" d="m0 0c-7.604-5.1-14.67-3.826-14.67-3.826 1.614 0.581 4.281 2.491 5.107 4.247 0.476 1.011 0.636 0.667 2.107 2.656 1.472 1.989 1.413-0.075 2.826-0.149 1.413-0.075 3.239 0.729 3.239 0.729l3.413 2.47 1.234 2.852s4.887 0.767 4.561-0.108c-0.407-1.095-0.768-4.143-7.818-8.871m-30.56 8.284c-2.595 4.235-4.334 9.587-3.586 14.59 0.117 0.783 0.423-0.188 1.204-0.061l0.944-1.495c0.735 0.12 2.794 2.107 3.171 1.465l2.739-1.401c0.038-0.064 0.071-0.131 0.101-0.2l1.509-1.529c0.122-0.284-2.518-4.692-2.551-5l0.451-2.907c-0.012-0.12 0.949-4.669 0.961-4.789l0.679-2.508c0.033-0.344 1.528-0.77 1.37-1.077-1.762-3.424-6.055 3.385-6.992 4.915m30.66 32.08c-0.421-0.223-1.547-0.877-1.494-0.919 0.155-0.122 2.35-1.853 2.35-1.853 0.21-0.166 3.272-0.794 3.363-1.045l1.327-3.781c0.294-0.812-3.516-9e-3 -4.359-0.198l-2.15-0.484c-0.406-0.091-0.752-0.353-0.949-0.72l-0.741-1.375c-0.561-1.043 0.313-2.28 1.484-2.098 0.818 0.127 1.574-0.463 1.649-1.287l0.345-3.749c0.052-0.569-0.238-1.115-0.739-1.39l-1.356-0.743c-0.241-0.131-0.439-0.33-0.57-0.571l-2.379-4.359c-0.315-0.577-0.98-0.868-1.616-0.703-1.24 0.322-3.06 0.907-2.82 1.511 0.327 0.823-2.021 3.835-2.454 4.381-0.048 0.06-0.088 0.12-0.125 0.186l-2.466 4.366c-1.419 2.513-3.195 2.213-4.477 1.469-0.862-0.499-1.955-0.055-2.141 0.923l-0.349 1.835c-0.096 0.508 0.085 1.026 0.479 1.36 0.5 0.426 1.24 1.04 2.007 1.619 0.924 0.698 0.677 2.148-0.424 2.507l-1.606 0.522c-4.468 1.454 3.114 5.614 4.683 5.989 4.996 1.192 10.03 0.72 14.8-1.013-2.773 1.369-5.86 2.216-9.142 2.404-13.09 0.749-24.3-9.252-25.05-22.34-0.749-13.09 9.252-24.3 22.34-25.05 13.09-0.749 24.3 9.252 25.05 22.34 0.545 9.514-4.595 18.04-12.47 22.27" clip-path="url(#clipPath233-4)" style="fill-rule:evenodd;fill:#095590"/>
      <path id="path234-4" transform="matrix(1.333,0,0,-1.333,1571,6950)" d="m0 0c1.073-1.752 3.754-5.801 5.587-5.801 0.015 0 0.03 1e-3 0.046 1e-3 0.461 0.017 0.828 0.303 1.122 0.876-0.031 0.066-0.388 0.254-0.602 0.367-0.407 0.213-0.759 0.397-0.781 0.635l-0.677 2.486c-0.012 0.083-0.161 0.804-0.319 1.569-0.505 2.446-0.63 3.081-0.644 3.234l-0.453 2.925 2e-3 0.017c0.014 0.142 0.288 0.648 1.012 1.952 0.59 1.065 1.471 2.653 1.537 2.977l-1.498 1.531c-0.023 0.053-0.046 0.103-0.074 0.152l-2.738 1.401-0.02 0.034c-0.018 0.031-0.041 0.047-0.076 0.055-0.283 0.053-1.015-0.43-1.597-0.827-0.535-0.363-1.039-0.707-1.358-0.758l-0.09-0.015-0.945 1.498c-0.373-0.01-0.64 0.159-0.822 0.284-0.044 0.03-0.1 0.07-0.134 0.087-0.012-0.026-0.028-0.078-0.044-0.185-0.663-4.431 0.637-9.715 3.566-14.5m5.589-6.074c-1.901 0-4.458 3.707-5.821 5.931-2.962 4.835-4.276 10.18-3.605 14.68 0.027 0.177 0.071 0.348 0.205 0.407 0.136 0.059 0.263-0.032 0.398-0.125 0.179-0.126 0.403-0.276 0.715-0.229l0.089 0.015 0.939-1.489c0.275 0.09 0.726 0.397 1.164 0.695 0.723 0.492 1.408 0.953 1.81 0.868 0.095-0.022 0.173-0.073 0.228-0.147l2.742-1.404 0.02-0.034c0.038-0.063 0.07-0.126 0.099-0.192l1.52-1.552c0.08-0.186-0.212-0.788-1.561-3.22-0.433-0.782-0.922-1.664-0.977-1.838l0.45-2.9-2e-3 -0.018c9e-3 -0.125 0.389-1.966 0.642-3.186 0.228-1.105 0.314-1.527 0.318-1.576l0.677-2.484c0.024-0.12 0.425-0.33 0.64-0.444 0.464-0.242 0.863-0.451 0.719-0.732-0.339-0.658-0.795-1.002-1.356-1.024-0.017 0-0.035-1e-3 -0.053-1e-3m10.72-6.036c1.748-0.17 7.749-0.367 14.06 3.867 6.327 4.245 7.214 7.07 7.64 8.427 0.046 0.145 0.085 0.272 0.126 0.38 0.014 0.036 4e-3 0.047-3e-3 0.057-0.274 0.336-2.671 0.135-4.335-0.122l-1.219-2.816-3.444-2.492c-0.1-0.047-1.885-0.819-3.326-0.755-0.591 0.031-0.945 0.379-1.23 0.658-0.201 0.197-0.361 0.354-0.54 0.354-8e-3 0-0.016 0-0.025-1e-3 -0.227-0.018-0.526-0.281-0.914-0.806-0.727-0.984-1.145-1.411-1.423-1.693-0.291-0.297-0.437-0.447-0.669-0.939-0.777-1.654-3.092-3.381-4.701-4.119m1.448-0.341c0.07-4e-3 0.139-9e-3 0.209-0.013 0.457-0.026 0.912-0.039 1.365-0.039 12.4 0 22.83 9.714 23.54 22.25 0.521 9.097-4.319 17.77-12.33 22.11-0.379-0.204-1.024-0.582-1.281-0.757 0.503-0.397 2.221-1.754 2.221-1.754 0.088-0.056 0.736-0.222 1.256-0.357 1.706-0.437 2.087-0.57 2.151-0.748l1.328-3.782c0.053-0.148 7e-3 -0.254-0.041-0.315-0.248-0.325-1.179-0.264-2.676-0.128-0.714 0.066-1.453 0.133-1.741 0.067l-2.15-0.484c-0.366-0.083-0.68-0.32-0.859-0.651l-0.74-1.376c-0.239-0.443-0.209-0.953 0.082-1.364 0.291-0.412 0.765-0.616 1.261-0.535 0.441 0.066 0.862-0.044 1.206-0.313 0.346-0.269 0.559-0.659 0.599-1.095l0.345-3.749c0.057-0.624-0.26-1.221-0.808-1.522l-1.356-0.744c-0.218-0.119-0.397-0.298-0.518-0.517l-2.378-4.358c-0.344-0.633-1.073-0.952-1.77-0.77-1.698 0.442-2.671 0.887-2.89 1.321-0.063 0.124-0.07 0.252-0.022 0.372 0.217 0.546-1.066 2.526-2.435 4.246-0.052 0.066-0.095 0.131-0.136 0.204l-2.466 4.366c-0.576 1.019-1.255 1.639-2.02 1.848-0.69 0.189-1.454 0.044-2.27-0.43-0.46-0.266-1.014-0.296-1.487-0.082-0.45 0.206-0.763 0.606-0.857 1.098l-0.348 1.834c-0.105 0.554 0.096 1.125 0.524 1.49 0.735 0.624 1.412 1.17 2.013 1.623 0.392 0.296 0.578 0.762 0.496 1.247-0.081 0.487-0.411 0.87-0.881 1.022l-1.606 0.522c-1.01 0.329-1.51 0.826-1.484 1.478 0.078 1.915 4.916 4.472 6.179 4.773 3.985 0.949 8.081 0.885 12.22-0.187-2.093 0.741-4.28 1.18-6.533 1.309-6.294 0.363-12.35-1.751-17.05-5.946-4.705-4.195-7.494-9.971-7.854-16.26-0.695-12.12 7.929-22.66 19.64-24.62l0.34 0.121c1.54 0.556 4.2 2.413 5.03 4.178 0.252 0.535 0.429 0.716 0.722 1.014 0.287 0.294 0.681 0.697 1.398 1.665 0.45 0.608 0.793 0.891 1.112 0.915 0.304 0.041 0.54-0.196 0.777-0.429 0.265-0.26 0.565-0.555 1.054-0.58 1.35-0.07 3.157 0.71 3.175 0.718l3.359 2.433 1.25 2.886 0.073 0.011c0.694 0.11 4.183 0.625 4.662 0.036 0.075-0.091 0.092-0.206 0.048-0.324-0.038-0.104-0.076-0.226-0.121-0.366-0.435-1.387-1.341-4.274-7.749-8.572-5.098-3.419-10-3.982-12.68-3.982zm1.574-0.325c-0.458 0-0.918 0.013-1.38 0.04-13.14 0.753-23.22 12.06-22.47 25.2 0.365 6.365 3.187 12.21 7.946 16.45 4.759 4.244 10.89 6.375 17.25 6.015 3.226-0.184 6.32-0.998 9.195-2.417l-0.108-0.25c-4.982 1.811-9.938 2.152-14.72 1.007-1.146-0.272-5.9-2.796-5.971-4.518-0.02-0.515 0.416-0.921 1.297-1.207l1.606-0.522c0.568-0.186 0.966-0.648 1.065-1.236 0.098-0.588-0.126-1.153-0.601-1.51-0.597-0.45-1.27-0.993-2-1.614-0.354-0.301-0.52-0.773-0.433-1.231l0.348-1.834c0.077-0.404 0.333-0.732 0.703-0.901 0.389-0.179 0.852-0.152 1.237 0.07 0.88 0.509 1.712 0.664 2.479 0.457 0.836-0.228 1.571-0.893 2.183-1.977l2.467-4.366c0.034-0.06 0.071-0.114 0.113-0.168 0.668-0.839 2.82-3.648 2.474-4.516-0.019-0.049-0.016-0.094 0.012-0.148 0.175-0.347 1.165-0.778 2.715-1.181 0.577-0.146 1.178 0.113 1.463 0.636l2.379 4.359c0.145 0.265 0.361 0.481 0.625 0.625l1.355 0.743c0.453 0.249 0.716 0.744 0.669 1.259l-0.345 3.748c-0.034 0.362-0.209 0.684-0.495 0.906-0.286 0.223-0.642 0.314-0.997 0.259-0.592-0.095-1.178 0.157-1.525 0.646-0.347 0.49-0.385 1.124-0.101 1.652l0.74 1.376c0.218 0.4 0.597 0.687 1.041 0.788l2.15 0.483c0.333 0.073 1.025 0.011 1.826-0.062 0.899-0.082 2.261-0.205 2.435 0.023 4e-3 6e-3 0.013 0.018-1e-3 0.057l-1.328 3.783c-0.115 0.1-1.271 0.399-1.962 0.575-0.905 0.234-1.257 0.328-1.356 0.408 0 0-2.195 1.732-2.35 1.854l-0.057 0.046 5e-3 0.076c0.017 0.193 1.308 0.886 1.566 1.023l0.064 0.034 0.065-0.034c8.146-4.38 13.07-13.17 12.54-22.4-0.726-12.68-11.28-22.51-23.82-22.51" clip-path="url(#clipPath235-4)" style="fill:#095590"/>
    </g>
  </g>
</svg>
