<svg id="svg1" width="32.08mm" height="31.61mm" version="1.1" viewBox="0 0 32.08 31.61" xmlns="http://www.w3.org/2000/svg">
  <defs id="defs1">
    <clipPath id="clipPath223-1">
      <path id="path223-5" transform="translate(-515.1,-507.5)" d="m0 5013h1366v-5013h-1366z"/>
    </clipPath>
    <clipPath id="clipPath225-9">
      <path id="path225-8" transform="translate(-512.9,-510.6)" d="m0 5013h1366v-5013h-1366z"/>
    </clipPath>
    <clipPath id="clipPath227-4">
      <path id="path227-8" transform="translate(-544.6,-490.7)" d="m0 5013h1366v-5013h-1366z"/>
    </clipPath>
  </defs>
  <g id="layer1" transform="translate(-119.3 -89.92)">
    <g id="g428" transform="matrix(.2955 0 0 .2955 -65.25 -1946)" style="stroke-width:.8953">
      <path id="path222-8" transform="matrix(1.333,0,0,-1.333,693,6919)" d="m0 0s-9.62 6.649-24.9-1.023c-16.82-8.445-26.37 3.069-26.37 3.069l-2e-3 -47.62s45.61 9.775 51.27 45.58" clip-path="url(#clipPath223-1)" style="fill-rule:evenodd;fill:#ffffff"/>
      <path id="path224-3" transform="matrix(1.333,0,0,-1.333,690.1,6915)" d="m0 0c5.015 0 9.08 4.24 9.08 9.471s-4.065 9.471-9.08 9.471-9.08-4.24-9.08-9.471 4.065-9.471 9.08-9.471" clip-path="url(#clipPath225-9)" style="fill:#095590"/>
      <path id="path226-1" transform="matrix(1.333,0,0,-1.333,732.3,6941)" d="m0 0c-13.87 12.61-19.15 18.33-31.25 18.43v0.01c-0.06 0-0.116-5e-3 -0.177-5e-3 -0.06 0-0.116 5e-3 -0.177 5e-3v-0.01c-12.12-0.101-18.72-5.313-31.9-18.76-0.592-0.603-0.721-1.52-0.329-2.268 1.506-2.875 4.781-8.479 16.22-15.44 0 0 2.899-1.387 3.708-0.512s1.169 2.32-0.128 4.347c-1.297 2.028-7.278 8.692-9.748 10.88-0.484 0.429-0.381 1.207 0.197 1.497l9.274 4.636c0.355 0.178 0.774-0.072 0.784-0.469 0.059-2.367 0.421-10.36 2.241-17.54 0 0-8.793-16.86-11.9-26.56l13.26 0.129s5.463 10.21 7.773 13.09c0.379 0.472 1.087 0.476 1.472 8e-3 2.353-2.86 8.638-13.1 8.638-13.1l12.52-0.179c-2.079 6.887-12.49 27.52-12.49 27.52 1.868 7.373 2.822 14.55 3.09 16.75 0.04 0.333 0.4 0.519 0.698 0.365l8.337-4.311c0.866-0.448 1.018-1.61 0.311-2.281-2.439-2.313-7.202-8.638-9.28-11.26-0.546-0.689-1.099-2.448-0.332-3.301 0.767-0.852 1.449-1.534 3.031-0.648 0.958 0.536 1.998 1.16 1.998 1.16 10.28 7.579 12.26 11.29 14.41 13.81 0.595 0.7 0.682 3.154-0.256 4.006" clip-path="url(#clipPath227-4)" style="fill:#095590"/>
    </g>
  </g>
</svg>
