<svg id="svg1" width="31.87mm" height="31.88mm" version="1.1" viewBox="0 0 31.87 31.88" xmlns="http://www.w3.org/2000/svg">
  <defs id="defs1">
    <clipPath id="clipPath237-7">
      <path id="path237-6" transform="translate(-851.3,-517.1)" d="m0 5013h1366v-5013h-1366z"/>
    </clipPath>
    <clipPath id="clipPath239-3">
      <path id="path239-1" transform="translate(-852.3,-517.1)" d="m0 5013h1366v-5013h-1366z"/>
    </clipPath>
    <clipPath id="clipPath241-7">
      <path id="path241-5" transform="translate(-851.3,-484.6)" d="m0 5013h1366v-5013h-1366z"/>
    </clipPath>
    <clipPath id="clipPath243-9">
      <path id="path243-6" transform="translate(-871.9,-491.7)" d="m0 5013h1366v-5013h-1366z"/>
    </clipPath>
    <clipPath id="clipPath245-2">
      <path id="path245-1" transform="translate(-859.7,-523.8)" d="m0 5013h1366v-5013h-1366z"/>
    </clipPath>
    <clipPath id="clipPath247-7">
      <path id="path247-8" transform="translate(-859.1,-464.9)" d="m0 5013h1366v-5013h-1366z"/>
    </clipPath>
    <clipPath id="clipPath249-5">
      <path id="path249-7" transform="translate(-887.6,-493.6)" d="m0 5013h1366v-5013h-1366z"/>
    </clipPath>
    <clipPath id="clipPath251-4">
      <path id="path251-1" transform="translate(-828.5,-494.2)" d="m0 5013h1366v-5013h-1366z"/>
    </clipPath>
  </defs>
  <g id="layer1" transform="translate(-138.8 -115.7)">
    <g id="g429" transform="matrix(.274 0 0 .274 -160.5 -1769)" style="stroke-width:.9657">
      <path id="path236-3" transform="matrix(1.333,0,0,-1.333,1141,6906)" d="m0 0c-1.233-0.065-13.24-1.215-13.63-20.98-0.368-18.46 7.774-23.12 12.71-22.86l0.033 11.31s-3.565 0.123-4.219 2.291c-0.49 1.625-0.026 17.13 0.573 18.03 1.14 1.71 4.539 1.077 4.539 1.077z" clip-path="url(#clipPath237-7)" style="fill-rule:evenodd;fill:#095590"/>
      <path id="path238-3" transform="matrix(1.333,0,0,-1.333,1143,6906)" d="m0 0 0.206-11.33 0.844 0.239c0.838 0.238 1.42 1.028 1.42 1.93v7.134c0 1.023-0.755 1.875-1.737 1.96z" clip-path="url(#clipPath239-3)" style="fill-rule:evenodd;fill:#095590"/>
      <path id="path240-3" transform="matrix(1.333,0,0,-1.333,1141,6949)" d="m0 0 0.206-11.21 0.968 0.271c0.765 0.214 1.296 0.928 1.296 1.743v7.148c0 1.037-0.774 1.901-1.78 1.987z" clip-path="url(#clipPath241-7)" style="fill-rule:evenodd;fill:#095590"/>
      <path id="path242-8" transform="matrix(1.333,0,0,-1.333,1169,6940)" d="m0 0c-0.196-0.606-0.529-1.184-0.998-1.735-0.469-0.55-1.106-0.825-1.913-0.825-0.435 0-0.844 0.135-1.225 0.405-0.382 0.269-0.693 0.769-0.933 1.498s-0.359 1.79-0.359 3.183c0 0.987 0.098 1.97 0.294 2.946s0.523 1.796 0.981 2.458 1.079 0.994 1.864 0.994c0.654 0 1.183-0.292 1.586-0.876s0.659-1.246 0.768-1.987zm9.548 10.62c-1.003 1.83-2.458 3.261-4.365 4.294-1.908 1.032-4.191 1.549-6.851 1.549-2.049 0-3.918-0.332-5.607-0.993-1.691-0.663-3.146-1.6-4.366-2.813-1.222-1.212-2.164-2.654-2.829-4.327-0.665-1.672-0.997-3.53-0.997-5.573 0-2.851 0.545-5.292 1.635-7.324 1.089-2.032 2.67-3.592 4.741-4.681s4.578-1.633 7.521-1.633c1.417 0 2.796 0.185 4.137 0.556 1.341 0.37 2.741 1.004 4.202 1.902l-0.556 1.246c-1.374-0.674-2.671-1.128-3.891-1.364-1.222-0.235-2.442-0.353-3.663-0.353-2.376 0-4.409 0.466-6.099 1.397-1.689 0.932-2.986 2.279-3.891 4.041s-1.357 3.912-1.357 6.449c0 2.492 0.463 4.602 1.391 6.331 0.925 1.728 2.211 3.047 3.857 3.956 1.647 0.91 3.56 1.364 5.739 1.364 2.028 0 3.804-0.415 5.33-1.245 1.527-0.831 2.715-2.016 3.564-3.553 0.851-1.538 1.276-3.374 1.276-5.506 0-2.312-0.289-4.052-0.866-5.22-0.579-1.167-1.467-1.751-2.665-1.751-0.481 0-0.791 0.18-0.933 0.539-0.141 0.359-0.212 0.775-0.212 1.246l0.13 11.01h-1.896l-1.079-1.448h-0.262c-0.348 0.448-0.785 0.836-1.307 1.162-0.523 0.325-1.189 0.488-1.995 0.488-1.156 0-2.153-0.219-2.992-0.657s-1.537-1.044-2.093-1.819c-0.556-0.774-0.97-1.672-1.242-2.693-0.274-1.022-0.409-2.105-0.409-3.25 0-1.774 0.256-3.171 0.768-4.192 0.512-1.022 1.161-1.74 1.946-2.156 0.784-0.415 1.591-0.623 2.42-0.623 1.067 0 1.995 0.292 2.779 0.876 0.785 0.583 1.406 1.335 1.864 2.256h0.196c0.131-1.1 0.446-1.886 0.948-2.357 0.502-0.472 1.385-0.708 2.649-0.708 1.373 0 2.572 0.332 3.597 0.994s1.819 1.678 2.387 3.048c0.567 1.369 0.85 3.12 0.85 5.253 0 2.357-0.502 4.45-1.504 6.28" clip-path="url(#clipPath243-9)" style="fill:#095590"/>
      <path id="path244-6" transform="matrix(1.333,0,0,-1.333,1152,6897)" d="m0 0 18.8 13.69c0.136 0.099 0.066 0.314-0.102 0.314h-38c-0.168 0-0.238-0.215-0.102-0.314l18.8-13.69c0.177-0.129 0.416-0.129 0.593 0" clip-path="url(#clipPath245-2)" style="fill-rule:evenodd;fill:#ffffff"/>
      <path id="path246-0" transform="matrix(1.333,0,0,-1.333,1152,6976)" d="m0 0-18.8-13.69c-0.136-0.098-0.066-0.313 0.102-0.313h38c0.168 0 0.238 0.215 0.102 0.313l-18.8 13.69c-0.177 0.129-0.416 0.129-0.593 0" clip-path="url(#clipPath247-7)" style="fill-rule:evenodd;fill:#ffffff"/>
      <path id="path248-4" transform="matrix(1.333,0,0,-1.333,1190,6937)" d="m0 0 13.69-18.8c0.099-0.136 0.313-0.066 0.313 0.102v38c0 0.168-0.214 0.238-0.313 0.102l-13.69-18.8c-0.129-0.176-0.129-0.415 0-0.592" clip-path="url(#clipPath249-5)" style="fill-rule:evenodd;fill:#ffffff"/>
      <path id="path250-8" transform="matrix(1.333,0,0,-1.333,1111,6936)" d="m0 0-13.69 18.8c-0.099 0.136-0.313 0.066-0.313-0.102v-38c0-0.169 0.214-0.239 0.313-0.103l13.69 18.8c0.128 0.176 0.128 0.415 0 0.592" clip-path="url(#clipPath251-4)" style="fill-rule:evenodd;fill:#ffffff"/>
    </g>
  </g>
</svg>
