<?xml version="1.0" encoding="UTF-8"?>
<!-- Created with Inkscape (http://www.inkscape.org/) -->
<svg width="36.434mm" height="7.386mm" version="1.1" viewBox="0 0 36.434 7.386" xmlns="http://www.w3.org/2000/svg">
 <defs>
  <clipPath id="SVGID_90_">
   <rect y="-.004" width="1366" height="4771.9"/>
  </clipPath>
 </defs>
 <g transform="translate(-4.8472e-7 -9.9122)">
  <g transform="matrix(.26458 0 0 .26458 -26.844 -131.93)">
   <g fill="#3bb9cd">
    <path transform="translate(32.537 458.69)" d="m78.924 79.972c-7.384 0-10.003 5.227-10.003 9.705 0 3.179 0.926 5.631 2.753 7.288 1.624 1.473 3.934 2.252 6.679 2.252 2.836 0 5.125-0.703 6.805-2.089l-1.889-3.96c-1.111 0.83-2.444 1.234-4.074 1.234-2.934 0-4.616-1.802-4.616-4.943 0-2.994 1.797-4.78 4.807-4.78 2.093 0 3.214 0.838 3.885 1.343l2.047-4.039-0.081-0.059c-0.947-0.682-2.708-1.952-6.313-1.952" clip-path="url(#SVGID_90_)"/>
    <path transform="translate(32.537 458.69)" d="m95.121 79.973c-5.952 0-9.65 3.687-9.65 9.621 0 6.027 3.597 9.624 9.623 9.624 5.952 0 9.649-3.688 9.649-9.624 0-6.024-3.597-9.621-9.622-9.621m0 14.429c-2.5 0-3.992-1.817-3.992-4.861 0-3.045 1.492-4.863 3.992-4.863 2.483 0 3.965 1.818 3.965 4.863-1e-3 3.044-1.482 4.861-3.965 4.861" clip-path="url(#SVGID_90_)"/>
    <path transform="translate(32.537 458.69)" d="m114.17 80.299h-7.231v18.592h5.548v-5.027h1.601c5.379 0 8.59-2.581 8.59-6.905 0-4.42-2.863-6.66-8.508-6.66m-0.108 9.32h-1.574v-4.778h1.629c1.891 0 2.932 0.83 2.932 2.335-1e-3 1.553-1.089 2.443-2.987 2.443" clip-path="url(#SVGID_90_)"/>
    <path transform="translate(32.537 458.69)" d="m131.99 93.337 2.722 5.553h6.471l-3.939-6.717 0.072-0.04c2.035-1.1 3.111-2.974 3.111-5.419 0-4.198-3.027-6.417-8.753-6.417h-7.122v18.593h5.548v-5.597h1.868zm-1.89-4.017v-4.425h1.682c2.029 0 3.014 0.711 3.014 2.173 0 1.027-0.531 2.252-3.067 2.252z" clip-path="url(#SVGID_90_)"/>
   </g>
   <path transform="translate(32.537 458.69)" d="m126.7 104.96c3.787 0.838 7.716 0.169 11.295-1.209 2.786-1.074 5.43-2.525 7.863-4.254 0.513-0.365 1.337-1.022 1.337-1.022-0.445-0.18-0.93-0.443-1.501-0.807 0 0-0.235 0.173-0.397 0.291-0.942 0.682-1.918 1.317-2.92 1.908-2.845 1.676-5.93 3.019-9.192 3.614-1.999 0.362-4.076 0.392-6.064-0.048-0.993-0.219-1.417 1.308-0.421 1.527" clip-path="url(#SVGID_90_)" fill="#00568d"/>
   <path transform="translate(32.537 458.69)" d="m151.68 80.056c-5.952 0-9.65 3.687-9.65 9.621 0 6.027 3.597 9.623 9.623 9.623 5.952 0 9.649-3.687 9.649-9.623 0-6.024-3.597-9.621-9.622-9.621m0 14.428c-2.5 0-3.992-1.817-3.992-4.861 0-3.045 1.492-4.863 3.992-4.863 2.483 0 3.965 1.818 3.965 4.863 0 3.044-1.482 4.861-3.965 4.861" clip-path="url(#SVGID_90_)" fill="#3bb9cd"/>
   <g fill="#00568d">
    <path transform="translate(32.537 458.69)" d="m187.94 88.256c0.016 0.05-0.01-0.187 0 0" clip-path="url(#SVGID_90_)"/>
    <path transform="translate(32.537 458.69)" d="m187.89 88.065c9e-3 0.018 0.019 0.034 0.025 0.051-0.023-0.055-0.027-0.063-0.025-0.051" clip-path="url(#SVGID_90_)"/>
    <path transform="translate(32.537 458.69)" d="m187.63 87.691c0.093 0.098 0.11 0.114 0.156 0.186 0.065 5e-3 0.131 6e-3 0.193 0.018-0.116-0.067-0.233-0.135-0.349-0.204" clip-path="url(#SVGID_90_)"/>
    <path transform="translate(32.537 458.69)" d="m187.95 88.463c-2e-3 0.017-9e-3 0.032-0.012 0.047-2e-3 0.034-1e-3 0.042 0.012-0.047" clip-path="url(#SVGID_90_)"/>
    <path transform="translate(32.537 458.69)" d="m168.73 82.616c0.055 0.04 0.043 0.026 0 0" clip-path="url(#SVGID_90_)"/>
    <path transform="translate(32.537 458.69)" d="m184.57 92.208c-1e-3 0.01 0 4e-3 2e-3 -7e-3 0-0.01 0-0.01-2e-3 7e-3" clip-path="url(#SVGID_90_)"/>
    <path transform="translate(32.537 458.69)" d="m184.54 93.072c0.01 0.073 9e-3 0.046 5e-3 -3e-3 -8e-3 -0.043-0.013-0.057-5e-3 3e-3" clip-path="url(#SVGID_90_)"/>
    <path transform="translate(32.537 458.69)" d="m201.78 78.601c-0.933 1.957-1.866 3.916-2.722 5.908-0.315 0.732-0.616 1.471-0.9 2.217 0.952-1.871 1.825-3.786 2.642-5.706 0.368-0.863 0.722-1.732 1.06-2.608 0.32-0.831-1.062-1.418-1.447-0.61-1.255 2.63-2.522 5.271-3.585 7.988 1.283-2.547 2.478-5.138 3.505-7.799 0.482 0.204 0.965 0.407 1.447 0.61" clip-path="url(#SVGID_90_)"/>
    <path transform="translate(32.537 458.69)" d="m177.01 96.768c-0.014-1e-3 -0.027 0-0.042-2e-3 0.084 0.011 0.074 9e-3 0.042 2e-3" clip-path="url(#SVGID_90_)"/>
    <path transform="translate(32.537 458.69)" d="m175.9 86.265c0 0.011-2e-3 0.023-2e-3 0.035 6e-3 1e-3 0.013 4e-3 0.019 5e-3 -9e-3 -8e-3 -0.017-0.018-0.017-0.04" clip-path="url(#SVGID_90_)"/>
    <path transform="translate(32.537 458.69)" d="m176.75 96.697c-0.155-0.051 0.049 0.033 0 0" clip-path="url(#SVGID_90_)"/>
    <path transform="translate(32.537 458.69)" d="m169.09 82.982c0.056 0.08-0.027-0.106 0 0" clip-path="url(#SVGID_90_)"/>
    <path transform="translate(32.537 458.69)" d="m168.94 82.748c4e-3 0.01 0.012 0.02 0.017 0.03l2e-3 1e-3c0.121 0.105-0.014-0.02-0.019-0.031" clip-path="url(#SVGID_90_)"/>
    <path transform="translate(32.537 458.69)" d="m176.6 96.614c0.037 0.029 0.026 0.018 3e-3 -4e-3 -0.027-0.017-0.04-0.024-3e-3 4e-3" clip-path="url(#SVGID_90_)"/>
    <path transform="translate(32.537 458.69)" d="m166.35 83.016c-0.058 0.024-0.032 0.013 8e-3 -2e-3 0.027-0.012 0.038-0.018-8e-3 2e-3" clip-path="url(#SVGID_90_)"/>
    <path transform="translate(32.537 458.69)" d="m168.87 82.686c0.09 0.037-0.096-0.111 0 0" clip-path="url(#SVGID_90_)"/>
    <path transform="translate(32.537 458.69)" d="m167.89 82.546c0.01 0 0.02-1e-3 0.03-2e-3 3e-3 -1e-3 7e-3 -2e-3 0.012-3e-3 0.133-0.03-0.179 0.01-0.042 5e-3" clip-path="url(#SVGID_90_)"/>
    <path transform="translate(32.537 458.69)" d="m184.54 93.073c-7e-3 -0.06-3e-3 -0.046 7e-3 -3e-3 3e-3 0.049 3e-3 0.075-7e-3 3e-3m0.036-0.865c3e-3 -0.018 3e-3 -0.017 3e-3 -7e-3 7e-3 -0.044 0.036-0.222 0.047-0.275 0.207-1.105 0.54-2.025 1.171-2.931 0.231-0.333 0.59-0.695 0.975-0.909 0.288-0.16 0.661-0.233 1.013-0.208-0.046-0.072-0.062-0.088-0.155-0.186 0.116 0.068 0.233 0.136 0.349 0.204-0.062-0.012-0.128-0.014-0.194-0.018 0.017 0.026 0.038 0.059 0.066 0.105 0.015 0.026 0.027 0.055 0.042 0.083-4e-3 -0.012 2e-3 -5e-3 0.025 0.05-7e-3 -0.016-0.018-0.033-0.025-0.05 4e-3 0.023 0.036 0.117 0.038 0.129 8e-3 0.036 0.012 0.053 0.015 0.062-0.011-0.188 0.017 0.049 0 0v1e-3c2e-3 0.047 1e-3 0.091 3e-3 0.137 0 0.016-7e-3 0.08-0.01 0.116 3e-3 -0.015 8e-3 -0.031 0.012-0.047-0.016 0.088-0.016 0.081-0.012 0.047-0.017 0.08-0.037 0.157-0.058 0.235-0.117 0.419-0.554 0.977-0.934 1.389-0.729 0.792-1.555 1.483-2.38 2.172 5e-3 -0.046 9e-3 -0.09 0.012-0.106-3e-3 0.012-4e-3 0.017-3e-3 7e-3m-15.423-2.583c0.714-1.502 1.347-3.067 1.581-4.695 0.166-1.147 0.16-2.605-0.814-3.424-0.742-0.624-1.72-0.636-2.626-0.451-1.073 0.218-2.1 0.721-3.057 1.238-1.203 0.652-2.349 1.408-3.467 2.197-0.06 0.043-0.121 0.087-0.18 0.131-1.693 1.383-3.408 2.741-5.179 4.023-0.553 0.46-1.101 0.923-1.645 1.391-1.369 1.175-4.185 3.77-4.267 3.84 0.473 0.328 1.018 0.523 1.665 0.585 0.927-0.78 1.814-1.647 2.723-2.44 0.563-0.493 1.131-0.979 1.702-1.463 0.429-0.363 0.857-0.724 1.289-1.081 1.145-0.946 2.226-1.805 3.347-2.642 0.216-0.16 0.433-0.319 0.651-0.478 0.909-0.662 1.836-1.303 2.792-1.897 0.532-0.33 1.072-0.646 1.626-0.935 0.256-0.135 0.514-0.263 0.777-0.383 0.054-0.025 0.108-0.049 0.162-0.073 0.016-7e-3 0.086-0.038 0.124-0.054-0.039 0.015-0.064 0.026-7e-3 2e-3 0.046-0.019 0.035-0.014 7e-3 -2e-3 0.031-0.013 0.069-0.029 0.08-0.033 0.069-0.027 0.137-0.055 0.206-0.08 0.42-0.158 0.842-0.256 1.277-0.356-9e-3 1e-3 -0.019 2e-3 -0.028 2e-3 -0.136 3e-3 0.176-0.036 0.042-5e-3 -5e-3 1e-3 -9e-3 2e-3 -0.014 3e-3 0.039-3e-3 0.077-8e-3 0.115-0.011 0.091-7e-3 0.183-0.01 0.275-8e-3 0.08 2e-3 0.159 0.016 0.239 0.017-0.24-2e-3 -0.052-8e-3 0.064 0.023 0.046 0.013 0.087 0.035 0.117 0.051-0.014-0.01-0.033-0.024-0.057-0.042 0.051 0.039 0.138 0.082 0.197 0.109 3e-3 1e-3 4e-3 1e-3 7e-3 2e-3 -0.096-0.111 0.089 0.037 0 0 7e-3 7e-3 0.01 0.013 0.02 0.023 0.021 0.023 0.044 0.048 0.067 0.069-6e-3 -0.01-0.012-0.02-0.018-0.029 6e-3 0.01 0.14 0.135 0.02 0.03-1e-3 0-1e-3 -1e-3 -2e-3 -1e-3 0.03 0.055 0.071 0.109 0.103 0.163 0.012 0.019 0.019 0.032 0.026 0.041-0.027-0.105 0.056 0.081 0 0 3e-3 0.014 6e-3 0.024 0.013 0.045 0.061 0.197 0.114 0.436 0.122 0.569 0.063 0.869-0.142 1.734-0.402 2.56-0.466 0.948-0.851 1.936-1.178 2.941-0.639 1.334-1.294 2.663-2.074 3.921-0.431 0.88-0.889 1.748-1.421 2.571-0.334 0.717-0.632 1.443-0.815 2.211-0.209 0.873 0.967 1.381 1.447 0.61 2.188-3.517 4.573-7.081 7.637-9.905 0.595-0.547 1.22-1.061 1.904-1.496 0.324-0.205 1.184-0.811 1.576-0.708 0-0.012 2e-3 -0.024 2e-3 -0.035 0 0.021 8e-3 0.031 0.018 0.039 0.023 8e-3 0.046 0.019 0.064 0.033-0.019-0.015-0.047-0.017-0.064-0.033-7e-3 -1e-3 -0.013-3e-3 -0.02-4e-3 -1e-3 0.183-0.028 0.37-0.056 0.551-0.08 0.516-0.202 1.025-0.332 1.53-0.192 0.743-0.421 1.478-0.572 2.231-0.253 1.269-0.477 2.564-0.48 3.862-2e-3 1.274 0.215 2.861 1.434 3.56 1.222 0.702 2.788 0.176 3.972-0.34 1.192-0.519 2.32-1.221 3.327-2.041 0.129-0.105 0.251-0.217 0.371-0.331 0.465 1.051 1.207 1.931 2.411 2.255 1.406 0.377 2.925 0.029 4.185-0.636 1.87-0.986 3.353-2.628 4.592-4.394-0.085 0.428-0.147 0.859-0.157 1.294-0.04 1.745 0.879 3.675 2.799 3.845 1.733 0.153 3.386-1.042 4.743-1.966 0.353-0.24 0.511-0.696 0.285-1.083-0.205-0.35-0.729-0.526-1.084-0.284-1.022 0.695-2.21 1.605-3.451 1.749-0.568 0.066-0.994-0.097-1.327-0.618-0.376-0.589-0.425-1.319-0.362-1.998 0.074-0.768 0.314-1.539 0.512-2.282 0.206-0.781 0.434-1.554 0.685-2.321 0.236-0.726 0.493-1.445 0.764-2.158 0.055-0.144 0.113-0.287 0.17-0.43 0.558-0.063 1.115-0.125 1.675-0.176 2.048-0.187 4.023-0.693 6.044-1.047 0.421-0.074 0.659-0.59 0.554-0.974-0.123-0.445-0.552-0.627-0.975-0.553-1.926 0.337-3.807 0.823-5.758 1.004-0.289 0.026-0.575 0.056-0.863 0.087 0.017-0.042 0.035-0.086 0.053-0.128 0.857-1.993 1.79-3.95 2.723-5.907-0.483-0.203-0.965-0.407-1.447-0.61-0.899 2.328-1.932 4.601-3.033 6.84-0.664 0.08-1.328 0.164-1.993 0.246-0.424 0.052-0.792 0.327-0.792 0.792 0 0.387 0.366 0.844 0.792 0.791 0.386-0.048 0.771-0.096 1.157-0.143-1.131 2.21-2.362 4.423-3.962 6.333-0.771 0.922-1.632 1.8-2.649 2.439-0.91 0.572-1.849 0.902-2.895 0.848-1.211-0.062-1.808-0.864-2.142-1.947-2e-3 -8e-3 -4e-3 -0.016-6e-3 -0.023 0.402-0.347 0.808-0.688 1.214-1.03 1.089-0.922 2.268-1.89 3.002-3.136 0.313-0.532 0.54-1.154 0.497-1.779-0.046-0.641-0.438-1.657-1.127-1.854-1.262-0.36-2.623 0.258-3.465 1.186-0.856 0.942-1.398 2.164-1.711 3.387-0.235 0.915-0.319 1.779-0.17 2.682-0.282 0.273-0.558 0.556-0.857 0.81-0.229 0.194-0.218 0.182-0.489 0.378-0.289 0.208-0.587 0.405-0.888 0.591-0.582 0.361-1.222 0.712-1.836 0.958-0.611 0.247-1.226 0.431-1.781 0.42-0.063-2e-3 -0.126-6e-3 -0.188-0.012 0.031 6e-3 0.042 8e-3 -0.042-4e-3 0.014 3e-3 0.028 3e-3 0.042 4e-3 -0.027-6e-3 -0.068-0.014-0.085-0.018-0.057-0.018-0.114-0.031-0.17-0.049-6e-3 -2e-3 -7e-3 -2e-3 -0.011-5e-3 0.049 0.033-0.156-0.051 0 0-9e-3 -5e-3 -0.024-0.014-0.054-0.029 2e-3 1e-3 -0.056-0.037-0.089-0.058 0.022 0.022 0.033 0.034-4e-3 4e-3 -0.037-0.028-0.023-0.021 4e-3 -4e-3 -0.032-0.029-0.088-0.078-0.086-0.075-0.116-0.12-0.073-0.076-0.179-0.264-0.093-0.167-0.174-0.469-0.228-0.767-0.046-0.249-0.069-0.69-0.067-1.029 2e-3 -1.252 0.202-2.366 0.452-3.589 0.183-0.888 0.473-1.752 0.678-2.635 0.215-0.914 0.638-2.237-0.094-3.02-1.263-1.35-3.425 0.253-4.511 1.088-1.259 0.968-2.379 2.103-3.418 3.306" clip-path="url(#SVGID_90_)"/>
   </g>
  </g>
 </g>
</svg>
