<?xml version="1.0" encoding="UTF-8" standalone="no"?>
<!-- Created with Inkscape (http://www.inkscape.org/) -->

<svg
   width="36.434372mm"
   height="17.298161mm"
   viewBox="0 0 36.434372 17.298161"
   version="1.1"
   id="svg1"
   inkscape:version="1.4 (e7c3feb100, 2024-10-09)"
   sodipodi:docname="logo_inverted.svg"
   xmlns:inkscape="http://www.inkscape.org/namespaces/inkscape"
   xmlns:sodipodi="http://sodipodi.sourceforge.net/DTD/sodipodi-0.dtd"
   xmlns="http://www.w3.org/2000/svg"
   xmlns:svg="http://www.w3.org/2000/svg">
  <sodipodi:namedview
     id="namedview1"
     pagecolor="#ffffff"
     bordercolor="#000000"
     borderopacity="0.25"
     inkscape:showpageshadow="2"
     inkscape:pageopacity="0.0"
     inkscape:pagecheckerboard="0"
     inkscape:deskcolor="#d1d1d1"
     inkscape:document-units="mm"
     inkscape:zoom="4.2482356"
     inkscape:cx="110.04568"
     inkscape:cy="78.503178"
     inkscape:window-width="2560"
     inkscape:window-height="1052"
     inkscape:window-x="1920"
     inkscape:window-y="0"
     inkscape:window-maximized="1"
     inkscape:current-layer="g615" />
  <defs
     id="defs1">
    <clipPath
       id="SVGID_90_">
      <rect
         id="use555"
         y="-0.0040000002"
         width="1366"
         height="4771.8838"
         x="0" />
    </clipPath>
    <clipPath
       id="clipPath1">
      <rect
         id="use1"
         y="-0.0040000002"
         width="1366"
         height="4771.8838"
         x="0" />
    </clipPath>
    <clipPath
       id="clipPath2">
      <rect
         id="use2"
         y="-0.0040000002"
         width="1366"
         height="4771.8838"
         x="0" />
    </clipPath>
    <clipPath
       id="clipPath3">
      <rect
         id="use3"
         y="-0.0040000002"
         width="1366"
         height="4771.8838"
         x="0" />
    </clipPath>
    <clipPath
       id="clipPath4">
      <rect
         id="use4"
         y="-0.0040000002"
         width="1366"
         height="4771.8838"
         x="0" />
    </clipPath>
    <clipPath
       id="clipPath5">
      <rect
         id="use5"
         y="-0.0040000002"
         width="1366"
         height="4771.8838"
         x="0" />
    </clipPath>
    <clipPath
       id="clipPath6">
      <rect
         id="use6"
         y="-0.0040000002"
         width="1366"
         height="4771.8838"
         x="0" />
    </clipPath>
    <clipPath
       id="clipPath7">
      <rect
         id="use7"
         y="-0.0040000002"
         width="1366"
         height="4771.8838"
         x="0" />
    </clipPath>
    <clipPath
       id="clipPath8">
      <rect
         id="use8"
         y="-0.0040000002"
         width="1366"
         height="4771.8838"
         x="0" />
    </clipPath>
    <clipPath
       id="clipPath9">
      <rect
         id="use9"
         y="-0.0040000002"
         width="1366"
         height="4771.8838"
         x="0" />
    </clipPath>
    <clipPath
       id="clipPath10">
      <rect
         id="use10"
         y="-0.0040000002"
         width="1366"
         height="4771.8838"
         x="0" />
    </clipPath>
    <clipPath
       id="clipPath11">
      <rect
         id="use11"
         y="-0.0040000002"
         width="1366"
         height="4771.8838"
         x="0" />
    </clipPath>
    <clipPath
       id="clipPath12">
      <rect
         id="use12"
         y="-0.0040000002"
         width="1366"
         height="4771.8838"
         x="0" />
    </clipPath>
    <clipPath
       id="clipPath13">
      <rect
         id="use13"
         y="-0.0040000002"
         width="1366"
         height="4771.8838"
         x="0" />
    </clipPath>
    <clipPath
       id="clipPath14">
      <rect
         id="use14"
         y="-0.0040000002"
         width="1366"
         height="4771.8838"
         x="0" />
    </clipPath>
    <clipPath
       id="clipPath15">
      <rect
         id="use15"
         y="-0.0040000002"
         width="1366"
         height="4771.8838"
         x="0" />
    </clipPath>
    <clipPath
       id="clipPath16">
      <rect
         id="use16"
         y="-0.0040000002"
         width="1366"
         height="4771.8838"
         x="0" />
    </clipPath>
    <clipPath
       id="clipPath17">
      <rect
         id="use17"
         y="-0.0040000002"
         width="1366"
         height="4771.8838"
         x="0" />
    </clipPath>
    <clipPath
       id="clipPath18">
      <rect
         id="use18"
         y="-0.0040000002"
         width="1366"
         height="4771.8838"
         x="0" />
    </clipPath>
    <clipPath
       id="clipPath19">
      <rect
         id="use19"
         y="-0.0040000002"
         width="1366"
         height="4771.8838"
         x="0" />
    </clipPath>
    <clipPath
       id="clipPath20">
      <rect
         id="use20"
         y="-0.0040000002"
         width="1366"
         height="4771.8838"
         x="0" />
    </clipPath>
    <clipPath
       id="clipPath21">
      <rect
         id="use21"
         y="-0.0040000002"
         width="1366"
         height="4771.8838"
         x="0" />
    </clipPath>
    <clipPath
       id="clipPath22">
      <rect
         id="use22"
         y="-0.0040000002"
         width="1366"
         height="4771.8838"
         x="0" />
    </clipPath>
    <clipPath
       id="clipPath23">
      <rect
         id="use23"
         y="-0.0040000002"
         width="1366"
         height="4771.8838"
         x="0" />
    </clipPath>
    <clipPath
       id="clipPath24">
      <rect
         id="use24"
         y="-0.0040000002"
         width="1366"
         height="4771.8838"
         x="0" />
    </clipPath>
    <clipPath
       id="clipPath25">
      <rect
         id="use25"
         y="-0.0040000002"
         width="1366"
         height="4771.8838"
         x="0" />
    </clipPath>
    <clipPath
       id="clipPath26">
      <rect
         id="use26"
         y="-0.0040000002"
         width="1366"
         height="4771.8838"
         x="0" />
    </clipPath>
  </defs>
  <g
     inkscape:label="Layer 1"
     inkscape:groupmode="layer"
     id="layer1">
    <g
       id="g615"
       transform="matrix(0.26458333,0,0,0.26458333,-26.844181,-131.93182)">
      <path
         clip-path="url(#SVGID_90_)"
         fill="#3bb9cd"
         d="M 78.924,79.972 C 71.54,79.972 68.921,85.199 68.921,89.677 68.921,92.856 69.847,95.308 71.674,96.965 73.298,98.438 75.608,99.217 78.353,99.217 81.189,99.217 83.478,98.514 85.158,97.128 L 83.269,93.168 C 82.158,93.998 80.825,94.402 79.195,94.402 76.261,94.402 74.579,92.6 74.579,89.459 74.579,86.465 76.376,84.679 79.386,84.679 81.479,84.679 82.6,85.517 83.271,86.022 L 85.318,81.983 85.237,81.924 C 84.29,81.242 82.529,79.972 78.924,79.972"
         id="path579"
         transform="translate(32.537325,458.68695)" />
      <path
         clip-path="url(#SVGID_90_)"
         fill="#3bb9cd"
         d="M 95.121,79.973 C 89.169,79.973 85.471,83.66 85.471,89.594 85.471,95.621 89.068,99.218 95.094,99.218 101.046,99.218 104.743,95.53 104.743,89.594 104.743,83.57 101.146,79.973 95.121,79.973 M 95.121,94.402 C 92.621,94.402 91.129,92.585 91.129,89.541 91.129,86.496 92.621,84.678 95.121,84.678 97.604,84.678 99.086,86.496 99.086,89.541 99.085,92.585 97.604,94.402 95.121,94.402"
         id="path580"
         transform="translate(32.537325,458.68695)" />
      <path
         clip-path="url(#SVGID_90_)"
         fill="#3bb9cd"
         d="M 114.17,80.299 H 106.939 V 98.891 H 112.487 V 93.864 H 114.088 C 119.467,93.864 122.678,91.283 122.678,86.959 122.678,82.539 119.815,80.299 114.17,80.299 M 114.062,89.619 H 112.488 V 84.841 H 114.117 C 116.008,84.841 117.049,85.671 117.049,87.176 117.048,88.729 115.96,89.619 114.062,89.619"
         id="path581"
         transform="translate(32.537325,458.68695)" />
      <path
         clip-path="url(#SVGID_90_)"
         fill="#3bb9cd"
         d="M 131.987,93.337 134.709,98.89 H 141.18 L 137.241,92.173 137.313,92.133 C 139.348,91.033 140.424,89.159 140.424,86.714 140.424,82.516 137.397,80.297 131.671,80.297 H 124.549 V 98.89 H 130.097 V 93.293 H 131.965 Z M 130.097,89.32 V 84.895 H 131.779 C 133.808,84.895 134.793,85.606 134.793,87.068 134.793,88.095 134.262,89.32 131.726,89.32 Z"
         id="path582"
         transform="translate(32.537325,458.68695)" />
      <path
         clip-path="url(#SVGID_90_)"
         fill="#00568d"
         d="M 126.702,104.963 C 130.489,105.801 134.418,105.132 137.997,103.754 140.783,102.68 143.427,101.229 145.86,99.5 146.373,99.135 147.197,98.478 147.197,98.478 146.752,98.298 146.267,98.035 145.696,97.671 145.696,97.671 145.461,97.844 145.299,97.962 144.357,98.644 143.381,99.279 142.379,99.87 139.534,101.546 136.449,102.889 133.187,103.484 131.188,103.846 129.111,103.876 127.123,103.436 126.13,103.217 125.706,104.744 126.702,104.963"
         id="path583"
         transform="translate(32.537325,458.68695)"
         style="fill:#ffffff" />
      <path
         clip-path="url(#SVGID_90_)"
         fill="#3bb9cd"
         d="M 151.676,80.056 C 145.724,80.056 142.026,83.743 142.026,89.677 142.026,95.704 145.623,99.3 151.649,99.3 157.601,99.3 161.298,95.613 161.298,89.677 161.298,83.653 157.701,80.056 151.676,80.056 M 151.676,94.484 C 149.176,94.484 147.684,92.667 147.684,89.623 147.684,86.578 149.176,84.76 151.676,84.76 154.159,84.76 155.641,86.578 155.641,89.623 155.641,92.667 154.159,94.484 151.676,94.484"
         id="path584"
         transform="translate(32.537325,458.68695)" />
      <path
         clip-path="url(#SVGID_90_)"
         fill="#00568d"
         d="M 187.943,88.256 C 187.959,88.306 187.933,88.069 187.943,88.256"
         id="path585"
         transform="translate(32.537325,458.68695)" />
      <path
         clip-path="url(#SVGID_90_)"
         fill="#00568d"
         d="M 187.89,88.065 C 187.899,88.083 187.909,88.099 187.915,88.116 187.892,88.061 187.888,88.053 187.89,88.065"
         id="path586"
         transform="translate(32.537325,458.68695)" />
      <path
         clip-path="url(#SVGID_90_)"
         fill="#00568d"
         d="M 187.627,87.691 C 187.72,87.789 187.737,87.805 187.783,87.877 187.848,87.882 187.914,87.883 187.976,87.895 187.86,87.828 187.743,87.76 187.627,87.691"
         id="path587"
         transform="translate(32.537325,458.68695)" />
      <path
         clip-path="url(#SVGID_90_)"
         fill="#00568d"
         d="M 187.947,88.463 C 187.945,88.48 187.938,88.495 187.935,88.51 187.933,88.544 187.934,88.552 187.947,88.463"
         id="path588"
         transform="translate(32.537325,458.68695)" />
      <path
         clip-path="url(#SVGID_90_)"
         fill="#00568d"
         d="M 168.727,82.616 C 168.782,82.656 168.77,82.642 168.727,82.616"
         id="path589"
         transform="translate(32.537325,458.68695)" />
      <path
         clip-path="url(#SVGID_90_)"
         fill="#00568d"
         d="M 184.574,92.208 C 184.573,92.218 184.574,92.212 184.576,92.201 184.576,92.191 184.576,92.191 184.574,92.208"
         id="path590"
         transform="translate(32.537325,458.68695)" />
      <path
         clip-path="url(#SVGID_90_)"
         fill="#00568d"
         d="M 184.538,93.072 C 184.548,93.145 184.547,93.118 184.543,93.069 184.535,93.026 184.53,93.012 184.538,93.072"
         id="path591"
         transform="translate(32.537325,458.68695)" />
      <path
         id="path592"
         clip-path="url(#SVGID_90_)"
         d="M 201.05577 77.415897 C 200.79743 77.410722 200.54553 77.524866 200.41319 77.802616 C 199.30451 80.125978 198.18855 82.458287 197.21006 84.843631 C 196.57664 84.920286 195.94209 84.999783 195.30772 85.078006 C 194.88372 85.130006 194.5167 85.405975 194.5167 85.870975 C 194.5167 86.257975 194.88172 86.713038 195.30772 86.660038 C 195.69372 86.612038 196.07992 86.56446 196.46592 86.51746 C 195.33492 88.72746 194.10303 90.941444 192.50303 92.851444 C 191.73203 93.773444 190.87159 94.651897 189.85459 95.290897 C 188.94459 95.862897 188.00411 96.192553 186.95811 96.138553 C 185.74711 96.076553 185.15148 95.274288 184.81748 94.191288 C 184.81548 94.183288 184.81362 94.17485 184.81162 94.16785 C 185.21362 93.82085 185.61852 93.480553 186.02452 93.138553 C 187.11352 92.216553 188.29247 91.247835 189.02647 90.001835 C 189.33947 89.469835 189.56752 88.847538 189.52452 88.222538 C 189.47852 87.581538 189.08656 86.566022 188.39756 86.369022 C 187.13556 86.009022 185.77472 86.626569 184.93272 87.554569 C 184.07672 88.496569 183.53478 89.718288 183.22178 90.941288 C 182.98678 91.856288 182.90286 92.721882 183.05186 93.624882 C 182.76986 93.897882 182.49344 94.179475 182.19444 94.433475 C 181.96544 94.627475 181.9752 94.616382 181.7042 94.812382 C 181.4152 95.020382 181.11848 95.216225 180.81748 95.402225 C 180.23548 95.763225 179.59555 96.11521 178.98155 96.36121 C 178.37055 96.60821 177.7553 96.792132 177.2003 96.781132 C 177.1373 96.779132 177.0748 96.775413 177.0128 96.769413 C 176.9858 96.763413 176.94386 96.755835 176.92686 96.751835 C 176.86986 96.733835 176.81294 96.719053 176.75694 96.701053 C 176.75094 96.699053 176.74922 96.700147 176.74522 96.697147 C 176.73622 96.692147 176.72248 96.68285 176.69248 96.66785 C 176.69448 96.66885 176.63564 96.630257 176.60264 96.609257 C 176.57064 96.580257 176.5147 96.532038 176.5167 96.535038 C 176.4007 96.415038 176.44497 96.459366 176.33897 96.271366 C 176.24597 96.104366 176.16445 95.801788 176.11045 95.503788 C 176.06445 95.254788 176.04009 94.813491 176.04209 94.474491 C 176.04409 93.222491 176.24522 92.1096 176.49522 90.8866 C 176.67822 89.9986 176.96795 89.134835 177.17295 88.251835 C 177.38795 87.337835 177.8112 86.01335 177.0792 85.23035 C 175.8162 83.88035 173.65348 85.483241 172.56748 86.318241 C 171.30848 87.286241 170.18852 88.421882 169.14952 89.624882 C 169.86352 88.122882 170.49755 86.557569 170.73155 84.929569 C 170.89755 83.782569 170.89109 82.324741 169.91709 81.505741 C 169.17509 80.881741 168.19614 80.869569 167.29014 81.054569 C 166.21714 81.272569 165.1905 81.77585 164.2335 82.29285 C 163.0305 82.94485 161.8847 83.701116 160.7667 84.490116 C 160.7067 84.533116 160.64601 84.576975 160.58701 84.620975 C 158.89401 86.003975 157.17833 87.362413 155.40733 88.644413 C 154.85433 89.104413 154.3068 89.567038 153.7628 90.035038 C 152.3938 91.210038 149.57722 93.804882 149.49522 93.874882 C 149.96822 94.202882 150.51423 94.398819 151.16123 94.460819 C 152.08823 93.680819 152.97489 92.812413 153.88389 92.019413 C 154.44689 91.526413 155.01406 91.040522 155.58506 90.556522 C 156.01406 90.193522 156.44212 89.833444 156.87412 89.476444 C 158.01912 88.530444 159.10078 87.670866 160.22178 86.833866 C 160.43778 86.673866 160.65417 86.51435 160.87217 86.35535 C 161.78117 85.69335 162.70914 85.052866 163.66514 84.458866 C 164.19714 84.128866 164.73614 83.812319 165.29014 83.523319 C 165.54614 83.388319 165.80448 83.260506 166.06748 83.140506 C 166.12148 83.115506 166.17559 83.092241 166.22959 83.068241 C 166.24559 83.061241 166.31659 83.029553 166.35459 83.013553 C 166.38559 83.000553 166.42367 82.98435 166.43467 82.98035 C 166.50367 82.95335 166.57075 82.925272 166.63975 82.900272 C 167.05975 82.742272 167.48209 82.644803 167.91709 82.544803 C 167.95609 82.541803 167.99433 82.536085 168.03233 82.533085 C 168.12333 82.526085 168.21572 82.523272 168.30772 82.525272 C 168.38772 82.527272 168.466 82.54185 168.546 82.54285 C 168.306 82.54085 168.49445 82.535288 168.61045 82.566288 C 168.65645 82.579288 168.69764 82.601069 168.72764 82.617069 C 168.71364 82.607069 168.69305 82.5921 168.66905 82.5741 C 168.72005 82.6131 168.80731 82.656475 168.86631 82.683475 C 168.86931 82.684475 168.87112 82.684428 168.87412 82.685428 C 168.77812 82.574428 168.96312 82.722428 168.87412 82.685428 C 168.88112 82.692428 168.88366 82.698866 168.89366 82.708866 C 168.91466 82.731866 168.93706 82.756225 168.96006 82.777225 C 168.95406 82.767225 168.94848 82.758881 168.94248 82.749881 C 168.94848 82.759881 169.08397 82.884178 168.96397 82.779178 C 168.96297 82.779178 168.96106 82.777225 168.96006 82.777225 C 168.99006 82.832225 169.03158 82.887288 169.06358 82.941288 C 169.07558 82.960288 169.08392 82.973303 169.09092 82.982303 C 169.06392 82.877303 169.14692 83.063303 169.09092 82.982303 C 169.09392 82.996303 169.09564 83.006225 169.10264 83.027225 C 169.16364 83.224225 169.21769 83.462585 169.22569 83.595585 C 169.28869 84.464585 169.08334 85.330131 168.82334 86.156131 C 168.35734 87.104131 167.97261 88.092538 167.64561 89.097538 C 167.00661 90.431538 166.35139 91.75946 165.57139 93.01746 C 165.14039 93.89746 164.68151 94.766725 164.14951 95.589725 C 163.81551 96.306725 163.51806 97.032663 163.33506 97.800663 C 163.12606 98.673663 164.30233 99.181038 164.78233 98.410038 C 166.97033 94.893038 169.35505 91.329741 172.41905 88.505741 C 173.01405 87.958741 173.63934 87.444647 174.32334 87.009647 C 174.64734 86.804647 175.50752 86.197663 175.89952 86.300663 C 175.89952 86.288663 175.90147 86.276506 175.90147 86.265506 C 175.90147 86.286506 175.90905 86.296569 175.91905 86.304569 C 175.91205 86.303569 175.90652 86.301663 175.89952 86.300663 C 175.89852 86.483663 175.87087 86.670444 175.84287 86.851444 C 175.76287 87.367444 175.64084 87.877694 175.51084 88.382694 C 175.31884 89.125694 175.08958 89.860163 174.93858 90.613163 C 174.68558 91.882163 174.46111 93.176491 174.45811 94.474491 C 174.45611 95.748491 174.67466 97.336038 175.89366 98.035038 C 177.11566 98.737038 178.68036 98.211194 179.86436 97.695194 C 181.05636 97.176194 182.18548 96.474178 183.19248 95.654178 C 183.32148 95.549178 183.44358 95.436147 183.56358 95.322147 C 184.02858 96.373147 184.76973 97.254007 185.97373 97.578007 C 187.37973 97.955007 188.89928 97.606288 190.15928 96.941288 C 192.02928 95.955288 193.51208 94.31471 194.75108 92.54871 C 194.66608 92.97671 194.60483 93.406678 194.59483 93.841678 C 194.55483 95.586678 195.47366 97.517382 197.39366 97.687382 C 199.12666 97.840382 200.77884 96.644585 202.13584 95.720585 C 202.48884 95.480585 202.647 95.025553 202.421 94.638553 C 202.216 94.288553 201.69202 94.111397 201.33702 94.353397 C 200.31502 95.048397 199.12684 95.959397 197.88584 96.103397 C 197.31784 96.169397 196.89267 96.005257 196.55967 95.484257 C 196.18367 94.895257 196.13339 94.16521 196.19639 93.48621 C 196.27039 92.71821 196.51011 91.94796 196.70811 91.20496 C 196.91411 90.42396 197.14266 89.651647 197.39366 88.884647 C 197.62966 88.158647 197.88633 87.439444 198.15733 86.726444 C 198.19135 86.637377 198.22743 86.549357 198.2628 86.460819 C 198.22854 86.549354 198.19306 86.637711 198.15928 86.726444 C 198.23298 86.581603 198.30527 86.436248 198.37803 86.290897 C 198.91905 86.229876 199.46002 86.170428 200.00303 86.120975 C 202.05103 85.933975 204.02695 85.426147 206.04795 85.072147 C 206.46895 84.998147 206.70569 84.483491 206.60069 84.099491 C 206.47769 83.654491 206.04908 83.472756 205.62608 83.546756 C 203.70008 83.883756 201.81927 84.369663 199.86827 84.550663 C 199.64206 84.571013 199.41741 84.593256 199.19248 84.617069 C 199.75452 83.426619 200.28953 82.223412 200.80186 81.019413 C 201.16986 80.156413 201.52245 79.287991 201.86045 78.411991 C 202.07045 77.866647 201.54895 77.425777 201.05577 77.415897 z M 200.33311 77.990116 C 200.81511 78.194116 201.29837 78.398444 201.78037 78.601444 C 201.29737 78.398444 200.81511 78.195069 200.33311 77.992069 C 200.33333 77.991504 200.33289 77.99068 200.33311 77.990116 z M 199.11631 84.380741 C 199.09772 84.423807 199.07819 84.46655 199.05967 84.509647 C 199.04143 84.552035 199.02313 84.594165 199.00498 84.6366 C 199.02198 84.5946 199.03972 84.551647 199.05772 84.509647 C 199.07637 84.46627 199.09759 84.424084 199.11631 84.380741 z M 187.62608 87.691288 C 187.74208 87.759288 187.85969 87.828366 187.97569 87.896366 C 187.91369 87.884366 187.84833 87.882788 187.78233 87.878788 C 187.79933 87.904788 187.82073 87.936303 187.84873 87.982303 C 187.86373 88.008303 187.87475 88.038288 187.88975 88.066288 C 187.89375 88.089288 187.92681 88.183194 187.92881 88.195194 C 187.93681 88.231194 187.93948 88.248694 187.94248 88.257694 C 187.94448 88.304694 187.94439 88.348413 187.94639 88.394413 C 187.94639 88.410413 187.93962 88.4756 187.93662 88.5116 C 187.91962 88.5916 187.89903 88.667975 187.87803 88.745975 C 187.76103 89.164975 187.32444 89.722647 186.94444 90.134647 C 186.21544 90.926647 185.38858 91.617522 184.56358 92.306522 C 184.5682 92.263982 184.57043 92.227421 184.57334 92.208866 C 184.57634 92.190866 184.5753 92.191053 184.5753 92.201053 C 184.5823 92.157053 184.61117 91.978663 184.62217 91.925663 C 184.82917 90.820663 185.16305 89.901975 185.79405 88.995975 C 186.02505 88.662975 186.38366 88.299819 186.76866 88.085819 C 187.05666 87.925819 187.43033 87.853788 187.78233 87.878788 C 187.73633 87.806788 187.71908 87.789288 187.62608 87.691288 z "
         transform="translate(32.537325,458.68695)"
         style="fill:#ffffff" />
      <path
         clip-path="url(#SVGID_90_)"
         fill="#00568d"
         d="M 177.012,96.768 C 176.998,96.767 176.985,96.768 176.97,96.766 177.054,96.777 177.044,96.775 177.012,96.768"
         id="path593"
         transform="translate(32.537325,458.68695)" />
      <path
         clip-path="url(#SVGID_90_)"
         fill="#00568d"
         d="M 175.902,86.265 C 175.902,86.276 175.9,86.288 175.9,86.3 175.906,86.301 175.913,86.304 175.919,86.305 175.91,86.297 175.902,86.287 175.902,86.265"
         id="path594"
         transform="translate(32.537325,458.68695)" />
      <path
         clip-path="url(#SVGID_90_)"
         fill="#00568d"
         d="M 176.746,96.697 C 176.591,96.646 176.795,96.73 176.746,96.697"
         id="path595"
         transform="translate(32.537325,458.68695)" />
      <path
         clip-path="url(#SVGID_90_)"
         fill="#00568d"
         d="M 169.09,82.982 C 169.146,83.062 169.063,82.876 169.09,82.982"
         id="path596"
         transform="translate(32.537325,458.68695)" />
      <path
         clip-path="url(#SVGID_90_)"
         fill="#00568d"
         d="M 168.944,82.748 C 168.948,82.758 168.956,82.768 168.961,82.778 L 168.963,82.779 C 169.084,82.884 168.949,82.759 168.944,82.748"
         id="path597"
         transform="translate(32.537325,458.68695)" />
      <path
         clip-path="url(#SVGID_90_)"
         fill="#00568d"
         d="M 176.6,96.614 C 176.637,96.643 176.626,96.632 176.603,96.61 176.576,96.593 176.563,96.586 176.6,96.614"
         id="path598"
         transform="translate(32.537325,458.68695)" />
      <path
         clip-path="url(#SVGID_90_)"
         fill="#00568d"
         d="M 166.347,83.016 C 166.289,83.04 166.315,83.029 166.355,83.014 166.382,83.002 166.393,82.996 166.347,83.016"
         id="path599"
         transform="translate(32.537325,458.68695)" />
      <path
         clip-path="url(#SVGID_90_)"
         fill="#00568d"
         d="M 168.874,82.686 C 168.964,82.723 168.778,82.575 168.874,82.686"
         id="path600"
         transform="translate(32.537325,458.68695)" />
      <path
         clip-path="url(#SVGID_90_)"
         fill="#00568d"
         d="M 167.889,82.546 C 167.899,82.546 167.909,82.545 167.919,82.544 167.922,82.543 167.926,82.542 167.931,82.541 168.064,82.511 167.752,82.551 167.889,82.546"
         id="path601"
         transform="translate(32.537325,458.68695)" />
      <rect
         x="112.141"
         y="56.624001"
         clip-path="url(#SVGID_90_)"
         fill="#00568d"
         width="7.9349999"
         height="15.791"
         id="rect602"
         transform="translate(32.537325,458.68695)"
         style="fill:#ffffff" />
      <rect
         x="124.802"
         y="39.952999"
         clip-path="url(#SVGID_90_)"
         fill="#3bb9cd"
         width="7.9349999"
         height="32.462002"
         id="rect603"
         transform="translate(32.537325,458.68695)" />
      <rect
         x="137.12399"
         y="49.380001"
         clip-path="url(#SVGID_90_)"
         fill="#00568d"
         width="7.9349999"
         height="23.035"
         id="rect604"
         transform="translate(32.537325,458.68695)"
         style="fill:#ffffff" />
    </g>
  </g>
</svg>
