<?xml version="1.0" encoding="UTF-8" standalone="no"?>
<!-- Created with Inkscape (http://www.inkscape.org/) -->

<svg
   width="36.434372mm"
   height="17.298161mm"
   viewBox="0 0 36.434372 17.298161"
   version="1.1"
   id="svg1"
   inkscape:version="1.4 (e7c3feb100, 2024-10-09)"
   sodipodi:docname="logo.svg"
   xmlns:inkscape="http://www.inkscape.org/namespaces/inkscape"
   xmlns:sodipodi="http://sodipodi.sourceforge.net/DTD/sodipodi-0.dtd"
   xmlns="http://www.w3.org/2000/svg"
   xmlns:svg="http://www.w3.org/2000/svg">
  <sodipodi:namedview
     id="namedview1"
     pagecolor="#ffffff"
     bordercolor="#000000"
     borderopacity="0.25"
     inkscape:showpageshadow="2"
     inkscape:pageopacity="0.0"
     inkscape:pagecheckerboard="0"
     inkscape:deskcolor="#d1d1d1"
     inkscape:document-units="mm"
     inkscape:zoom="0.75098906"
     inkscape:cx="80.560428"
     inkscape:cy="360.19167"
     inkscape:window-width="1920"
     inkscape:window-height="1052"
     inkscape:window-x="0"
     inkscape:window-y="0"
     inkscape:window-maximized="1"
     inkscape:current-layer="layer1" />
  <defs
     id="defs1">
    <clipPath
       id="SVGID_90_">
			<rect
   id="use555"
   y="-0.0040000002"
   width="1366"
   height="4771.8838"
   x="0" />

		</clipPath>
    <clipPath
       id="clipPath1">
			<rect
   id="use1"
   y="-0.0040000002"
   width="1366"
   height="4771.8838"
   x="0" />

		</clipPath>
    <clipPath
       id="clipPath2">
			<rect
   id="use2"
   y="-0.0040000002"
   width="1366"
   height="4771.8838"
   x="0" />

		</clipPath>
    <clipPath
       id="clipPath3">
			<rect
   id="use3"
   y="-0.0040000002"
   width="1366"
   height="4771.8838"
   x="0" />

		</clipPath>
    <clipPath
       id="clipPath4">
			<rect
   id="use4"
   y="-0.0040000002"
   width="1366"
   height="4771.8838"
   x="0" />

		</clipPath>
    <clipPath
       id="clipPath5">
			<rect
   id="use5"
   y="-0.0040000002"
   width="1366"
   height="4771.8838"
   x="0" />

		</clipPath>
    <clipPath
       id="clipPath6">
			<rect
   id="use6"
   y="-0.0040000002"
   width="1366"
   height="4771.8838"
   x="0" />

		</clipPath>
    <clipPath
       id="clipPath7">
			<rect
   id="use7"
   y="-0.0040000002"
   width="1366"
   height="4771.8838"
   x="0" />

		</clipPath>
    <clipPath
       id="clipPath8">
			<rect
   id="use8"
   y="-0.0040000002"
   width="1366"
   height="4771.8838"
   x="0" />

		</clipPath>
    <clipPath
       id="clipPath9">
			<rect
   id="use9"
   y="-0.0040000002"
   width="1366"
   height="4771.8838"
   x="0" />

		</clipPath>
    <clipPath
       id="clipPath10">
			<rect
   id="use10"
   y="-0.0040000002"
   width="1366"
   height="4771.8838"
   x="0" />

		</clipPath>
    <clipPath
       id="clipPath11">
			<rect
   id="use11"
   y="-0.0040000002"
   width="1366"
   height="4771.8838"
   x="0" />

		</clipPath>
    <clipPath
       id="clipPath12">
			<rect
   id="use12"
   y="-0.0040000002"
   width="1366"
   height="4771.8838"
   x="0" />

		</clipPath>
    <clipPath
       id="clipPath13">
			<rect
   id="use13"
   y="-0.0040000002"
   width="1366"
   height="4771.8838"
   x="0" />

		</clipPath>
    <clipPath
       id="clipPath14">
			<rect
   id="use14"
   y="-0.0040000002"
   width="1366"
   height="4771.8838"
   x="0" />

		</clipPath>
    <clipPath
       id="clipPath15">
			<rect
   id="use15"
   y="-0.0040000002"
   width="1366"
   height="4771.8838"
   x="0" />

		</clipPath>
    <clipPath
       id="clipPath16">
			<rect
   id="use16"
   y="-0.0040000002"
   width="1366"
   height="4771.8838"
   x="0" />

		</clipPath>
    <clipPath
       id="clipPath17">
			<rect
   id="use17"
   y="-0.0040000002"
   width="1366"
   height="4771.8838"
   x="0" />

		</clipPath>
    <clipPath
       id="clipPath18">
			<rect
   id="use18"
   y="-0.0040000002"
   width="1366"
   height="4771.8838"
   x="0" />

		</clipPath>
    <clipPath
       id="clipPath19">
			<rect
   id="use19"
   y="-0.0040000002"
   width="1366"
   height="4771.8838"
   x="0" />

		</clipPath>
    <clipPath
       id="clipPath20">
			<rect
   id="use20"
   y="-0.0040000002"
   width="1366"
   height="4771.8838"
   x="0" />

		</clipPath>
    <clipPath
       id="clipPath21">
			<rect
   id="use21"
   y="-0.0040000002"
   width="1366"
   height="4771.8838"
   x="0" />

		</clipPath>
    <clipPath
       id="clipPath22">
			<rect
   id="use22"
   y="-0.0040000002"
   width="1366"
   height="4771.8838"
   x="0" />

		</clipPath>
    <clipPath
       id="clipPath23">
			<rect
   id="use23"
   y="-0.0040000002"
   width="1366"
   height="4771.8838"
   x="0" />

		</clipPath>
    <clipPath
       id="clipPath24">
			<rect
   id="use24"
   y="-0.0040000002"
   width="1366"
   height="4771.8838"
   x="0" />

		</clipPath>
    <clipPath
       id="clipPath25">
			<rect
   id="use25"
   y="-0.0040000002"
   width="1366"
   height="4771.8838"
   x="0" />

		</clipPath>
    <clipPath
       id="clipPath26">
			<rect
   id="use26"
   y="-0.0040000002"
   width="1366"
   height="4771.8838"
   x="0" />

		</clipPath>
  </defs>
  <g
     inkscape:label="Layer 1"
     inkscape:groupmode="layer"
     id="layer1">
    <g
       id="g615"
       transform="matrix(0.26458333,0,0,0.26458333,-26.844181,-131.93182)">
      <path
         clip-path="url(#SVGID_90_)"
         fill="#3bb9cd"
         d="M 78.924,79.972 C 71.54,79.972 68.921,85.199 68.921,89.677 68.921,92.856 69.847,95.308 71.674,96.965 73.298,98.438 75.608,99.217 78.353,99.217 81.189,99.217 83.478,98.514 85.158,97.128 L 83.269,93.168 C 82.158,93.998 80.825,94.402 79.195,94.402 76.261,94.402 74.579,92.6 74.579,89.459 74.579,86.465 76.376,84.679 79.386,84.679 81.479,84.679 82.6,85.517 83.271,86.022 L 85.318,81.983 85.237,81.924 C 84.29,81.242 82.529,79.972 78.924,79.972"
         id="path579"
         transform="translate(32.537325,458.68695)" />
      <path
         clip-path="url(#SVGID_90_)"
         fill="#3bb9cd"
         d="M 95.121,79.973 C 89.169,79.973 85.471,83.66 85.471,89.594 85.471,95.621 89.068,99.218 95.094,99.218 101.046,99.218 104.743,95.53 104.743,89.594 104.743,83.57 101.146,79.973 95.121,79.973 M 95.121,94.402 C 92.621,94.402 91.129,92.585 91.129,89.541 91.129,86.496 92.621,84.678 95.121,84.678 97.604,84.678 99.086,86.496 99.086,89.541 99.085,92.585 97.604,94.402 95.121,94.402"
         id="path580"
         transform="translate(32.537325,458.68695)" />
      <path
         clip-path="url(#SVGID_90_)"
         fill="#3bb9cd"
         d="M 114.17,80.299 H 106.939 V 98.891 H 112.487 V 93.864 H 114.088 C 119.467,93.864 122.678,91.283 122.678,86.959 122.678,82.539 119.815,80.299 114.17,80.299 M 114.062,89.619 H 112.488 V 84.841 H 114.117 C 116.008,84.841 117.049,85.671 117.049,87.176 117.048,88.729 115.96,89.619 114.062,89.619"
         id="path581"
         transform="translate(32.537325,458.68695)" />
      <path
         clip-path="url(#SVGID_90_)"
         fill="#3bb9cd"
         d="M 131.987,93.337 134.709,98.89 H 141.18 L 137.241,92.173 137.313,92.133 C 139.348,91.033 140.424,89.159 140.424,86.714 140.424,82.516 137.397,80.297 131.671,80.297 H 124.549 V 98.89 H 130.097 V 93.293 H 131.965 Z M 130.097,89.32 V 84.895 H 131.779 C 133.808,84.895 134.793,85.606 134.793,87.068 134.793,88.095 134.262,89.32 131.726,89.32 Z"
         id="path582"
         transform="translate(32.537325,458.68695)" />
      <path
         clip-path="url(#SVGID_90_)"
         fill="#00568d"
         d="M 126.702,104.963 C 130.489,105.801 134.418,105.132 137.997,103.754 140.783,102.68 143.427,101.229 145.86,99.5 146.373,99.135 147.197,98.478 147.197,98.478 146.752,98.298 146.267,98.035 145.696,97.671 145.696,97.671 145.461,97.844 145.299,97.962 144.357,98.644 143.381,99.279 142.379,99.87 139.534,101.546 136.449,102.889 133.187,103.484 131.188,103.846 129.111,103.876 127.123,103.436 126.13,103.217 125.706,104.744 126.702,104.963"
         id="path583"
         transform="translate(32.537325,458.68695)" />
      <path
         clip-path="url(#SVGID_90_)"
         fill="#3bb9cd"
         d="M 151.676,80.056 C 145.724,80.056 142.026,83.743 142.026,89.677 142.026,95.704 145.623,99.3 151.649,99.3 157.601,99.3 161.298,95.613 161.298,89.677 161.298,83.653 157.701,80.056 151.676,80.056 M 151.676,94.484 C 149.176,94.484 147.684,92.667 147.684,89.623 147.684,86.578 149.176,84.76 151.676,84.76 154.159,84.76 155.641,86.578 155.641,89.623 155.641,92.667 154.159,94.484 151.676,94.484"
         id="path584"
         transform="translate(32.537325,458.68695)" />
      <path
         clip-path="url(#SVGID_90_)"
         fill="#00568d"
         d="M 187.943,88.256 C 187.959,88.306 187.933,88.069 187.943,88.256"
         id="path585"
         transform="translate(32.537325,458.68695)" />
      <path
         clip-path="url(#SVGID_90_)"
         fill="#00568d"
         d="M 187.89,88.065 C 187.899,88.083 187.909,88.099 187.915,88.116 187.892,88.061 187.888,88.053 187.89,88.065"
         id="path586"
         transform="translate(32.537325,458.68695)" />
      <path
         clip-path="url(#SVGID_90_)"
         fill="#00568d"
         d="M 187.627,87.691 C 187.72,87.789 187.737,87.805 187.783,87.877 187.848,87.882 187.914,87.883 187.976,87.895 187.86,87.828 187.743,87.76 187.627,87.691"
         id="path587"
         transform="translate(32.537325,458.68695)" />
      <path
         clip-path="url(#SVGID_90_)"
         fill="#00568d"
         d="M 187.947,88.463 C 187.945,88.48 187.938,88.495 187.935,88.51 187.933,88.544 187.934,88.552 187.947,88.463"
         id="path588"
         transform="translate(32.537325,458.68695)" />
      <path
         clip-path="url(#SVGID_90_)"
         fill="#00568d"
         d="M 168.727,82.616 C 168.782,82.656 168.77,82.642 168.727,82.616"
         id="path589"
         transform="translate(32.537325,458.68695)" />
      <path
         clip-path="url(#SVGID_90_)"
         fill="#00568d"
         d="M 184.574,92.208 C 184.573,92.218 184.574,92.212 184.576,92.201 184.576,92.191 184.576,92.191 184.574,92.208"
         id="path590"
         transform="translate(32.537325,458.68695)" />
      <path
         clip-path="url(#SVGID_90_)"
         fill="#00568d"
         d="M 184.538,93.072 C 184.548,93.145 184.547,93.118 184.543,93.069 184.535,93.026 184.53,93.012 184.538,93.072"
         id="path591"
         transform="translate(32.537325,458.68695)" />
      <path
         clip-path="url(#SVGID_90_)"
         fill="#00568d"
         d="M 201.781,78.601 C 200.848,80.558 199.915,82.517 199.059,84.509 198.744,85.241 198.443,85.98 198.159,86.726 199.111,84.855 199.984,82.94 200.801,81.02 201.169,80.157 201.523,79.288 201.861,78.412 202.181,77.581 200.799,76.994 200.414,77.802 199.159,80.432 197.892,83.073 196.829,85.79 198.112,83.243 199.307,80.652 200.334,77.991 200.816,78.195 201.299,78.398 201.781,78.601"
         id="path592"
         transform="translate(32.537325,458.68695)" />
      <path
         clip-path="url(#SVGID_90_)"
         fill="#00568d"
         d="M 177.012,96.768 C 176.998,96.767 176.985,96.768 176.97,96.766 177.054,96.777 177.044,96.775 177.012,96.768"
         id="path593"
         transform="translate(32.537325,458.68695)" />
      <path
         clip-path="url(#SVGID_90_)"
         fill="#00568d"
         d="M 175.902,86.265 C 175.902,86.276 175.9,86.288 175.9,86.3 175.906,86.301 175.913,86.304 175.919,86.305 175.91,86.297 175.902,86.287 175.902,86.265"
         id="path594"
         transform="translate(32.537325,458.68695)" />
      <path
         clip-path="url(#SVGID_90_)"
         fill="#00568d"
         d="M 176.746,96.697 C 176.591,96.646 176.795,96.73 176.746,96.697"
         id="path595"
         transform="translate(32.537325,458.68695)" />
      <path
         clip-path="url(#SVGID_90_)"
         fill="#00568d"
         d="M 169.09,82.982 C 169.146,83.062 169.063,82.876 169.09,82.982"
         id="path596"
         transform="translate(32.537325,458.68695)" />
      <path
         clip-path="url(#SVGID_90_)"
         fill="#00568d"
         d="M 168.944,82.748 C 168.948,82.758 168.956,82.768 168.961,82.778 L 168.963,82.779 C 169.084,82.884 168.949,82.759 168.944,82.748"
         id="path597"
         transform="translate(32.537325,458.68695)" />
      <path
         clip-path="url(#SVGID_90_)"
         fill="#00568d"
         d="M 176.6,96.614 C 176.637,96.643 176.626,96.632 176.603,96.61 176.576,96.593 176.563,96.586 176.6,96.614"
         id="path598"
         transform="translate(32.537325,458.68695)" />
      <path
         clip-path="url(#SVGID_90_)"
         fill="#00568d"
         d="M 166.347,83.016 C 166.289,83.04 166.315,83.029 166.355,83.014 166.382,83.002 166.393,82.996 166.347,83.016"
         id="path599"
         transform="translate(32.537325,458.68695)" />
      <path
         clip-path="url(#SVGID_90_)"
         fill="#00568d"
         d="M 168.874,82.686 C 168.964,82.723 168.778,82.575 168.874,82.686"
         id="path600"
         transform="translate(32.537325,458.68695)" />
      <path
         clip-path="url(#SVGID_90_)"
         fill="#00568d"
         d="M 167.889,82.546 C 167.899,82.546 167.909,82.545 167.919,82.544 167.922,82.543 167.926,82.542 167.931,82.541 168.064,82.511 167.752,82.551 167.889,82.546"
         id="path601"
         transform="translate(32.537325,458.68695)" />
      <path
         clip-path="url(#SVGID_90_)"
         fill="#00568d"
         d="M 184.537,93.073 C 184.53,93.013 184.534,93.027 184.544,93.07 184.547,93.119 184.547,93.145 184.537,93.073 M 184.573,92.208 C 184.576,92.19 184.576,92.191 184.576,92.201 184.583,92.157 184.612,91.979 184.623,91.926 184.83,90.821 185.163,89.901 185.794,88.995 186.025,88.662 186.384,88.3 186.769,88.086 187.057,87.926 187.43,87.853 187.782,87.878 187.736,87.806 187.72,87.79 187.627,87.692 187.743,87.76 187.86,87.828 187.976,87.896 187.914,87.884 187.848,87.882 187.782,87.878 187.799,87.904 187.82,87.937 187.848,87.983 187.863,88.009 187.875,88.038 187.89,88.066 187.886,88.054 187.892,88.061 187.915,88.116 187.908,88.1 187.897,88.083 187.89,88.066 187.894,88.089 187.926,88.183 187.928,88.195 187.936,88.231 187.94,88.248 187.943,88.257 187.932,88.069 187.96,88.306 187.943,88.257 V 88.258 C 187.945,88.305 187.944,88.349 187.946,88.395 187.946,88.411 187.939,88.475 187.936,88.511 187.939,88.496 187.944,88.48 187.948,88.464 187.932,88.552 187.932,88.545 187.936,88.511 187.919,88.591 187.899,88.668 187.878,88.746 187.761,89.165 187.324,89.723 186.944,90.135 186.215,90.927 185.389,91.618 184.564,92.307 184.569,92.261 184.573,92.217 184.576,92.201 184.573,92.213 184.572,92.218 184.573,92.208 M 169.15,89.625 C 169.864,88.123 170.497,86.558 170.731,84.93 170.897,83.783 170.891,82.325 169.917,81.506 169.175,80.882 168.197,80.87 167.291,81.055 166.218,81.273 165.191,81.776 164.234,82.293 163.031,82.945 161.885,83.701 160.767,84.49 160.707,84.533 160.646,84.577 160.587,84.621 158.894,86.004 157.179,87.362 155.408,88.644 154.855,89.104 154.307,89.567 153.763,90.035 152.394,91.21 149.578,93.805 149.496,93.875 149.969,94.203 150.514,94.398 151.161,94.46 152.088,93.68 152.975,92.813 153.884,92.02 154.447,91.527 155.015,91.041 155.586,90.557 156.015,90.194 156.443,89.833 156.875,89.476 158.02,88.53 159.101,87.671 160.222,86.834 160.438,86.674 160.655,86.515 160.873,86.356 161.782,85.694 162.709,85.053 163.665,84.459 164.197,84.129 164.737,83.813 165.291,83.524 165.547,83.389 165.805,83.261 166.068,83.141 166.122,83.116 166.176,83.092 166.23,83.068 166.246,83.061 166.316,83.03 166.354,83.014 166.315,83.029 166.29,83.04 166.347,83.016 166.393,82.997 166.382,83.002 166.354,83.014 166.385,83.001 166.423,82.985 166.434,82.981 166.503,82.954 166.571,82.926 166.64,82.901 167.06,82.743 167.482,82.645 167.917,82.545 167.908,82.546 167.898,82.547 167.889,82.547 167.753,82.55 168.065,82.511 167.931,82.542 167.926,82.543 167.922,82.544 167.917,82.545 167.956,82.542 167.994,82.537 168.032,82.534 168.123,82.527 168.215,82.524 168.307,82.526 168.387,82.528 168.466,82.542 168.546,82.543 168.306,82.541 168.494,82.535 168.61,82.566 168.656,82.579 168.697,82.601 168.727,82.617 168.713,82.607 168.694,82.593 168.67,82.575 168.721,82.614 168.808,82.657 168.867,82.684 168.87,82.685 168.871,82.685 168.874,82.686 168.778,82.575 168.963,82.723 168.874,82.686 168.881,82.693 168.884,82.699 168.894,82.709 168.915,82.732 168.938,82.757 168.961,82.778 168.955,82.768 168.949,82.758 168.943,82.749 168.949,82.759 169.083,82.884 168.963,82.779 168.962,82.779 168.962,82.778 168.961,82.778 168.991,82.833 169.032,82.887 169.064,82.941 169.076,82.96 169.083,82.973 169.09,82.982 169.063,82.877 169.146,83.063 169.09,82.982 169.093,82.996 169.096,83.006 169.103,83.027 169.164,83.224 169.217,83.463 169.225,83.596 169.288,84.465 169.083,85.33 168.823,86.156 168.357,87.104 167.972,88.092 167.645,89.097 167.006,90.431 166.351,91.76 165.571,93.018 165.14,93.898 164.682,94.766 164.15,95.589 163.816,96.306 163.518,97.032 163.335,97.8 163.126,98.673 164.302,99.181 164.782,98.41 166.97,94.893 169.355,91.329 172.419,88.505 173.014,87.958 173.639,87.444 174.323,87.009 174.647,86.804 175.507,86.198 175.899,86.301 175.899,86.289 175.901,86.277 175.901,86.266 175.901,86.287 175.909,86.297 175.919,86.305 175.942,86.313 175.965,86.324 175.983,86.338 175.964,86.323 175.936,86.321 175.919,86.305 175.912,86.304 175.906,86.302 175.899,86.301 175.898,86.484 175.871,86.671 175.843,86.852 175.763,87.368 175.641,87.877 175.511,88.382 175.319,89.125 175.09,89.86 174.939,90.613 174.686,91.882 174.462,93.177 174.459,94.475 174.457,95.749 174.674,97.336 175.893,98.035 177.115,98.737 178.681,98.211 179.865,97.695 181.057,97.176 182.185,96.474 183.192,95.654 183.321,95.549 183.443,95.437 183.563,95.323 184.028,96.374 184.77,97.254 185.974,97.578 187.38,97.955 188.899,97.607 190.159,96.942 192.029,95.956 193.512,94.314 194.751,92.548 194.666,92.976 194.604,93.407 194.594,93.842 194.554,95.587 195.473,97.517 197.393,97.687 199.126,97.84 200.779,96.645 202.136,95.721 202.489,95.481 202.647,95.025 202.421,94.638 202.216,94.288 201.692,94.112 201.337,94.354 200.315,95.049 199.127,95.959 197.886,96.103 197.318,96.169 196.892,96.006 196.559,95.485 196.183,94.896 196.134,94.166 196.197,93.487 196.271,92.719 196.511,91.948 196.709,91.205 196.915,90.424 197.143,89.651 197.394,88.884 197.63,88.158 197.887,87.439 198.158,86.726 198.213,86.582 198.271,86.439 198.328,86.296 198.886,86.233 199.443,86.171 200.003,86.12 202.051,85.933 204.026,85.427 206.047,85.073 206.468,84.999 206.706,84.483 206.601,84.099 206.478,83.654 206.049,83.472 205.626,83.546 203.7,83.883 201.819,84.369 199.868,84.55 199.579,84.576 199.293,84.606 199.005,84.637 199.022,84.595 199.04,84.551 199.058,84.509 199.915,82.516 200.848,80.559 201.781,78.602 201.298,78.399 200.816,78.195 200.334,77.992 199.435,80.32 198.402,82.593 197.301,84.832 196.637,84.912 195.973,84.996 195.308,85.078 194.884,85.13 194.516,85.405 194.516,85.87 194.516,86.257 194.882,86.714 195.308,86.661 195.694,86.613 196.079,86.565 196.465,86.518 195.334,88.728 194.103,90.941 192.503,92.851 191.732,93.773 190.871,94.651 189.854,95.29 188.944,95.862 188.005,96.192 186.959,96.138 185.748,96.076 185.151,95.274 184.817,94.191 184.815,94.183 184.813,94.175 184.811,94.168 185.213,93.821 185.619,93.48 186.025,93.138 187.114,92.216 188.293,91.248 189.027,90.002 189.34,89.47 189.567,88.848 189.524,88.223 189.478,87.582 189.086,86.566 188.397,86.369 187.135,86.009 185.774,86.627 184.932,87.555 184.076,88.497 183.534,89.719 183.221,90.942 182.986,91.857 182.902,92.721 183.051,93.624 182.769,93.897 182.493,94.18 182.194,94.434 181.965,94.628 181.976,94.616 181.705,94.812 181.416,95.02 181.118,95.217 180.817,95.403 180.235,95.764 179.595,96.115 178.981,96.361 178.37,96.608 177.755,96.792 177.2,96.781 177.137,96.779 177.074,96.775 177.012,96.769 177.043,96.775 177.054,96.777 176.97,96.765 176.984,96.768 176.998,96.768 177.012,96.769 176.985,96.763 176.944,96.755 176.927,96.751 176.87,96.733 176.813,96.72 176.757,96.702 176.751,96.7 176.75,96.7 176.746,96.697 176.795,96.73 176.59,96.646 176.746,96.697 176.737,96.692 176.722,96.683 176.692,96.668 176.694,96.669 176.636,96.631 176.603,96.61 176.625,96.632 176.636,96.644 176.599,96.614 176.562,96.586 176.576,96.593 176.603,96.61 176.571,96.581 176.515,96.532 176.517,96.535 176.401,96.415 176.444,96.459 176.338,96.271 176.245,96.104 176.164,95.802 176.11,95.504 176.064,95.255 176.041,94.814 176.043,94.475 176.045,93.223 176.245,92.109 176.495,90.886 176.678,89.998 176.968,89.134 177.173,88.251 177.388,87.337 177.811,86.014 177.079,85.231 175.816,83.881 173.654,85.484 172.568,86.319 171.309,87.287 170.189,88.422 169.15,89.625"
         id="path602"
         transform="translate(32.537325,458.68695)" />
      <rect
         x="112.141"
         y="56.624001"
         clip-path="url(#SVGID_90_)"
         fill="#00568d"
         width="7.9349999"
         height="15.791"
         id="rect602"
         transform="translate(32.537325,458.68695)" />
      <rect
         x="124.802"
         y="39.952999"
         clip-path="url(#SVGID_90_)"
         fill="#3bb9cd"
         width="7.9349999"
         height="32.462002"
         id="rect603"
         transform="translate(32.537325,458.68695)" />
      <rect
         x="137.12399"
         y="49.380001"
         clip-path="url(#SVGID_90_)"
         fill="#00568d"
         width="7.9349999"
         height="23.035"
         id="rect604"
         transform="translate(32.537325,458.68695)" />
    </g>
  </g>
</svg>
