<?xml version="1.0" encoding="UTF-8" standalone="no"?>
<!-- Created with Inkscape (http://www.inkscape.org/) -->

<svg
   width="381mm"
   height="104.58172mm"
   viewBox="0 0 381 104.58172"
   version="1.1"
   id="svg1"
   inkscape:version="1.4 (e7c3feb100, 2024-10-09)"
   sodipodi:docname="stroke.svg"
   xmlns:inkscape="http://www.inkscape.org/namespaces/inkscape"
   xmlns:sodipodi="http://sodipodi.sourceforge.net/DTD/sodipodi-0.dtd"
   xmlns:xlink="http://www.w3.org/1999/xlink"
   xmlns="http://www.w3.org/2000/svg"
   xmlns:svg="http://www.w3.org/2000/svg">
  <sodipodi:namedview
     id="namedview1"
     pagecolor="#ffffff"
     bordercolor="#000000"
     borderopacity="0.25"
     inkscape:showpageshadow="2"
     inkscape:pageopacity="0.0"
     inkscape:pagecheckerboard="0"
     inkscape:deskcolor="#d1d1d1"
     inkscape:document-units="mm"
     inkscape:zoom="0.37549453"
     inkscape:cx="139.81562"
     inkscape:cy="86.552526"
     inkscape:window-width="1920"
     inkscape:window-height="1052"
     inkscape:window-x="0"
     inkscape:window-y="0"
     inkscape:window-maximized="1"
     inkscape:current-layer="layer1" />
  <defs
     id="defs1">
    <clipPath
       id="SVGID_54_">
			<rect
   id="use99"
   y="-0.0040000002"
   width="1366"
   height="4771.8838"
   x="0" />

		</clipPath>
    <clipPath
       id="SVGID_56_">
					<use
   xlink:href="#SVGID_55_"
   overflow="visible"
   id="use100" />

				</clipPath>
    <rect
       id="SVGID_55_"
       x="-134.30099"
       y="691.09998"
       width="1504.131"
       height="374.95999" />
  </defs>
  <g
     inkscape:label="Layer 1"
     inkscape:groupmode="layer"
     id="layer1">
    <g
       opacity="0.25"
       clip-path="url(#SVGID_54_)"
       id="g101"
       transform="matrix(0.27891654,0,0,0.27891654,0,-192.75921)"
       style="stroke-width:0.948611">
			<g
   id="g100"
   style="stroke-width:0.948611">
				<defs
   id="defs100">
					<rect
   id="rect1"
   x="-134.30099"
   y="691.09998"
   width="1504.131"
   height="374.95999" />

				</defs>

				<clipPath
   id="clipPath1">
					<use
   xlink:href="#SVGID_55_"
   overflow="visible"
   id="use1" />

				</clipPath>

				<path
   clip-path="url(#SVGID_56_)"
   fill="#ffffff"
   d="M 1364.77,986.005 C 1353.817,1000.462 1338.597,1012.192 1318.984,1016.871 1300.213,1021.349 1280.107,1019.368 1261.637,1014.78 1214.494,1003.067 1172.542,976.774 1135.07,950.332 1097.208,923.615 1062.09,894.017 1028.787,863.15 1016.876,852.109 1005.166,840.895 993.807,829.43 967.998,803.383 944.328,775.716 916.542,751.156 890.853,728.451 860.862,707.295 825.485,697.154 798.275,689.356 768.568,688.67 741.586,697.557 715.111,706.276 693.414,723.515 679.109,744.421 662.335,768.934 655.403,797.614 653.955,825.88 638.849,815.081 623.142,804.942 606.29,796.07 575.531,779.88 542.141,767.429 507.416,759.116 438.674,742.662 365.074,742.465 296.62,760.133 285.346,763.044 274.317,766.612 263.455,770.508 253.055,774.236 242.578,777.88 232.231,781.701 212.221,789.184 193.584,799.169 176.103,810.362 162.549,819.041 149.658,828.466 137.126,838.212 96.283,869.979 61.258,905.862 26.013,941.355 -9.283,976.9 -46.69,1010.265 -91.758,1038.609 -105.042,1046.963 -118.922,1054.6 -133.335,1061.338 -133.675,1062.907 -133.994,1064.481 -134.3,1066.057 -110.1,1054.734 -87.552,1041.014 -66.539,1026.224 14.683,969.058 68.906,893.687 147.77,834.769 164.098,822.571 181.151,811.016 199.483,801.123 208.615,796.196 218.073,791.71 227.847,787.8 234.229,785.248 240.741,782.97 247.268,780.723 251.623,779.225 255.984,777.739 260.32,776.196 271.023,772.384 281.865,768.871 292.915,765.875 299.045,764.213 305.23,762.696 311.461,761.339 333.461,756.55 355.981,753.554 378.628,752.344 401.334,751.13 424.166,751.712 446.753,754.052 449.358,754.321 451.959,754.614 454.557,754.93 524.748,763.481 592.089,788.829 646.683,827.854 649.04,829.539 651.362,831.267 653.693,832.984 653.127,861.869 658.755,892.5 675.951,917.694 688.172,935.598 703.868,954.779 724.68,965.9 732.808,970.241 742.788,973.056 752.105,969.845 766.252,964.968 770.841,950.863 767.367,938.979 764.804,930.208 759.089,922.229 753.465,914.69 748.23,907.672 742.509,900.931 736.393,894.466 723.596,880.942 709.204,868.616 694.362,856.775 682.869,847.605 671.297,838.52 659.388,829.808 660.372,779.637 681.259,724.497 737.782,703.533 764.93,693.465 795.535,694.008 823.228,702.205 857.941,712.481 887.207,733.328 912.451,755.743 939.091,779.399 961.983,805.882 986.664,831.006 998.059,842.605 1009.836,853.93 1021.811,865.084 1053.518,894.613 1086.879,922.959 1122.641,948.847 1159.189,975.305 1199.31,1001.11 1244.427,1015.558 1279.58,1026.814 1319.664,1029.312 1349.863,1007.085 1357.41,1001.531 1363.765,994.847 1369.179,987.701 1371.564,984.55 1366.785,983.346 1364.77,986.005 M 689.62,860.785 C 703.771,872.073 717.51,883.8 729.848,896.591 736.368,903.352 742.507,910.401 748.026,917.797 753.562,925.216 759.38,933.163 761.809,941.821 764.043,949.791 762.837,959.993 753.745,964.505 749.807,966.459 745.163,966.692 740.788,965.906 729.64,963.907 720.071,956.549 712.294,949.802 703.065,941.798 694.99,932.765 687.765,923.37 670.865,901.398 662.398,876.586 660.078,850.294 659.7,846.008 659.481,841.633 659.396,837.209 669.634,844.913 679.668,852.847 689.62,860.785"
   id="path100"
   style="stroke-width:0.948611" />

			</g>

		</g>
  </g>
</svg>
