<svg id="svg1" width="495.5mm" height="76.2mm" version="1.1" viewBox="0 0 495.5 76.2" xml:space="preserve" xmlns="http://www.w3.org/2000/svg"><g id="layer1"><g id="g111" class="cls-87" transform="matrix(.2646 0 0 .2646 58.89 -657.2)" style="fill:#d5f1f4;opacity:.33"><path id="path110" class="cls-32" d="m1650 2665c-31.64-18.58-64.41-36.72-100.3-53.52-18.02-8.43-36.56-16.59-56.05-24.1-25.14-9.69-51.93-18.32-80.71-24.8-14.88-3.31-29.94-6.46-44.9-9.69-15.62-3.37-31.48-6.46-47.69-8.98-98.43-15.29-204.3-15.12-303.1-0.88-49.93 7.19-97.94 17.96-142.2 31.97-24.23 7.68-46.82 16.45-68.54 25.79-2.08-24.45-12.05-49.27-36.17-70.48-20.57-18.09-51.77-33-89.84-40.55-38.8-7.69-81.52-7.09-120.6-0.35-50.87 8.77-93.99 27.08-130.9 46.72-39.95 21.25-73.99 45.19-111.1 67.72-16.33 9.92-33.17 19.62-50.3 29.17-47.89 26.71-98.38 52.32-152.8 75.43-53.88 22.88-114.2 45.63-182 55.76-26.56 3.97-55.47 5.68-82.46 1.81-28.2-4.05-50.09-14.2-65.84-26.71-2.9-2.3-9.77-1.26-6.34 1.47 7.79 6.18 16.92 11.96 27.77 16.77 43.42 19.23 101.1 17.07 151.6 7.33 64.88-12.5 122.6-34.83 175.1-57.72 51.42-22.4 99.39-46.92 145-72.47 17.22-9.65 34.16-19.45 50.54-29.48 35.49-21.74 68.41-44.65 106.7-65.12 36.3-19.39 78.38-37.43 128.3-46.32 39.82-7.09 83.83-7.56 122.9 1.15 81.28 18.14 111.3 65.85 112.7 109.2-17.12 7.54-33.76 15.4-50.29 23.33-21.34 10.25-42.04 20.91-60.44 32.61-8.8 5.59-17.02 11.43-24.55 17.5-8.09 6.52-16.3 13.43-19.99 21.01-5 10.28 1.6 22.49 21.95 26.71 13.4 2.78 27.75 0.34 39.43-3.41 29.93-9.62 52.5-26.22 70.07-41.71 24.73-21.8 32.82-48.3 32.01-73.29 3.35-1.49 6.69-2.98 10.08-4.44 78.5-33.76 175.3-55.7 276.3-63.09 3.74-0.27 7.48-0.53 11.22-0.76 32.48-2.02 65.31-2.53 97.96-1.48 32.56 1.05 64.95 3.64 96.58 7.78 8.96 1.17 17.85 2.49 26.67 3.92 15.89 2.59 31.48 5.63 46.87 8.93 6.23 1.34 12.51 2.62 18.77 3.92 9.39 1.94 18.75 3.91 27.93 6.12 14.05 3.38 27.65 7.26 40.78 11.53 26.36 8.56 50.88 18.56 74.36 29.11 42.15 18.95 79.4 39.86 115.6 61.2 0.02-1.56 0.04-3.13 0.07-4.69zm-852.3-43.07c-3.33 22.75-15.51 44.22-39.81 63.23-10.39 8.13-22 15.94-35.27 22.87-11.18 5.84-24.94 12.2-40.97 13.93-6.29 0.68-12.97 0.48-18.63-1.21-13.08-3.9-14.81-12.73-11.6-19.63 3.49-7.49 11.86-14.37 19.82-20.79 7.93-6.4 16.76-12.5 26.14-18.35 17.74-11.07 37.49-21.21 57.84-30.98 14.31-6.87 28.74-13.73 43.46-20.4-0.12 3.83-0.44 7.61-0.98 11.32z" style="fill:#d5f1f4"/></g></g></svg>
