<?xml version="1.0" encoding="UTF-8"?>
<!-- Created with Inkscape (http://www.inkscape.org/) -->
<svg width="152.76mm" height="40.134mm" version="1.1" viewBox="0 0 152.76 40.134" xmlns="http://www.w3.org/2000/svg">
 <g transform="translate(1.6738 -11.217)">
  <path d="m-1.2674 35.662c0.42333 0.0132 0.84667 0.0238 1.2674 0.0318 11.417 0.1905 22.656-1.9923 32.081-6.3156 0.40746-0.18785 0.80962-0.381 1.2118-0.5715 0.39423-4.0005 1.8124-8.1201 4.998-11.263 2.2622-2.2331 5.1065-4.5746 8.636-5.7044 1.3785-0.44185 3.0295-0.635 4.4715-8e-3 2.1908 0.94985 2.6908 2.9871 1.9315 4.5614-0.55827 1.1615-1.6113 2.1511-2.6405 3.0824-0.95779 0.86783-1.9897 1.6854-3.0824 2.458-2.2834 1.6166-4.7995 3.0374-7.3845 4.3841-2.0002 1.0425-4.0111 2.069-6.0695 3.0401-0.68527 6.948 1.7436 14.97 10.467 18.971 4.191 1.9209 9.1149 2.4448 13.7 1.8521 5.7467-0.74083 10.798-3.048 15.229-5.6488 4.6752-2.7464 8.7974-5.9558 13.184-8.9429 2.0241-1.3785 4.1063-2.712 6.2177-4.019 5.588-3.4581 11.422-6.7204 17.6-9.5964 6.313-2.9395 13.189-5.7176 20.68-6.8315 5.8341-0.86783 12.314-0.42862 16.79 3.2306 1.1192 0.91545 2.0267 1.9606 2.7755 3.0533 0.33073 0.48154-0.45773 0.55562-0.73555 0.14816-1.5161-2.2093-3.7624-4.1275-6.8342-5.1567-2.9395-0.98425-6.2018-1.1033-9.2445-0.83079-7.7682 0.69586-14.946 3.5084-21.41 6.4267-6.5299 2.9501-12.666 6.35-18.534 9.9616-2.0982 1.2912-4.1672 2.6114-6.1833 3.974-4.5826 3.093-8.8477 6.4505-13.724 9.3001-4.5085 2.6326-9.6785 4.9689-15.531 5.678-4.5006 0.54504-9.2842 0.0582-13.467-1.696-4.1063-1.7224-7.2999-4.527-9.2445-7.6914-2.2807-3.7121-2.9131-7.8078-2.6696-11.74-2.6061 1.1959-5.2996 2.2886-8.1545 3.1856-5.2123 1.6351-10.784 2.7014-16.499 3.1697-4.6831 0.38365-4.7308 0.37571-9.4694-0.0423l-0.35719-0.44186zm40.796-9.9907c2.4633-1.2832 4.8657-2.6326 7.0617-4.1592 1.1615-0.80698 2.2648-1.6589 3.2755-2.5744 1.0134-0.91545 2.0823-1.8997 2.6167-3.048 0.49212-1.0557 0.47096-2.4897-0.91281-3.2888-0.6006-0.3466-1.3414-0.47096-2.0585-0.44714-1.823 0.0582-3.4846 0.88635-4.8472 1.6669-1.6166 0.92604-3.0639 2.0135-4.3841 3.1697-3.0824 2.704-4.8604 5.9637-5.6753 9.5488-0.13229 0.58473-0.24077 1.1853-0.33073 1.7939 1.7727-0.86254 3.519-1.7621 5.2493-2.6644z" fill="#3bb9cd" opacity=".2" stroke="#3bb9cd" stroke-miterlimit="10" stroke-width=".42598px"/>
 </g>
</svg>
