<?xml version="1.0" encoding="UTF-8" standalone="no"?>
<!-- Created with Inkscape (http://www.inkscape.org/) -->

<svg
   width="155.45399mm"
   height="61.95718mm"
   viewBox="0 0 155.45399 61.95718"
   version="1.1"
   id="svg1"
   inkscape:version="1.4 (e7c3feb100, 2024-10-09)"
   sodipodi:docname="stroke1m.svg"
   xmlns:inkscape="http://www.inkscape.org/namespaces/inkscape"
   xmlns:sodipodi="http://sodipodi.sourceforge.net/DTD/sodipodi-0.dtd"
   xmlns="http://www.w3.org/2000/svg"
   xmlns:svg="http://www.w3.org/2000/svg">
  <sodipodi:namedview
     id="namedview1"
     pagecolor="#ffffff"
     bordercolor="#000000"
     borderopacity="0.25"
     inkscape:showpageshadow="2"
     inkscape:pageopacity="0.0"
     inkscape:pagecheckerboard="0"
     inkscape:deskcolor="#d1d1d1"
     inkscape:document-units="mm"
     inkscape:zoom="0.7180275"
     inkscape:cx="396.22438"
     inkscape:cy="561.25984"
     inkscape:window-width="1920"
     inkscape:window-height="1015"
     inkscape:window-x="1920"
     inkscape:window-y="1080"
     inkscape:window-maximized="1"
     inkscape:current-layer="layer1" />
  <defs
     id="defs1" />
  <g
     inkscape:label="Layer 1"
     inkscape:groupmode="layer"
     id="layer1">
    <path
       d="M 0.1177823,11.873442 C 0.5543463,11.923713 0.9935553,11.97663 1.4301193,12.034838 13.222633,13.614401 24.536248,18.292234 33.709379,25.496838 34.106255,25.809046 34.495193,26.126546 34.886778,26.444046 34.791528,31.7754 35.736093,37.432192 38.625351,42.08357 40.678524,45.38821 43.316428,48.93098 46.811583,50.98415 48.176837,51.78584 49.854301,52.30442 51.417992,51.71175 53.793964,50.81217 54.566544,48.20867 53.981814,46.01263 53.550544,44.39338 52.5901,42.91965 51.645535,41.527942 50.767115,40.231484 49.80403,38.987942 48.777444,37.794671 46.626374,35.297005 44.210721,33.021588 41.715693,30.83613 39.78423,29.142796 37.839537,27.465338 35.839281,25.856671 36.003323,16.593609 39.514354,6.415088 49.010277,2.544234 53.571714,0.684213 58.712574,0.784755 63.366604,2.298172 69.198044,4.195234 74.116664,8.044922 78.357944,12.183005 82.834704,16.551276 86.679114,21.43813 90.825144,26.078921 92.740734,28.2194 94.717184,30.312255 96.730664,32.370713 102.05674,37.82113 107.66327,43.05459 113.67198,47.83561 119.81298,52.71982 126.55194,57.48496 134.13227,60.15196 140.03779,62.22894 146.77145,62.69196 151.84617,58.58828 153.11354,57.56169 154.18245,56.32873 155.09262,55.00846 155.49479,54.42638 154.69045,54.20413 154.35179,54.69625 152.51028,57.3659 149.9544,59.53019 146.66033,60.39538 143.50649,61.22088 140.12775,60.85575 137.02682,60.00909 129.10782,57.84744 122.0593,52.99234 115.7622,48.11078 109.40159,43.17894 103.50137,37.715296 97.905424,32.016171 95.905164,29.97888 93.936654,27.907192 92.029004,25.790526 87.692474,20.983046 83.715774,15.873942 79.048514,11.338984 74.733144,7.147984 69.692814,3.240088 63.750264,1.369484 59.178244,-0.069849 54.188194,-0.196849 49.653216,1.443567 45.205558,3.052234 41.559589,6.235172 39.157166,10.095442 36.339345,14.619817 35.175175,19.916776 34.931758,25.134359 32.394396,23.139401 29.753847,21.268796 26.922797,19.631026 21.755469,16.641234 16.146286,14.344651 10.312207,12.807422 5.5338183,11.550651 5.4835473,11.553297 0.5437633,11.346922 L 0.1204283,11.873442 Z M 40.919296,31.579609 C 43.297907,33.664525 45.605079,35.828817 47.676773,38.1889 48.772152,39.437734 49.80403,40.739484 50.730074,42.10473 51.66141,43.47528 52.637725,44.94107 53.045194,46.53915 53.420894,48.01023 53.217164,49.89407 51.690514,50.7275 51.029054,51.08734 50.248531,51.13232 49.512987,50.9868 47.639731,50.61903 46.031061,49.25907 44.726661,48.01288 43.176197,46.53386 41.818882,44.86698 40.60444,43.13396 37.765453,39.0779 36.341991,34.497963 35.953052,29.642859 35.889552,28.851755 35.85251,28.044775 35.839281,27.227213 37.559077,28.650671 39.244478,30.113817 40.91665,31.579609 Z"
       style="opacity:0.2;isolation:isolate;fill:#ffffff;stroke:#ffffff;stroke-width:0.502708px;stroke-miterlimit:10"
       id="path87" />
  </g>
</svg>
