<?xml version="1.0" encoding="UTF-8" standalone="no"?>
<!-- Created with Inkscape (http://www.inkscape.org/) -->

<svg
   width="168.282mm"
   height="61.976997mm"
   viewBox="0 0 168.282 61.976997"
   version="1.1"
   id="svg1"
   inkscape:version="1.4 (e7c3feb100, 2024-10-09)"
   sodipodi:docname="stroke-blue.svg"
   xmlns:inkscape="http://www.inkscape.org/namespaces/inkscape"
   xmlns:sodipodi="http://sodipodi.sourceforge.net/DTD/sodipodi-0.dtd"
   xmlns="http://www.w3.org/2000/svg"
   xmlns:svg="http://www.w3.org/2000/svg">
  <sodipodi:namedview
     id="namedview1"
     pagecolor="#ffffff"
     bordercolor="#000000"
     borderopacity="0.25"
     inkscape:showpageshadow="2"
     inkscape:pageopacity="0.0"
     inkscape:pagecheckerboard="0"
     inkscape:deskcolor="#d1d1d1"
     inkscape:document-units="mm"
     inkscape:zoom="0.7180275"
     inkscape:cx="396.22438"
     inkscape:cy="561.25984"
     inkscape:window-width="1920"
     inkscape:window-height="1015"
     inkscape:window-x="1920"
     inkscape:window-y="1080"
     inkscape:window-maximized="1"
     inkscape:current-layer="layer1" />
  <defs
     id="defs1" />
  <g
     inkscape:label="Layer 1"
     inkscape:groupmode="layer"
     id="layer1">
    <path
       d="M 167.75726,11.882832 C 167.28366,11.933102 166.8127,11.986012 166.34174,12.044222 153.6047,13.623782 141.38624,18.301622 131.48024,25.506222 131.05162,25.818432 130.63093,26.135932 130.2076,26.453432 130.31078,31.784782 129.28949,37.441572 126.17006,42.092952 123.95285,45.397602 121.10593,48.940372 117.32768,50.993532 115.85395,51.795222 114.04156,52.313802 112.35087,51.721142 109.78441,50.821552 108.95097,48.218052 109.58068,46.022012 110.04635,44.402762 111.08351,42.929032 112.10216,41.537322 113.05201,40.240872 114.08918,38.997322 115.20043,37.804052 117.52347,35.306392 120.13491,33.030972 122.82572,30.845512 124.91064,29.152182 127.01143,27.474722 129.17043,25.866052 128.99316,16.602992 125.20168,6.4244722 114.94643,2.5536222 110.01989,0.69360223 104.46629,0.79414223 99.441854,2.3075522 93.142124,4.2046222 87.831934,8.0543022 83.251998,12.192392 78.41806,16.560662 74.264102,21.447512 69.787352,26.088302 67.720956,28.228782 65.583123,30.321642 63.410894,32.380102 57.658852,37.830512 51.605186,43.063972 45.114956,47.844992 38.484498,52.729202 31.203165,57.494352 23.016957,60.161352 16.637853,62.238322 9.364457,62.701352 3.884936,58.597662 2.514395,57.571072 1.363457,56.338122 0.37920695,55.017852 -0.05471005,54.435762 0.81312395,54.213512 1.178249,54.705642 3.165269,57.375282 5.927519,59.539572 9.486165,60.404762 12.891353,61.230262 16.539957,60.865142 19.892228,60.018472 28.446207,57.856822 36.058269,53.001722 42.858061,48.120162 49.726644,43.188322 56.100456,37.724682 62.14354,32.025552 64.305185,29.988262 66.42979,27.916572 68.490894,25.799912 73.174019,20.992432 77.468206,15.883322 82.511164,11.348372 87.173124,7.1573722 92.612954,3.2494722 99.034394,1.3788722 103.97151,-0.06046777 109.36108,-0.18746777 114.25851,1.4529522 119.06335,3.0616222 123.00035,6.2445522 125.59591,10.104832 128.63862,14.629202 129.89803,19.926162 130.15997,25.143742 132.90106,23.148782 135.75062,21.278182 138.8092,19.640412 144.38926,16.650622 150.44822,14.354032 156.7506,12.816802 161.90997,11.560032 161.96553,11.562682 167.29953,11.356302 Z M 123.69091,31.586352 C 121.12445,33.671262 118.62943,35.835552 116.39106,38.195642 115.20837,39.444472 114.09447,40.746222 113.0917,42.111472 112.08628,43.482012 111.0306,44.947802 110.59139,46.545892 110.18658,48.016972 110.40353,49.900802 112.05453,50.734242 112.76891,51.094072 113.61293,51.139052 114.40668,50.993532 116.43074,50.625762 118.16641,49.265802 119.57664,48.019622 121.25145,46.543242 122.71724,44.873722 124.02693,43.140702 127.09345,39.084642 128.63068,34.504702 129.05137,29.649602 129.12016,28.858492 129.15985,28.051512 129.17572,27.233952 127.31835,28.657412 125.49801,30.120552 123.69091,31.586352 Z"
       style="opacity:0.2;isolation:isolate;fill:#3bb9cd;stroke:#3bb9cd;stroke-width:0.521229px;stroke-miterlimit:10"
       id="path330" />
  </g>
</svg>
