<?xml version="1.0" encoding="UTF-8"?>
<!-- Created with Inkscape (http://www.inkscape.org/) -->
<svg width="170.44mm" height="56.681mm" version="1.1" viewBox="0 0 170.44 56.681" xmlns="http://www.w3.org/2000/svg">
 <g transform="translate(.93917 -4.0033)">
  <path d="m-0.42702 45.305c0.47569-0.023237 0.9489-0.049259 1.4224-0.080573 12.806-0.85216 25.271-4.8271 35.571-11.456 0.44569-0.28731 0.88377-0.58036 1.3245-0.87325 0.20038-5.3286 1.5419-10.918 4.921-15.384 2.4017-3.1731 5.4456-6.5481 9.3346-8.383 1.517-0.71652 3.3559-1.1311 5.0102-0.44321 2.5111 1.0442 3.195 3.6909 2.4414 5.8475-0.55706 1.5901-1.6764 3.0024-2.7726 4.3339-1.0221 1.2403-2.1283 2.4228-3.3057 3.5509-2.4614 2.3614-5.1981 4.4845-8.0089 6.5133-2.1779 1.5719-4.3708 3.1271-6.6178 4.6103-0.35016 9.2581 2.8559 19.636 12.874 24.084 4.8127 2.1374 10.363 2.353 15.465 1.128 6.3975-1.5355 11.918-5.0767 16.726-8.9475 5.0747-4.0861 9.5-8.7286 14.234-13.107 2.1849-2.0194 4.4383-3.9872 6.7242-5.9187 6.0529-5.1142 12.395-9.9947 19.146-14.399 6.8977-4.499 14.438-8.842 22.763-11.039 6.487-1.7106 13.775-1.7589 19.012 2.6499 1.3099 1.1029 2.3888 2.3994 3.2963 3.7735 0.40009 0.60584-0.47899 0.77834-0.81552 0.26623-1.8319-2.7784-4.4665-5.0964-7.9701-6.1627-3.3527-1.0179-7.0162-0.86105-10.411-0.20653-8.6631 1.6714-16.539 6.0854-23.606 10.572-7.1381 4.533-13.813 9.625-20.17 14.971-2.2741 1.911-4.5131 3.8584-6.6914 5.8543-4.9491 4.5332-9.5271 9.3896-14.82 13.63-4.8929 3.9189-10.546 7.5109-17.064 9.013-5.011 1.156-10.399 0.97613-15.195-0.94034-4.7055-1.8795-8.455-5.2813-10.827-9.2831-2.7803-4.6902-3.7362-10.05-3.7008-15.274-2.8502 1.8357-5.8016 3.5411-8.9484 5.0022-5.7412 2.6674-11.921 4.6155-18.301 5.7915-5.2225 0.96112-5.2778 0.95532-10.615 0.85781zm45.116-17.164c2.6809-1.9355 5.2951-3.9543 7.6641-6.1832 1.2518-1.1795 2.438-2.4158 3.5169-3.7217 1.0818-1.3111 2.2192-2.7144 2.7486-4.2849 0.48787-1.4457 0.37848-3.3388-1.2224-4.2648-0.69274-0.3999-1.5328-0.49284-2.3336-0.39273-2.0417 0.25199-3.852 1.511-5.3308 2.6749-1.7561 1.3787-3.3145 2.9621-4.7207 4.6178-3.2924 3.875-5.0877 8.36-5.7841 13.183-0.1137 0.78591-0.19925 1.5893-0.26162 2.4047 1.9354-1.3155 3.836-2.6726 5.7236-4.0332z" fill="#3bb9cd" opacity=".2" stroke="#3bb9cd" stroke-miterlimit="10" stroke-width=".52123px" style="isolation:isolate"/>
 </g>
</svg>
