<?xml version="1.0" encoding="UTF-8" standalone="no"?>
<!-- Created with Inkscape (http://www.inkscape.org/) -->

<svg
   width="159.85944mm"
   height="60.283154mm"
   viewBox="0 0 159.85944 60.283154"
   version="1.1"
   id="svg1"
   inkscape:version="1.4 (e7c3feb100, 2024-10-09)"
   sodipodi:docname="stroke-offer-m.svg"
   xmlns:inkscape="http://www.inkscape.org/namespaces/inkscape"
   xmlns:sodipodi="http://sodipodi.sourceforge.net/DTD/sodipodi-0.dtd"
   xmlns="http://www.w3.org/2000/svg"
   xmlns:svg="http://www.w3.org/2000/svg">
  <sodipodi:namedview
     id="namedview1"
     pagecolor="#ffffff"
     bordercolor="#000000"
     borderopacity="0.25"
     inkscape:showpageshadow="2"
     inkscape:pageopacity="0.0"
     inkscape:pagecheckerboard="0"
     inkscape:deskcolor="#d1d1d1"
     inkscape:document-units="mm"
     inkscape:zoom="0.7180275"
     inkscape:cx="396.22438"
     inkscape:cy="561.25984"
     inkscape:window-width="1920"
     inkscape:window-height="1015"
     inkscape:window-x="1920"
     inkscape:window-y="1080"
     inkscape:window-maximized="1"
     inkscape:current-layer="layer1" />
  <defs
     id="defs1" />
  <g
     inkscape:label="Layer 1"
     inkscape:groupmode="layer"
     id="layer1">
    <path
       d="M 0.5448867,56.293069 C 0.9999707,56.205759 1.4524077,56.115799 1.9074907,56.020549 14.141825,53.483199 25.61945,48.445529 34.641741,41.558429 35.030679,41.262089 35.414324,40.957819 35.79797,40.656199 35.25822,36.282629 35.784741,31.536008 38.430574,27.408508 40.311762,24.474279 42.78297,21.288696 46.280762,19.232883 47.646012,18.431196 49.360512,17.827946 51.051199,18.150738 53.617658,18.640217 54.641595,20.701321 54.210324,22.563988 53.892824,23.939821 53.00647,25.252154 52.130699,26.495696 51.315783,27.651925 50.410908,28.776404 49.431949,29.866487 47.384074,32.14455 45.034574,34.269154 42.600408,36.330259 40.716574,37.925699 38.81422,39.507899 36.851012,41.039839 37.787637,48.636029 42.30672,56.634379 52.583137,58.817199 57.517616,59.864949 62.901887,59.243179 67.656452,57.507509 73.614862,55.335279 78.454092,51.654929 82.557782,47.805239 86.891662,43.743879 90.519092,39.322699 94.485202,35.073489 96.316112,33.112925 98.218472,31.184112 100.15786,29.281758 105.29343,24.241446 110.73855,19.3493 116.64405,14.787883 122.6792,10.125925 129.35463,5.5010094 137.08311,2.5112174 143.10503,0.18288437 150.12707,-0.90455363 155.78651,1.9344254 157.19938,2.6435094 158.42176,3.5457384 159.48538,4.5352794 159.9537,4.9718424 159.13084,5.2390714 158.73397,4.8713004 156.58555,2.8710504 153.7254,1.3602794 150.19851,0.99780037 146.82243,0.65119637 143.3114,1.3047174 140.12847,2.3286544 132.00311,4.9400924 125.01282,9.6708424 118.81363,14.346029 112.55095,19.068842 106.81478,24.180592 101.41728,29.453737 99.485822,31.340217 97.594052,33.247862 95.768432,35.189909 91.619762,39.597859 87.870612,44.214839 83.348882,48.432299 79.168472,52.332259 74.207532,56.073469 68.130052,58.235109 63.454866,59.899339 58.231991,60.529049 53.345137,59.655929 48.548241,58.801319 44.463074,56.568239 41.626741,53.649879 38.298283,50.226179 36.641991,45.998129 35.954074,41.733049 33.456408,43.638049 30.84497,45.455739 28.011283,47.098799 22.838679,50.099179 17.147491,52.578319 11.154679,54.454219 6.2493037,55.988799 6.1963867,55.991449 1.0343667,56.682009 Z M 41.706116,35.803739 C 44.026512,33.840529 46.267533,31.819112 48.246616,29.660112 49.29172,28.519758 50.265387,27.339717 51.125283,26.119987 51.987824,24.897612 52.892699,23.587925 53.186387,22.230613 53.458908,20.981779 53.091137,19.455133 51.421616,18.931258 50.699303,18.703717 49.876449,18.751342 49.117095,18.947133 47.182991,19.447196 45.60872,20.733071 44.341366,21.894592 42.838533,23.273071 41.552658,24.786487 40.422887,26.339592 37.779699,29.972321 36.665804,33.888154 36.657866,37.917759 36.657866,38.573929 36.684324,39.243319 36.737241,39.915359 38.422637,38.565989 40.070991,37.184859 41.70347,35.803739 Z"
       style="opacity:0.15;isolation:isolate;fill:#ffffff;stroke:#ffffff;stroke-width:0.468313px;stroke-miterlimit:10"
       id="path88" />
  </g>
</svg>
