<?xml version="1.0" encoding="UTF-8" standalone="no"?>
<!-- Created with Inkscape (http://www.inkscape.org/) -->

<svg
   width="206.8506mm"
   height="64.148193mm"
   viewBox="0 0 206.8506 64.148193"
   version="1.1"
   id="svg1"
   inkscape:version="1.4 (e7c3feb100, 2024-10-09)"
   sodipodi:docname="stroke2m.svg"
   xmlns:inkscape="http://www.inkscape.org/namespaces/inkscape"
   xmlns:sodipodi="http://sodipodi.sourceforge.net/DTD/sodipodi-0.dtd"
   xmlns="http://www.w3.org/2000/svg"
   xmlns:svg="http://www.w3.org/2000/svg">
  <sodipodi:namedview
     id="namedview1"
     pagecolor="#ffffff"
     bordercolor="#000000"
     borderopacity="0.25"
     inkscape:showpageshadow="2"
     inkscape:pageopacity="0.0"
     inkscape:pagecheckerboard="0"
     inkscape:deskcolor="#d1d1d1"
     inkscape:document-units="mm"
     inkscape:zoom="0.7180275"
     inkscape:cx="396.22438"
     inkscape:cy="561.25984"
     inkscape:window-width="1920"
     inkscape:window-height="1015"
     inkscape:window-x="1920"
     inkscape:window-y="1080"
     inkscape:window-maximized="1"
     inkscape:current-layer="layer1" />
  <defs
     id="defs1" />
  <g
     inkscape:label="Layer 1"
     inkscape:groupmode="layer"
     id="layer1">
    <path
       d="M 1.0936703,19.298912 C 2.3345663,21.137762 4.2157533,22.780822 6.8324823,23.754492 9.3380863,24.685822 12.147961,24.945122 14.783211,24.878972 21.506274,24.709642 27.784837,22.825802 33.449566,20.817622 39.172503,18.790912 44.570003,16.380552 49.742607,13.792932 51.592044,12.866892 53.417669,11.917032 55.198315,10.930142 59.24644,8.6917617 63.029982,6.2232017 67.321523,4.1938517 71.290273,2.3179517 75.822586,0.71193166 80.892002,0.43676166 84.79196,0.22510166 88.903585,0.85216166 92.459585,2.4608217 95.949439,4.0403917 98.619085,6.4375117 100.20129,9.0595317 102.05602,12.136642 102.47671,15.435992 102.14863,18.560722 104.43463,17.735222 106.79206,16.999682 109.28179,16.425532 113.82734,15.380432 118.66656,14.806282 123.61427,14.718972 133.40386,14.541702 143.56121,16.256202 152.67611,19.804262 154.1763,20.388992 155.63151,21.039872 157.05761,21.722492 158.42286,22.376012 159.79869,23.021602 161.15601,23.683052 163.77538,24.974222 166.16192,26.506162 168.36326,28.141282 170.06982,29.411282 171.67319,30.744782 173.21836,32.107392 178.25867,36.544452 182.41792,41.296372 186.61686,46.008602 190.82109,50.728762 195.35869,55.258432 201.04459,59.422972 202.72205,60.650642 204.49211,61.812162 206.35478,62.889012 206.3733,63.068932 206.38653,63.248842 206.39976,63.428762 203.27238,61.619012 200.42017,59.587012 197.79815,57.472992 187.66196,49.305302 181.59242,39.782952 171.81607,31.480322 169.79201,29.760532 167.65417,28.096302 165.31261,26.580242 164.1458,25.826182 162.92342,25.111802 161.64813,24.452992 160.81469,24.024372 159.96009,23.619552 159.10019,23.220032 158.52869,22.952802 157.95455,22.688222 157.38569,22.415702 155.98076,21.746302 154.54936,21.106012 153.08092,20.518642 152.26601,20.193202 151.44051,19.880992 150.60707,19.584662 147.66226,18.542202 144.61161,17.682302 141.51069,17.015552 138.40184,16.346162 135.24007,15.872552 132.08094,15.594742 131.71581,15.562992 131.35334,15.533892 130.98821,15.507432 121.14571,14.785122 111.37994,15.967802 103.11965,18.947012 102.76246,19.076662 102.41056,19.208952 102.05602,19.343892 101.593,22.516242 100.24363,25.733572 97.402002,28.080432 95.380585,29.749952 92.85646,31.477682 89.77671,32.202642 88.575502,32.485742 87.144106,32.557182 85.919085,31.985682 84.059065,31.117852 83.688648,29.466852 84.389794,28.249762 84.908377,27.350182 85.845002,26.614642 86.763106,25.921432 87.61771,25.278492 88.533169,24.675242 89.496252,24.111682 91.515023,22.934282 93.729585,21.926222 95.99971,20.981662 97.756544,20.251412 99.52396,19.529102 101.32842,18.857052 102.13011,13.348432 100.28067,6.8264517 92.874981,3.1990117 89.318981,1.4580517 85.085648,0.79395166 81.111606,1.0373717 76.129502,1.3416417 71.703023,2.9317817 67.800419,4.7865117 63.683502,6.7444317 60.029607,9.0992217 56.153461,11.266162 54.364878,12.266282 52.528669,13.226722 50.668648,14.163352 45.742107,16.645142 40.609191,18.957602 35.19317,20.944622 29.655441,22.973972 23.638816,24.849872 17.143295,25.365802 12.084461,25.767972 6.5070453,25.093282 2.7578993,21.950032 1.8212743,21.164222 1.0698573,20.283162 0.45602433,19.375642 0.18614933,18.976122 0.86877433,18.954952 1.0963163,19.293622 Z M 96.576502,21.539932 C 94.41221,22.439512 92.29819,23.397302 90.356148,24.505912 89.329565,25.090642 88.350606,25.717702 87.451023,26.395032 86.548794,27.075012 85.596294,27.807912 85.101523,28.696912 84.643794,29.514472 84.619981,30.660122 85.78944,31.366552 86.29744,31.673472 86.93244,31.808412 87.551565,31.824282 89.125835,31.869262 90.58369,31.289822 91.784898,30.736852 93.208356,30.078032 94.491585,29.281642 95.663689,28.424392 98.407419,26.421492 100.03725,23.907952 100.84952,21.087492 100.98181,20.627122 101.09294,20.153512 101.18819,19.671972 99.632439,20.272572 98.097856,20.902282 96.576502,21.537282 Z"
       style="opacity:0.15;isolation:isolate;fill:#ffffff;stroke:#ffffff;stroke-width:0.79375px;stroke-miterlimit:10"
       id="path86" />
  </g>
</svg>
