<?xml version="1.0" encoding="UTF-8" standalone="no"?>
<!-- Created with Inkscape (http://www.inkscape.org/) -->

<svg
   width="206.8506mm"
   height="64.148201mm"
   viewBox="0 0 206.8506 64.148201"
   version="1.1"
   id="svg1"
   inkscape:version="1.4 (e7c3feb100, 2024-10-09)"
   sodipodi:docname="stroke-hero2-m.svg"
   xmlns:inkscape="http://www.inkscape.org/namespaces/inkscape"
   xmlns:sodipodi="http://sodipodi.sourceforge.net/DTD/sodipodi-0.dtd"
   xmlns="http://www.w3.org/2000/svg"
   xmlns:svg="http://www.w3.org/2000/svg">
  <sodipodi:namedview
     id="namedview1"
     pagecolor="#ffffff"
     bordercolor="#000000"
     borderopacity="0.25"
     inkscape:showpageshadow="2"
     inkscape:pageopacity="0.0"
     inkscape:pagecheckerboard="0"
     inkscape:deskcolor="#d1d1d1"
     inkscape:document-units="mm"
     inkscape:zoom="0.75098906"
     inkscape:cx="397.47583"
     inkscape:cy="348.20747"
     inkscape:window-width="2560"
     inkscape:window-height="1052"
     inkscape:window-x="1920"
     inkscape:window-y="0"
     inkscape:window-maximized="1"
     inkscape:current-layer="layer1" />
  <defs
     id="defs1" />
  <g
     inkscape:label="Layer 1"
     inkscape:groupmode="layer"
     id="layer1">
    <path
       d="M 1.0936704,19.29891 C 2.3345664,21.137764 4.2157534,22.780827 6.8324824,23.754493 9.3380864,24.685827 12.147961,24.945118 14.783211,24.878972 21.506274,24.709639 27.784836,22.825806 33.449565,20.817618 39.172503,18.79091 44.570003,16.380556 49.742607,13.792931 51.592044,12.866889 53.417669,11.917035 55.198315,10.930139 59.24644,8.6917635 63.029982,6.2232015 67.321523,4.1938475 71.290273,2.3179515 75.822585,0.71193054 80.892005,0.43676354 84.791965,0.22509754 88.903585,0.85215954 92.459585,2.4608265 95.949435,4.0403885 98.619085,6.4375135 100.2013,9.0595345 102.05603,12.136639 102.47672,15.435993 102.14863,18.560722 104.43463,17.735223 106.79207,16.999681 109.2818,16.425535 113.82734,15.380431 118.66657,14.806285 123.61428,14.718973 133.40386,14.541702 143.56121,16.256202 152.67611,19.804264 154.1763,20.388993 155.63151,21.039868 157.05761,21.722493 158.42286,22.376014 159.79869,23.021597 161.15601,23.683056 163.77538,24.974222 166.16192,26.50616 168.36326,28.141285 170.06982,29.411285 171.67319,30.744785 173.21836,32.107389 178.25867,36.544451 182.41792,41.296368 186.61686,46.008597 190.82109,50.728764 195.35869,55.258435 201.04459,59.422975 202.72205,60.650635 204.49211,61.812155 206.35478,62.889015 206.3733,63.068935 206.38653,63.248845 206.39976,63.428765 203.27238,61.619015 200.42017,59.587015 197.79815,57.472995 187.66196,49.305305 181.59242,39.782951 171.81607,31.480327 169.79201,29.760535 167.65417,28.096306 165.31261,26.580243 164.1458,25.826181 162.92342,25.111806 161.64813,24.452993 160.81469,24.024368 159.96009,23.619556 159.10019,23.220035 158.52869,22.952806 157.95455,22.688222 157.38569,22.415702 155.98076,21.746306 154.54936,21.106014 153.08092,20.518639 152.26601,20.193202 151.44051,19.880993 150.60707,19.58466 147.66226,18.542202 144.61161,17.682306 141.51069,17.015556 138.40184,16.34616 135.24007,15.872556 132.08094,15.594743 131.71582,15.562993 131.35334,15.533889 130.98821,15.507431 121.14572,14.785118 111.37994,15.967806 103.11965,18.947014 102.76247,19.07666 102.41057,19.208952 102.05603,19.343889 101.59301,22.516243 100.24363,25.733577 97.402005,28.080431 95.380585,29.749952 92.856465,31.477681 89.776715,32.202639 88.575505,32.485743 87.144105,32.557181 85.919085,31.985681 84.059065,31.117847 83.688645,29.466847 84.389795,28.249764 84.908375,27.350181 85.845005,26.614639 86.763105,25.921431 87.617715,25.278493 88.533165,24.675243 89.496255,24.111681 91.515025,22.934285 93.729585,21.926222 95.999715,20.98166 97.756545,20.25141 99.523965,19.529097 101.32842,18.857056 102.13011,13.348431 100.28067,6.8264515 92.874985,3.1990135 89.318985,1.4580555 85.085645,0.79395154 81.111605,1.0373685 76.129505,1.3416385 71.703023,2.9317845 67.800419,4.7865135 63.683502,6.7444305 60.029607,9.0992225 56.153461,11.26616 54.364878,12.266285 52.528669,13.226723 50.668648,14.163348 45.742107,16.645139 40.60919,18.957597 35.193169,20.944618 29.65544,22.973972 23.638815,24.849868 17.143295,25.365806 12.084461,25.767972 6.5070454,25.093285 2.7578994,21.950035 1.8212744,21.164222 1.0698574,20.28316 0.45602441,19.375639 0.18614941,18.976118 0.86877441,18.954952 1.0963164,19.293618 Z M 96.576505,21.539931 C 94.412215,22.439514 92.298185,23.397306 90.356145,24.50591 89.329565,25.090639 88.350605,25.717702 87.451025,26.395035 86.548795,27.075014 85.596295,27.80791 85.101525,28.69691 84.643795,29.514472 84.619985,30.660118 85.789435,31.366556 86.297435,31.673472 86.932435,31.80841 87.551565,31.824285 89.125835,31.869264 90.583685,31.289827 91.784895,30.736847 93.208355,30.078035 94.491585,29.281639 95.663685,28.424389 98.407415,26.421493 100.03726,23.907952 100.84953,21.087493 100.98182,20.627118 101.09294,20.153514 101.18819,19.671972 99.632435,20.272577 98.097855,20.902285 96.576505,21.537285 Z"
       style="opacity:0.15;isolation:isolate;fill:#ffffff;stroke:#ffffff;stroke-width:0.79375px;stroke-miterlimit:10"
       id="path86" />
  </g>
</svg>
