<?xml version="1.0" encoding="UTF-8" standalone="no"?>
<!-- Created with Inkscape (http://www.inkscape.org/) -->

<svg
   width="495.52954mm"
   height="76.198189mm"
   viewBox="0 0 495.52954 76.198189"
   version="1.1"
   id="svg1"
   inkscape:version="1.4 (e7c3feb100, 2024-10-09)"
   sodipodi:docname="stroke-offer.svg"
   xmlns:inkscape="http://www.inkscape.org/namespaces/inkscape"
   xmlns:sodipodi="http://sodipodi.sourceforge.net/DTD/sodipodi-0.dtd"
   xmlns="http://www.w3.org/2000/svg"
   xmlns:svg="http://www.w3.org/2000/svg">
  <sodipodi:namedview
     id="namedview1"
     pagecolor="#ffffff"
     bordercolor="#000000"
     borderopacity="0.25"
     inkscape:showpageshadow="2"
     inkscape:pageopacity="0.0"
     inkscape:pagecheckerboard="0"
     inkscape:deskcolor="#d1d1d1"
     inkscape:document-units="mm"
     inkscape:zoom="0.7180275"
     inkscape:cx="396.22438"
     inkscape:cy="561.25984"
     inkscape:window-width="1920"
     inkscape:window-height="1015"
     inkscape:window-x="1920"
     inkscape:window-y="1080"
     inkscape:window-maximized="1"
     inkscape:current-layer="layer1" />
  <defs
     id="defs1" />
  <g
     inkscape:label="Layer 1"
     inkscape:groupmode="layer"
     id="layer1">
    <g
       class="cls-87"
       id="g111"
       style="opacity:0.33"
       transform="matrix(0.26458333,0,0,0.26458333,58.892964,-657.15708)">
      <path
         class="cls-32"
         d="M 1650.28,2664.57 C 1618.64,2645.99 1585.87,2627.85 1549.96,2611.05 1531.94,2602.62 1513.4,2594.46 1493.91,2586.95 1468.77,2577.26 1441.98,2568.63 1413.2,2562.15 1398.32,2558.84 1383.26,2555.69 1368.3,2552.46 1352.68,2549.09 1336.82,2546 1320.61,2543.48 1222.18,2528.19 1116.35,2528.36 1017.5,2542.6 967.57,2549.79 919.56,2560.56 875.33,2574.57 851.1,2582.25 828.51,2591.02 806.79,2600.36 804.71,2575.91 794.74,2551.09 770.62,2529.88 750.05,2511.79 718.85,2496.88 680.78,2489.33 641.98,2481.64 599.26,2482.24 560.14,2488.98 509.27,2497.75 466.15,2516.06 429.21,2535.7 389.26,2556.95 355.22,2580.89 318.11,2603.42 301.78,2613.34 284.94,2623.04 267.81,2632.59 219.92,2659.3 169.43,2684.91 114.98,2708.02 61.1,2730.9 0.77,2753.65 -67.01,2763.78 -93.57,2767.75 -122.48,2769.46 -149.47,2765.59 -177.67,2761.54 -199.56,2751.39 -215.31,2738.88 -218.21,2736.58 -225.08,2737.62 -221.65,2740.35 -213.86,2746.53 -204.73,2752.31 -193.88,2757.12 -150.46,2776.35 -92.82,2774.19 -42.27,2764.45 22.61,2751.95 80.3,2729.62 132.85,2706.73 184.27,2684.33 232.24,2659.81 277.83,2634.26 295.05,2624.61 311.99,2614.81 328.37,2604.78 363.86,2583.04 396.78,2560.13 435.08,2539.66 471.38,2520.27 513.46,2502.23 563.37,2493.34 603.19,2486.25 647.2,2485.78 686.23,2494.49 767.51,2512.63 797.54,2560.34 798.95,2603.74 781.83,2611.28 765.19,2619.14 748.66,2627.07 727.32,2637.32 706.62,2647.98 688.22,2659.68 679.42,2665.27 671.2,2671.11 663.67,2677.18 655.58,2683.7 647.37,2690.61 643.68,2698.19 638.68,2708.47 645.28,2720.68 665.63,2724.9 679.03,2727.68 693.38,2725.24 705.06,2721.49 734.99,2711.87 757.56,2695.27 775.13,2679.78 799.86,2657.98 807.95,2631.48 807.14,2606.49 810.49,2605 813.83,2603.51 817.22,2602.05 895.72,2568.29 992.55,2546.35 1093.48,2538.96 1097.22,2538.69 1100.96,2538.43 1104.7,2538.2 1137.18,2536.18 1170.01,2535.67 1202.66,2536.72 1235.22,2537.77 1267.61,2540.36 1299.24,2544.5 1308.2,2545.67 1317.09,2546.99 1325.91,2548.42 1341.8,2551.01 1357.39,2554.05 1372.78,2557.35 1379.01,2558.69 1385.29,2559.97 1391.55,2561.27 1400.94,2563.21 1410.3,2565.18 1419.48,2567.39 1433.53,2570.77 1447.13,2574.65 1460.26,2578.92 1486.62,2587.48 1511.14,2597.48 1534.62,2608.03 1576.77,2626.98 1614.02,2647.89 1650.18,2669.23 1650.2,2667.67 1650.22,2666.1 1650.25,2664.54 Z M 797.99,2621.5 C 794.66,2644.25 782.48,2665.72 758.18,2684.73 747.79,2692.86 736.18,2700.67 722.91,2707.6 711.73,2713.44 697.97,2719.8 681.94,2721.53 675.65,2722.21 668.97,2722.01 663.31,2720.32 650.23,2716.42 648.5,2707.59 651.71,2700.69 655.2,2693.2 663.57,2686.32 671.53,2679.9 679.46,2673.5 688.29,2667.4 697.67,2661.55 715.41,2650.48 735.16,2640.34 755.51,2630.57 769.82,2623.7 784.25,2616.84 798.97,2610.17 798.85,2614 798.53,2617.78 797.99,2621.49 Z"
         id="path110"
         style="fill:#ffffff" />
    </g>
  </g>
</svg>
