<svg id="svg293" version="1.1" viewBox="0 0 48 48" xmlns="http://www.w3.org/2000/svg">
  <g id="g7" transform="translate(0 .7656)">
    <g id="path1">
      <path id="path2" d="m8.5 12h31" style="-inkscape-stroke:none;color:#000000;fill:#ff9955;paint-order:markers fill stroke;stroke-linecap:round;stroke-linejoin:round;stroke-miterlimit:12.3"/>
      <path id="path3" d="m8.5 9.5a2.5 2.5 0 0 0-2.5 2.5 2.5 2.5 0 0 0 2.5 2.5h31a2.5 2.5 0 0 0 2.5-2.5 2.5 2.5 0 0 0-2.5-2.5h-12.97z" style="-inkscape-stroke:none;color:#000000;fill:#000000;paint-order:markers fill stroke;stroke-linecap:round;stroke-linejoin:round;stroke-miterlimit:12.3"/>
    </g>
    <g id="path1-5">
      <path id="path4" d="m8.5 23.23h31" style="-inkscape-stroke:none;color:#000000;fill:#ff9955;paint-order:markers fill stroke;stroke-linecap:round;stroke-linejoin:round;stroke-miterlimit:12.3"/>
      <path id="path5" d="m8.5 20.73a2.5 2.5 0 0 0-2.5 2.5 2.5 2.5 0 0 0 2.5 2.5h31a2.5 2.5 0 0 0 2.5-2.5 2.5 2.5 0 0 0-2.5-2.5z" style="-inkscape-stroke:none;color:#000000;fill:#000000;paint-order:markers fill stroke;stroke-linecap:round;stroke-linejoin:round;stroke-miterlimit:12.3"/>
    </g>
    <g id="path1-9">
      <path id="path6" d="m8.5 34.47h31" style="-inkscape-stroke:none;color:#000000;fill:#ff9955;paint-order:markers fill stroke;stroke-linecap:round;stroke-linejoin:round;stroke-miterlimit:12.3"/>
      <path id="path7" d="m8.5 31.97a2.5 2.5 0 0 0-2.5 2.5 2.5 2.5 0 0 0 2.5 2.5h31a2.5 2.5 0 0 0 2.5-2.5 2.5 2.5 0 0 0-2.5-2.5z" style="-inkscape-stroke:none;color:#000000;fill:#000000;paint-order:markers fill stroke;stroke-linecap:round;stroke-linejoin:round;stroke-miterlimit:12.3"/>
    </g>
  </g>
</svg>
